<svg viewBox="-53 0 512 512" xmlns="http://www.w3.org/2000/svg"><path d="m75.285156 84.808594h72.988282v40.863281h-72.988282zm0 0" fill="#fff69a"/><path d="m177.058594 0c-5.726563 0-124.828125 0-130.554688 0-4.269531 0-6.65625 4.953125-3.96875 8.269531 11.554688 14.246094 32.75 45.640625 32.75 84.222657h72.988282c0-38.582032 21.195312-69.976563 32.75-84.222657 2.691406-3.316406.304687-8.269531-3.964844-8.269531zm0 0" fill="#c8d952"/><path d="m75.285156 84.808594h20.605469v40.867187h-20.605469zm0 0" fill="#ffd782"/><path d="m63.140625 8.269531c11.554687 14.246094 32.75 45.640625 32.75 84.222657h-20.605469c0-38.582032-21.195312-69.976563-32.75-84.222657-2.6875-3.316406-.300781-8.269531 3.96875-8.269531h20.605469c-4.269531 0-6.65625 4.953125-3.96875 8.269531zm0 0" fill="#8ec13f"/><path d="m122.917969 61.894531c-1.390625 6.367188-3.015625 16.625-3.347657 30.597657h-15.460937c.269531-12.4375 1.511719-23.820313 3.710937-33.894532.789063-3.613281 3.988282-6.078125 7.542969-6.078125 4.945313 0 8.605469 4.570313 7.554688 9.375zm0 0" fill="#8ec13f"/><path d="m75.285156 386.324219h72.988282v40.867187h-72.988282zm0 0" fill="#fff69a"/><path d="m177.058594 512c-5.726563 0-124.828125 0-130.554688 0-4.269531 0-6.65625-4.953125-3.964844-8.269531 11.554688-14.246094 32.75-45.640625 32.75-84.222657h72.984376c0 38.582032 21.195312 69.976563 32.75 84.222657 2.691406 3.316406.304687 8.269531-3.964844 8.269531zm0 0" fill="#c8d952"/><path d="m75.285156 386.324219h20.605469v40.867187h-20.605469zm0 0" fill="#ffd782"/><path d="m63.140625 503.730469c11.554687-14.246094 32.75-45.640625 32.75-84.222657h-20.605469c0 38.582032-21.195312 69.976563-32.75 84.222657-2.6875 3.316406-.300781 8.269531 3.96875 8.269531h20.605469c-4.269531 0-6.65625-4.953125-3.96875-8.269531zm0 0" fill="#8ec13f"/><path d="m122.917969 450.105469c-1.390625-6.367188-3.015625-16.625-3.347657-30.597657h-15.460937c.269531 12.4375 1.511719 23.820313 3.710937 33.894532.789063 3.613281 3.988282 6.078125 7.542969 6.078125 4.945313 0 8.605469-4.570313 7.554688-9.375zm0 0" fill="#8ec13f"/><path d="m152.109375 117.917969h-80.65625c-39.300781 0-71.453125 32.152343-71.453125 71.453125v133.257812c0 39.300782 32.152344 71.453125 71.453125 71.453125h80.65625c39.296875 0 71.453125-32.152343 71.453125-71.453125v-133.257812c0-39.300782-32.15625-71.453125-71.453125-71.453125zm0 0" fill="#c8d952"/><path d="m20.605469 322.628906v-133.257812c0-39.300782 32.152343-71.453125 71.453125-71.453125h-20.605469c-39.300781 0-71.453125 32.152343-71.453125 71.453125v133.257812c0 39.300782 32.152344 71.453125 71.453125 71.453125h20.605469c-39.300782 0-71.453125-32.152343-71.453125-71.453125zm0 0" fill="#8ec13f"/><path d="m223.5625 306.847656-223.5625 15.78125v-115.726562l223.5625-15.78125zm0 0" fill="#8ec13f"/><path d="m0 206.902344v115.726562l20.605469-1.453125v-115.726562zm0 0" fill="#7cad27"/><path d="m257.449219 84.808594h72.984375v40.863281h-72.984375zm0 0" fill="#fff69a"/><path d="m359.21875 0c-5.726562 0-124.828125 0-130.554688 0-4.269531 0-6.65625 4.953125-3.964843 8.269531 11.554687 14.246094 32.75 45.640625 32.75 84.222657h72.984375c0-38.582032 21.199218-69.976563 32.75-84.222657 2.691406-3.316406.304687-8.269531-3.964844-8.269531zm0 0" fill="#87cee9"/><path d="m257.449219 84.808594h20.605469v40.867187h-20.605469zm0 0" fill="#ffd782"/><path d="m245.304688 8.269531c11.550781 14.246094 32.75 45.640625 32.75 84.222657h-20.605469c0-38.582032-21.195313-69.976563-32.75-84.222657-2.691407-3.316406-.304688-8.269531 3.964843-8.269531h20.605469c-4.269531 0-6.65625 4.953125-3.964843 8.269531zm0 0" fill="#32b1cc"/><path d="m305.078125 61.894531c-1.386719 6.367188-3.011719 16.625-3.34375 30.597657h-15.460937c.265624-12.4375 1.507812-23.820313 3.707031-33.894532.789062-3.613281 3.988281-6.078125 7.542969-6.078125 4.949218 0 8.605468 4.570313 7.554687 9.375zm0 0" fill="#32b1cc"/><path d="m257.449219 386.324219h72.984375v40.867187h-72.984375zm0 0" fill="#fff69a"/><path d="m359.21875 512c-5.726562 0-124.828125 0-130.554688 0-4.269531 0-6.65625-4.953125-3.964843-8.269531 11.554687-14.246094 32.75-45.640625 32.75-84.222657h72.984375c0 38.582032 21.199218 69.976563 32.75 84.222657 2.691406 3.316406.304687 8.269531-3.964844 8.269531zm0 0" fill="#87cee9"/><path d="m257.449219 386.324219h20.605469v40.867187h-20.605469zm0 0" fill="#ffd782"/><path d="m245.304688 503.730469c11.550781-14.246094 32.75-45.640625 32.75-84.222657h-20.605469c0 38.582032-21.195313 69.976563-32.75 84.222657-2.691407 3.316406-.304688 8.269531 3.964843 8.269531h20.605469c-4.269531 0-6.65625-4.953125-3.964843-8.269531zm0 0" fill="#32b1cc"/><path d="m305.078125 450.105469c-1.386719-6.367188-3.011719-16.625-3.34375-30.597657h-15.460937c.265624 12.4375 1.507812 23.820313 3.707031 33.894532.789062 3.613281 3.988281 6.078125 7.542969 6.078125 4.949218 0 8.605468-4.570313 7.554687-9.375zm0 0" fill="#32b1cc"/><path d="m334.269531 117.917969h-80.65625c-39.300781 0-71.453125 32.152343-71.453125 71.453125v133.257812c0 39.300782 32.152344 71.453125 71.453125 71.453125h80.65625c39.300781 0 71.453125-32.152343 71.453125-71.453125v-133.257812c0-39.300782-32.152344-71.453125-71.453125-71.453125zm0 0" fill="#87cee9"/><path d="m202.765625 322.628906v-133.257812c0-39.300782 32.152344-71.453125 71.453125-71.453125h-20.605469c-39.296875 0-71.453125 32.152343-71.453125 71.453125v133.257812c0 39.300782 32.152344 71.453125 71.453125 71.453125h20.605469c-39.300781 0-71.453125-32.152343-71.453125-71.453125zm0 0" fill="#32b1cc"/><path d="m405.722656 306.847656-223.5625 15.78125v-115.726562l223.5625-15.78125zm0 0" fill="#32b1cc"/><path d="m182.160156 206.902344v115.726562l20.605469-1.453125v-115.726562zm0 0" fill="#1695b7"/></svg>