<svg viewBox="-142 0 511 511.99968" xmlns="http://www.w3.org/2000/svg"><path d="m110.527344 1.933594c-18.453125 16.234375-45.871094 46.824218-41.386719 82.382812h89.265625s-36.730469-32.457031-35.121094-76.023437c.257813-6.933594-7.613281-10.886719-12.757812-6.359375zm0 0" fill="#f98c96"/><path d="m123.277344 9.265625c.007812-.324219-.003906-.644531.007812-.972656.257813-6.933594-7.613281-10.886719-12.757812-6.359375-18.457032 16.234375-45.871094 46.824218-41.386719 82.382812h20.605469c-3.882813-30.765625 16.117187-57.804687 33.53125-75.050781zm0 0" fill="#ea5471"/><path d="m187.007812 111.632812c0-16.0625-12.59375-29.085937-28.125-29.085937h-89.804687c-15.535156 0-28.125 13.023437-28.125 29.085937 0 16.066407 12.589844 29.089844 28.125 29.089844h89.804687c15.53125 0 28.125-13.023437 28.125-29.089844zm0 0" fill="#ea5471"/><path d="m61.558594 111.632812c0-16.0625 12.589844-29.085937 28.125-29.085937h-20.605469c-15.535156 0-28.125 13.023437-28.125 29.085937 0 16.066407 12.589844 29.089844 28.125 29.089844h20.605469c-15.535156 0-28.125-13.023437-28.125-29.089844zm0 0" fill="#da1c4b"/><path d="m209.671875 167.703125c0-15.964844-12.589844-28.910156-28.125-28.910156h-135.136719c-15.53125 0-28.125 12.945312-28.125 28.910156s12.59375 28.910156 28.125 28.910156h135.136719c15.535156 0 28.125-12.945312 28.125-28.910156zm0 0" fill="#f98c96"/><path d="m38.894531 167.703125c0-15.964844 12.589844-28.910156 28.121094-28.910156h-20.605469c-15.53125 0-28.121094 12.945312-28.121094 28.910156s12.589844 28.910156 28.121094 28.910156h20.605469c-15.53125 0-28.121094-12.945312-28.121094-28.910156zm0 0" fill="#ea5471"/><path d="m196.425781 195.042969h-164.890625c-15.535156 0-28.125 12.832031-28.125 28.664062s12.589844 28.667969 28.125 28.667969h164.890625c15.53125 0 28.125-12.835938 28.125-28.667969s-12.59375-28.664062-28.125-28.664062zm0 0" fill="#ea5471"/><path d="m24.015625 223.707031c0-15.832031 12.589844-28.664062 28.125-28.664062h-20.605469c-15.535156 0-28.125 12.832031-28.125 28.664062s12.589844 28.667969 28.125 28.667969h20.605469c-15.535156 0-28.125-12.835938-28.125-28.667969zm0 0" fill="#da1c4b"/><path d="m21.683594 291.394531 22.488281 210.59375c.609375 5.695313 5.414063 10.011719 11.136719 10.011719h117.339844c5.726562 0 10.53125-4.320312 11.136718-10.011719l22.492188-210.59375zm0 0" fill="#32b1cc"/><path d="m65.292969 501.988281-22.488281-210.589843h-21.121094l22.492187 210.589843c.605469 5.695313 5.410157 10.011719 11.136719 10.011719h21.121094c-5.726563 0-10.53125-4.316406-11.140625-10.011719zm0 0" fill="#1695b7"/><path d="m40.695312 469.410156 3.476563 32.578125c.609375 5.695313 5.414063 10.011719 11.136719 10.011719h117.339844c5.726562 0 10.53125-4.320312 11.136718-10.011719l3.480469-32.578125zm0 0" fill="#87cee9"/><path d="m44.171875 501.988281c.609375 5.695313 5.414063 10.011719 11.136719 10.011719h21.125c-5.726563 0-10.53125-4.316406-11.140625-10.011719l-3.476563-32.574219h-21.121094zm0 0" fill="#32b1cc"/><path d="m220.605469 251.289062h-213.25c-3.785157 0-6.855469 3.070313-6.855469 6.855469v28.476563c0 3.785156 3.070312 6.855468 6.855469 6.855468h213.25c3.785156 0 6.855469-3.070312 6.855469-6.855468v-28.476563c0-3.785156-3.070313-6.855469-6.855469-6.855469zm0 0" fill="#87cee9"/><path d="m21.105469 286.621094v-28.472656c0-3.789063 3.066406-6.855469 6.851562-6.855469h-20.601562c-3.785157 0-6.855469 3.066406-6.855469 6.855469v28.472656c0 3.785156 3.070312 6.855468 6.855469 6.855468h20.601562c-3.785156 0-6.851562-3.070312-6.851562-6.855468zm0 0" fill="#32b1cc"/><path d="m147.914062 378.484375c0 18.988281-15.394531 34.382813-34.382812 34.382813-18.992188 0-34.382812-15.394532-34.382812-34.382813 0-18.992187 15.390624-34.382813 34.382812-34.382813 18.988281 0 34.382812 15.390626 34.382812 34.382813zm0 0" fill="#b7e9f9"/><path d="m99.75 378.484375c0-15.402344 10.125-28.433594 24.082031-32.8125-3.253906-1.019531-6.714843-1.570313-10.300781-1.570313-18.992188 0-34.382812 15.394532-34.382812 34.382813s15.390624 34.382813 34.382812 34.382813c3.589844 0 7.046875-.550782 10.300781-1.574219-13.957031-4.378907-24.082031-17.410157-24.082031-32.808594zm0 0" fill="#87cee9"/></svg>