<svg viewBox="0 0 512 512.001" xmlns="http://www.w3.org/2000/svg"><path d="m256 0c-141.382812 0-256 114.613281-256 256s114.617188 256 256 256c141.386719 0 256-114.613281 256-256s-114.613281-256-256-256zm0 365.039062c-60.21875 0-109.039062-48.820312-109.039062-109.039062s48.820312-109.039062 109.039062-109.039062 109.039062 48.820312 109.039062 109.039062-48.820312 109.039062-109.039062 109.039062zm0 0" fill="#ffd782"/><path d="m20.605469 256c0-137.933594 109.089843-250.367188 245.699219-255.773438-3.421876-.1367182-6.851563-.226562-10.304688-.226562-141.382812 0-256 114.613281-256 256s114.617188 256 256 256c3.453125 0 6.882812-.089844 10.300781-.222656-136.601562-5.410156-245.695312-117.84375-245.695312-255.777344zm0 0" fill="#fdbd40"/><path d="m471.382812 256c0-28.289062-18.578124-52.6875-28.777343-77.289062-10.574219-25.503907-15.085938-55.789063-34.304688-75.011719-19.21875-19.21875-49.507812-23.726563-75.011719-34.304688-24.597656-10.199219-48.996093-28.777343-77.289062-28.777343-28.289062 0-52.6875 18.578124-77.289062 28.777343-25.5 10.578125-55.789063 15.085938-75.007813 34.304688s-23.730469 49.507812-34.304687 75.011719c-10.203126 24.601562-28.78125 49-28.78125 77.289062s18.578124 52.6875 28.78125 77.289062c10.574218 25.503907 15.085937 55.789063 34.304687 75.011719 19.21875 19.21875 49.507813 23.726563 75.007813 34.304688 24.601562 10.199219 49 28.777343 77.289062 28.777343 28.292969 0 52.6875-18.578124 77.289062-28.777343 25.503907-10.578125 55.792969-15.085938 75.011719-34.304688s23.730469-49.507812 34.304688-75.011719c10.199219-24.601562 28.777343-49 28.777343-77.289062zm-215.382812 109.039062c-60.21875 0-109.039062-48.820312-109.039062-109.039062s48.820312-109.039062 109.039062-109.039062 109.039062 48.816406 109.039062 109.039062c0 60.21875-48.820312 109.039062-109.039062 109.039062zm0 0" fill="#ea5471"/><path d="m199.066406 442.605469c-25.503906-10.578125-55.792968-15.085938-75.011718-34.304688-19.21875-19.222656-23.726563-49.507812-34.304688-75.011719-10.199219-24.601562-28.777344-49-28.777344-77.289062s18.578125-52.6875 28.777344-77.289062c10.578125-25.503907 15.085938-55.789063 34.304688-75.011719 19.222656-19.21875 49.507812-23.726563 75.011718-34.300781 21.601563-8.960938 43.050782-24.375 67.113282-27.996094-3.339844-.503906-6.730469-.785156-10.179688-.785156-28.289062 0-52.6875 18.578124-77.289062 28.78125-25.5 10.574218-55.789063 15.085937-75.007813 34.304687s-23.730469 49.507813-34.304687 75.007813c-10.203126 24.601562-28.78125 49-28.78125 77.289062s18.578124 52.6875 28.78125 77.289062c10.574218 25.503907 15.085937 55.789063 34.304687 75.011719 19.21875 19.21875 49.507813 23.726563 75.007813 34.304688 24.601562 10.199219 49 28.777343 77.289062 28.777343 3.449219 0 6.835938-.277343 10.175781-.78125-24.058593-3.625-45.507812-19.039062-67.109375-27.996093zm0 0" fill="#da1c4b"/><path d="m374.320312 164.664062-23.835937-23.835937c-3.019531-3.015625-3.019531-7.910156 0-10.925781 3.015625-3.019532 7.90625-3.019532 10.925781 0l23.835938 23.835937c3.019531 3.019531 3.019531 7.910157 0 10.925781-3.015625 3.019532-7.910156 3.019532-10.925782 0zm0 0" fill="#ffd782"/><path d="m146.375 383.226562-23.839844-23.835937c-3.019531-3.019531-3.019531-7.910156 0-10.925781 3.015625-3.019532 7.910156-3.019532 10.925782 0l23.839843 23.835937c3.019531 3.015625 3.019531 7.910157 0 10.925781-3.019531 3.019532-7.910156 3.019532-10.925781 0zm0 0" fill="#ffd782"/><path d="m360.113281 385.097656c-4.050781-1.347656-6.242187-5.71875-4.898437-9.769531l10.632812-31.992187c1.347656-4.050782 5.71875-6.238282 9.773438-4.894532 4.046875 1.34375 6.238281 5.71875 4.894531 9.769532l-10.632813 31.992187c-1.347656 4.046875-5.71875 6.238281-9.769531 4.894531zm0 0" fill="#ffd782"/><g fill="#da1c4b"><path d="m98.179688 278.878906-14.421876-30.472656c-1.824218-3.855469-.175781-8.464844 3.679688-10.289062 3.855469-1.828126 8.464844-.179688 10.289062 3.679687l14.421876 30.46875c1.828124 3.855469.179687 8.464844-3.675782 10.289063-3.855468 1.828124-8.464844.179687-10.292968-3.675782zm0 0"/><path d="m301.453125 421.164062-32.960937-7.085937c-4.171876-.898437-6.824219-5.007813-5.925782-9.179687.894532-4.171876 5.003906-6.824219 9.175782-5.929688l32.960937 7.089844c4.171875.894531 6.824219 5.007812 5.925781 9.179687-.894531 4.167969-5.003906 6.824219-9.175781 5.925781zm0 0"/><path d="m223.921875 119.738281c-3.632813-2.246093-4.757813-7.003906-2.511719-10.636719l17.714844-28.679687c2.242188-3.632813 7-4.757813 10.632812-2.515625 3.632813 2.246094 4.757813 7.003906 2.515626 10.636719l-17.71875 28.679687c-2.238282 3.628906-7 4.757813-10.632813 2.515625zm0 0"/><path d="m121.550781 180.84375c-3.851562-1.835938-5.484375-6.449219-3.644531-10.300781l14.519531-30.425781c1.835938-3.851563 6.449219-5.480469 10.300781-3.644532 3.851563 1.839844 5.484376 6.449219 3.644532 10.300782l-14.519532 30.425781c-1.835937 3.847656-6.441406 5.484375-10.300781 3.644531zm0 0"/></g><path d="m303.074219 120.886719c-4.230469 0-7.726563-3.410157-7.726563-7.726563 0-4.964844 4.609375-8.527344 9.242188-7.570312 3.765625.796875 6.210937 3.988281 6.210937 7.570312 0 4.285156-3.496093 7.726563-7.726562 7.726563zm0 0" fill="#87cee9"/><path d="m113.242188 215.390625c-4.296876 0-7.726563-3.535156-7.726563-7.726563 0-4.800781 4.4375-8.5625 9.242187-7.570312 3.644532.683594 6.222657 3.992188 6.222657 7.570312 0 4.058594-3.273438 7.726563-7.738281 7.726563zm0 0" fill="#87cee9"/><path d="m407.863281 328.472656c-4.148437 0-7.730469-3.375-7.730469-7.726562 0-4.914063 4.5-8.519532 9.234376-7.582032 3.765624.78125 6.222656 4.023438 6.222656 7.582032 0 4.265625-3.496094 7.726562-7.726563 7.726562zm0 0" fill="#da1c4b"/><path d="m387.863281 224.363281c-2.039062 0-4.027343-.824219-5.46875-2.265625-2.992187-2.992187-3.015625-7.90625 0-10.921875 4.804688-4.832031 13.195313-1.4375 13.195313 5.460938 0 4.300781-3.53125 7.726562-7.726563 7.726562zm0 0" fill="#da1c4b"/><path d="m245.703125 436.152344c-4.253906 0-7.730469-3.449219-7.730469-7.714844 0-4.980469 4.578125-8.519531 9.234375-7.582031 3.800781.792969 6.222657 4.058593 6.222657 7.582031 0 4.15625-3.375 7.714844-7.726563 7.714844zm0 0" fill="#87cee9"/><path d="m189.53125 404.75c-4.238281 0-7.726562-3.449219-7.726562-7.726562 0-4.902344 4.492187-8.523438 9.230468-7.582032 3.90625.8125 6.222656 4.179688 6.222656 7.582032 0 4.234374-3.46875 7.726562-7.726562 7.726562zm0 0" fill="#8ec13f"/><path d="m403.796875 279.597656c-3.628906-2.246094-4.753906-7.003906-2.511719-10.636718l17.714844-28.679688c2.246094-3.632812 7.003906-4.757812 10.636719-2.515625 3.628906 2.246094 4.753906 7.003906 2.511719 10.636719l-17.714844 28.679687c-2.242188 3.628907-7.003906 4.757813-10.636719 2.515625zm0 0" fill="#8ec13f"/></svg>