<svg viewBox="0 -1 511.99922 511" xmlns="http://www.w3.org/2000/svg"><path d="m301.542969 495.15625c31.671875-26.339844 66.769531-40.996094 103.707031-40.996094 2.203125 0 4.398438.054688 6.585938.160156 58.738281-46.527343 96.613281-118.339843 96.886718-198.574218.085938-25.203125-3.507812-49.554688-10.253906-72.558594-1.191406-4.070312-5.628906-6.132812-9.601562-4.644531-17.332032 6.496093-37.621094 2.78125-51.5625-11.164063-.898438-.894531-1.75-1.816406-2.5625-2.765625-2.148438-2.515625-5.640626-3.375-8.789063-2.363281-20.363281 6.566406-43.59375 1.777344-59.765625-14.390625-16.117188-16.121094-20.925781-39.253906-14.453125-59.570313 1.042969-3.269531.144531-6.878906-2.453125-9.117187-.894531-.769531-1.765625-1.578125-2.613281-2.425781-14.429688-14.429688-17.914063-35.65625-10.457031-53.371094 1.898437-4.507812-.566407-9.648438-5.234376-11.121094-24.386718-7.695312-50.363281-11.828125-77.3125-11.753906-141.195312.378906-254.0625 113.902344-253.664062 255.097656.398438 141.132813 115.738281 255.226563 257.335938 253.609375 14.3125-.164062 28.34375-1.539062 42.003906-3.996093-1.5-3.226563-1.0625-7.339844 2.203125-10.054688zm-47.179688-131.953125c-59.835937 0-108.339843-48.507813-108.339843-108.339844 0-59.835937 48.503906-108.339843 108.339843-108.339843 59.832031 0 108.339844 48.503906 108.339844 108.339843 0 59.835938-48.503906 108.339844-108.339844 108.339844zm0 0" fill="#ffd782"/><path d="m20.605469 255.597656c-.390625-138.011718 107.449219-249.566406 244.171875-254.878906-3.683594-.148438-7.390625-.226562-11.113282-.21875-141.195312.378906-254.0625 113.902344-253.664062 255.097656.398438 141.132813 115.738281 255.226563 257.335938 253.609375 2.402343-.027343 4.792968-.101562 7.179687-.195312-135.390625-5.472657-243.523437-116.769531-243.910156-253.414063zm0 0" fill="#fdbd40"/><path d="m468.367188 254.863281c0-28.109375-18.460938-52.351562-28.59375-76.796875-1.808594-4.355468-3.433594-8.855468-4.988282-13.410156-.011718-.015625-.027344-.03125-.039062-.042969-2.148438-2.515625-5.644532-3.375-8.792969-2.363281-20.363281 6.566406-43.59375 1.777344-59.761719-14.390625-16.121094-16.121094-20.929687-39.253906-14.457031-59.570313 1.042969-3.269531.148437-6.878906-2.453125-9.117187-.890625-.769531-1.765625-1.578125-2.613281-2.425781-.75-.753906-1.457031-1.535156-2.148438-2.324219-4.539062-1.546875-9.019531-3.167969-13.363281-4.96875-24.441406-10.136719-48.683594-28.597656-76.792969-28.597656s-52.351562 18.460937-76.796875 28.597656c-25.339844 10.507813-55.433594 14.988281-74.53125 34.085937-19.09375 19.09375-23.574218 49.191407-34.082031 74.53125-10.136719 24.441407-28.597656 48.683594-28.597656 76.792969s18.460937 52.351563 28.597656 76.796875c10.507813 25.335938 14.988281 55.433594 34.082031 74.527344 19.097656 19.097656 49.191406 23.578125 74.53125 34.085938 24.445313 10.136718 48.6875 28.597656 76.796875 28.597656s52.351563-18.460938 76.792969-28.597656c25.339844-10.507813 55.433594-14.988282 74.53125-34.082032 19.09375-19.097656 23.578125-49.191406 34.085938-74.53125 10.136718-24.445312 28.59375-48.6875 28.59375-76.796875zm-214.003907 108.339844c-59.835937 0-108.339843-48.507813-108.339843-108.339844 0-59.835937 48.503906-108.339843 108.339843-108.339843 59.832031 0 108.339844 48.503906 108.339844 108.339843 0 59.835938-48.503906 108.339844-108.339844 108.339844zm0 0" fill="#c65c38"/><path d="m198.171875 440.273438c-25.335937-10.507813-55.433594-14.988282-74.53125-34.085938-19.09375-19.097656-23.574219-49.191406-34.082031-74.53125-10.136719-24.441406-28.597656-48.683594-28.597656-76.792969s18.460937-52.351562 28.597656-76.796875c10.507812-25.339844 14.988281-55.433594 34.082031-74.53125 19.097656-19.09375 49.191406-23.578125 74.53125-34.085937 21.40625-8.875 42.660156-24.136719 66.492187-27.789063-3.378906-.519531-6.8125-.804687-10.300781-.804687-28.109375 0-52.351562 18.460937-76.796875 28.597656-25.339844 10.507813-55.433594 14.988281-74.53125 34.085937-19.09375 19.09375-23.574218 49.1875-34.082031 74.527344-10.136719 24.445313-28.597656 48.6875-28.597656 76.796875s18.460937 52.351563 28.597656 76.792969c10.507813 25.339844 14.988281 55.4375 34.082031 74.53125 19.097656 19.097656 49.191406 23.578125 74.53125 34.085938 24.445313 10.136718 48.6875 28.59375 76.796875 28.59375 3.492188 0 6.921875-.285157 10.300781-.800782-23.832031-3.65625-45.082031-18.917968-66.492187-27.792968zm0 0" fill="#9c2d20"/><path d="m145.402344 381.3125-23.6875-23.6875c-3.019532-3.015625-3.019532-7.910156 0-10.925781 3.015625-3.019531 7.910156-3.019531 10.925781 0l23.6875 23.683593c3.019531 3.019532 3.019531 7.910157 0 10.929688-3.015625 3.015625-7.910156 3.015625-10.925781 0zm0 0" fill="#8ec13f"/><path d="m357.792969 383.179688c-4.050781-1.34375-6.242188-5.71875-4.894531-9.769532l10.5625-31.785156c1.347656-4.050781 5.71875-6.242188 9.769531-4.894531 4.050781 1.34375 6.242187 5.71875 4.898437 9.769531l-10.566406 31.785156c-1.347656 4.046875-5.71875 6.242188-9.769531 4.894532zm0 0" fill="#fdbd40"/><path d="m97.507812 277.613281-14.328124-30.277343c-1.828126-3.855469-.179688-8.460938 3.675781-10.289063s8.464843-.179687 10.289062 3.679687l14.332031 30.277344c1.824219 3.855469.175782 8.464844-3.679687 10.289063s-8.460937.179687-10.289063-3.679688zm0 0" fill="#d3843d"/><path d="m299.511719 419.019531-32.746094-7.042969c-4.171875-.898437-6.828125-5.007812-5.929687-9.179687.894531-4.171875 5.003906-6.828125 9.179687-5.929687l32.746094 7.042968c4.171875.898438 6.828125 5.007813 5.929687 9.179688-.898437 4.171875-5.003906 6.824218-9.179687 5.929687zm0 0" fill="#87cee9"/><path d="m222.464844 119.511719c-3.632813-2.242188-4.757813-7.003907-2.515625-10.632813l17.605469-28.5c2.242187-3.628906 7-4.757812 10.632812-2.511718 3.628906 2.242187 4.753906 7.003906 2.511719 10.632812l-17.601563 28.5c-2.242187 3.628906-7.003906 4.753906-10.632812 2.511719zm0 0" fill="#ea5471"/><path d="m120.753906 180.230469c-3.851562-1.835938-5.484375-6.449219-3.648437-10.300781l14.425781-30.230469c1.839844-3.851563 6.449219-5.480469 10.300781-3.644531 3.851563 1.835937 5.484375 6.449218 3.648438 10.300781l-14.425781 30.230469c-1.835938 3.847656-6.445313 5.484374-10.300782 3.644531zm0 0" fill="#d3843d"/><path d="m301.136719 120.660156c-4.269531 0-7.726563-3.460937-7.726563-7.726562 0-3.507813 2.394532-6.757813 6.214844-7.570313 4.699219-.945312 9.238281 2.660157 9.238281 7.570313 0 4.273437-3.472656 7.726562-7.726562 7.726562zm0 0" fill="#d3843d"/><path d="m112.519531 214.558594c-4.203125 0-7.726562-3.378906-7.726562-7.726563 0-4.976562 4.628906-8.523437 9.242187-7.574219 3.800782.8125 6.214844 4.027344 6.214844 7.574219 0 4.300781-3.5 7.726563-7.730469 7.726563zm0 0" fill="#87cee9"/><path d="m405.253906 326.917969c-4.300781 0-7.734375-3.527344-7.734375-7.726563 0-3.410156 2.332031-6.773437 6.222657-7.582031 4.683593-.941406 9.230468 2.632813 9.230468 7.582031 0 4.113282-3.3125 7.726563-7.71875 7.726563zm0 0" fill="#fdbd40"/><path d="m385.382812 223.480469c-4.15625 0-7.726562-3.367188-7.726562-7.726563 0-4.953125 4.527344-8.515625 9.230469-7.582031 3.605469.75 6.222656 3.835937 6.222656 7.582031 0 4.253906-3.484375 7.726563-7.726563 7.726563zm0 0" fill="#fdbd40"/><path d="m244.125 433.917969c-4.273438 0-7.726562-3.488281-7.726562-7.726563 0-4.820312 4.457031-8.558594 9.242187-7.574218 3.402344.636718 6.210937 3.734374 6.210937 7.574218 0 4.15625-3.347656 7.726563-7.726562 7.726563zm0 0" fill="#d3843d"/><path d="m188.316406 402.710938c-4.148437 0-7.726562-3.375-7.726562-7.726563 0-4.867187 4.449218-8.519531 9.242187-7.582031 3.671875.785156 6.210938 3.898437 6.210938 7.582031 0 4.351563-3.589844 7.726563-7.726563 7.726563zm0 0" fill="#ea5471"/><path d="m401.1875 278.347656c-3.628906-2.242187-4.753906-7-2.511719-10.632812l17.601563-28.5c2.242187-3.628906 7.003906-4.753906 10.636718-2.511719 3.628907 2.242187 4.753907 7.003906 2.511719 10.632813l-17.601562 28.5c-2.242188 3.628906-7.003907 4.757812-10.636719 2.511718zm0 0" fill="#d3843d"/><path d="m405.25 452.296875c-36.9375 0-72.035156 15.144531-103.707031 42.359375-6.070313 5.21875-2.445313 15.445312 5.449219 15.445312h196.515624c7.894532 0 11.519532-10.226562 5.445313-15.445312-31.667969-27.214844-66.765625-42.359375-103.703125-42.359375zm0 0" fill="#c65c38"/><path d="m322.148438 494.65625c28.714843-24.671875 60.242187-39.421875 93.40625-41.964844-3.417969-.261718-6.855469-.394531-10.304688-.394531-36.9375 0-72.03125 15.144531-103.703125 42.359375-6.074219 5.21875-2.449219 15.445312 5.445313 15.445312h20.605468c-7.894531 0-11.519531-10.226562-5.449218-15.445312zm0 0" fill="#9c2d20"/></svg>