<svg viewBox="0 -19 512.00075 512" xmlns="http://www.w3.org/2000/svg"><path d="m431.699219 432.285156h-351.398438c-10.871093 0-19.683593 9.339844-19.683593 20.863282 0 11.519531 8.8125 20.859374 19.683593 20.859374h351.398438c10.871093 0 19.683593-9.339843 19.683593-20.859374 0-11.523438-8.8125-20.863282-19.683593-20.863282zm0 0" fill="#b7e9f9"/><path d="m81.222656 453.148438c0-11.523438 8.8125-20.863282 19.683594-20.863282h-20.605469c-10.871093 0-19.683593 9.339844-19.683593 20.863282 0 11.519531 8.8125 20.859374 19.683593 20.859374h20.605469c-10.871094 0-19.683594-9.339843-19.683594-20.859374zm0 0" fill="#87cee9"/><path d="m258.0625 85.574219h-183.472656c-12.125 0-22.046875 9.921875-22.046875 22.046875v265.605468c0 12.125 9.921875 22.046876 22.046875 22.046876h183.472656zm0 0" fill="#d3843d"/><path d="m73.148438 373.226562v-265.605468c0-12.125 9.921874-22.046875 22.046874-22.046875h-20.605468c-12.125 0-22.046875 9.921875-22.046875 22.046875v265.605468c0 12.125 9.921875 22.046876 22.046875 22.046876h20.605468c-12.125 0-22.046874-9.921876-22.046874-22.046876zm0 0" fill="#c65c38"/><path d="m82.03125 240.421875h173.96875v42.199219h-173.96875zm0 0" fill="#87cee9"/><path d="m82.03125 363.941406c0 2.527344 2.046875 4.574219 4.574219 4.574219h169.394531v-43.695313h-173.96875zm0 0" fill="#fff69a"/><path d="m102.632812 363.941406v-39.121094h-20.601562v39.121094c0 2.527344 2.046875 4.574219 4.574219 4.574219h20.601562c-2.523437.003906-4.574219-2.046875-4.574219-4.574219zm0 0" fill="#ffd782"/><path d="m82.03125 282.621094h173.96875v42.199218h-173.96875zm0 0" fill="#c8d952"/><path d="m82.03125 197.476562h173.96875v42.945313h-173.96875zm0 0" fill="#32b1cc"/><path d="m86.605469 112.332031c-2.527344 0-4.574219 2.046875-4.574219 4.574219v38.371094h173.96875v-42.945313zm0 0" fill="#ea5471"/><path d="m107.207031 112.332031h-20.601562c-2.527344 0-4.574219 2.046875-4.574219 4.574219v38.371094h20.601562v-38.371094c0-2.527344 2.050782-4.574219 4.574219-4.574219zm0 0" fill="#da1c4b"/><path d="m82.03125 155.277344h173.96875v42.199218h-173.96875zm0 0" fill="#fdbd40"/><path d="m82.03125 240.421875h20.601562v42.199219h-20.601562zm0 0" fill="#32b1cc"/><path d="m82.03125 282.621094h20.601562v42.199218h-20.601562zm0 0" fill="#8ec13f"/><path d="m82.03125 197.476562h20.601562v42.945313h-20.601562zm0 0" fill="#1695b7"/><path d="m82.03125 155.277344h20.601562v42.199218h-20.601562zm0 0" fill="#f2aa2a"/><path d="m151.859375 14.023438c-9.347656-18.695313-36.027344-18.695313-45.375 0l-17.421875 34.84375c-8.433594 16.863281 3.832031 36.707031 22.6875 36.707031h34.84375c18.855469 0 31.121094-19.84375 22.6875-36.707031zm0 0" fill="#da1c4b"/><path d="m109.890625 48.867188 17.421875-34.84375c2.828125-5.652344 7.238281-9.582032 12.273438-11.816407-11.621094-5.160156-26.578126-1.230469-33.101563 11.816407l-17.421875 34.84375c-8.433594 16.863281 3.832031 36.707031 22.6875 36.707031h20.828125c-18.855469 0-31.121094-19.84375-22.6875-36.707031zm0 0" fill="#bf0443"/><path d="m437.410156 85.574219h-181.410156v309.699219h181.410156c12.125 0 22.046875-9.921876 22.046875-22.046876v-265.605468c0-12.125-9.921875-22.046875-22.046875-22.046875zm0 0" fill="#ffd782"/><path d="m256 85.574219h19.65625v309.699219h-19.65625zm0 0" fill="#fdbd40"/><path d="m256 197.476562h203.457031v85.144532h-203.457031zm0 0" fill="#d3843d"/><path d="m256 197.476562h19.65625v85.144532h-19.65625zm0 0" fill="#c65c38"/><path d="m116.003906 64.03125c-4.1875 0-7.726562-3.378906-7.726562-7.730469 0-3.667969 2.621094-6.882812 6.210937-7.570312 4.644531-.957031 9.242188 2.605469 9.242188 7.570312 0 4.238281-3.4375 7.730469-7.726563 7.730469zm0 0" fill="#bf0443"/><path d="m142.996094 64.03125c-4.300782 0-7.726563-3.492188-7.726563-7.730469 0-4.882812 4.492188-8.546875 9.230469-7.570312 3.566406.667969 6.222656 3.925781 6.222656 7.570312 0 4.199219-3.414062 7.730469-7.726562 7.730469zm0 0" fill="#bf0443"/><path d="m129.167969 41.613281c-4.304688 0-7.726563-3.511719-7.726563-7.730469 0-4.984374 4.628906-8.519531 9.242188-7.570312 3.140625.65625 5.429687 3 6.066406 6.066406.929688 4.960938-2.828125 9.234375-7.582031 9.234375zm0 0" fill="#bf0443"/><path d="m506.578125 393.308594h-501.15625c-3.445313 0-6.042969 3.269531-5.289063 6.714844 4.207032 19.25 20.972657 33.636718 41.023438 33.636718h429.6875c20.050781 0 36.816406-14.386718 41.027344-33.636718.753906-3.445313-1.84375-6.714844-5.292969-6.714844zm0 0" fill="#d7f7ff"/><path d="m20.738281 400.023438c-.753906-3.445313 1.84375-6.714844 5.289063-6.714844h-20.605469c-3.445313 0-6.042969 3.269531-5.292969 6.714844 4.210938 19.25 20.976563 33.636718 41.027344 33.636718h20.605469c-20.050781 0-36.816407-14.386718-41.023438-33.636718zm0 0" fill="#b7e9f9"/><path d="m278.6875 14.023438c-9.347656-18.695313-36.027344-18.695313-45.375 0l-17.421875 34.84375c-8.433594 16.863281 3.832031 36.707031 22.6875 36.707031h34.84375c18.855469 0 31.121094-19.84375 22.6875-36.707031zm0 0" fill="#da1c4b"/><g fill="#bf0443"><path d="m236.71875 48.867188 17.421875-34.84375c2.824219-5.652344 7.238281-9.582032 12.273437-11.816407-11.625-5.160156-26.578124-1.230469-33.101562 11.816407l-17.421875 34.84375c-8.433594 16.863281 3.832031 36.707031 22.6875 36.707031h20.828125c-18.855469 0-31.121094-19.84375-22.6875-36.707031zm0 0"/><path d="m242.832031 64.03125c-4.1875 0-7.726562-3.378906-7.726562-7.730469 0-3.667969 2.621093-6.882812 6.210937-7.570312 4.644532-.957031 9.242188 2.605469 9.242188 7.570312 0 4.238281-3.4375 7.730469-7.726563 7.730469zm0 0"/><path d="m269.824219 64.03125c-4.300781 0-7.726563-3.492188-7.726563-7.730469 0-4.882812 4.492188-8.546875 9.230469-7.570312 3.566406.667969 6.222656 3.925781 6.222656 7.570312 0 4.199219-3.417969 7.730469-7.726562 7.730469zm0 0"/><path d="m255.996094 41.613281c-4.304688 0-7.726563-3.511719-7.726563-7.730469 0-4.984374 4.628907-8.519531 9.242188-7.570312 3.140625.65625 5.429687 3 6.066406 6.066406.929687 4.960938-2.828125 9.234375-7.582031 9.234375zm0 0"/></g><path d="m405.511719 14.023438c-9.347657-18.695313-36.027344-18.695313-45.375 0l-17.421875 34.84375c-8.433594 16.863281 3.832031 36.707031 22.6875 36.707031h34.84375c18.855468 0 31.121094-19.84375 22.6875-36.707031zm0 0" fill="#da1c4b"/><path d="m363.542969 48.867188 17.421875-34.84375c2.824218-5.652344 7.238281-9.582032 12.273437-11.816407-11.621093-5.160156-26.578125-1.230469-33.101562 11.816407l-17.421875 34.84375c-8.433594 16.863281 3.832031 36.707031 22.6875 36.707031h20.828125c-18.855469 0-31.121094-19.84375-22.6875-36.707031zm0 0" fill="#bf0443"/><path d="m369.65625 64.03125c-4.183594 0-7.726562-3.378906-7.726562-7.730469 0-3.667969 2.621093-6.882812 6.210937-7.570312 4.644531-.957031 9.242187 2.605469 9.242187 7.570312 0 4.238281-3.4375 7.730469-7.726562 7.730469zm0 0" fill="#bf0443"/><path d="m396.648438 64.03125c-4.300782 0-7.726563-3.492188-7.726563-7.730469 0-4.882812 4.492187-8.546875 9.230469-7.570312 3.566406.667969 6.222656 3.925781 6.222656 7.570312 0 4.199219-3.417969 7.730469-7.726562 7.730469zm0 0" fill="#bf0443"/><path d="m382.820312 41.613281c-4.304687 0-7.726562-3.511719-7.726562-7.730469 0-4.984374 4.628906-8.519531 9.242188-7.570312 3.140624.65625 5.429687 3 6.066406 6.066406.929687 4.960938-2.824219 9.234375-7.582032 9.234375zm0 0" fill="#bf0443"/></svg>