<svg viewBox="-151 0 511 511.99933" xmlns="http://www.w3.org/2000/svg"><path d="m116.21875 11.636719c-3.597656-2.117188-8.234375-.921875-10.351562 2.675781-.011719.019531-.628907.964844-1.722657 1.90625-3.199219-7.664062-6.421875-12.503906-6.691406-12.898438-2.335937-3.453124-7.019531-4.355468-10.476563-2.027343-3.460937 2.324219-4.378906 7.019531-2.058593 10.484375.105469.160156 10.644531 16.128906 10.644531 35.25 0 4.175781 3.386719 7.558594 7.5625 7.558594s7.5625-3.382813 7.5625-7.558594c0-5.667969-.71875-11.050782-1.816406-15.992188 4.96875-2.414062 8.425781-6.332031 10.027344-9.042968 2.117187-3.601563.917968-8.234376-2.679688-10.355469zm0 0" fill="#d3843d"/><path d="m128.277344 83.632812h-49.703125c-25.160157 9.917969-42.972657 34.421876-42.972657 63.101563 0 8.65625 1.640626 16.925781 4.597657 24.539063 16.667969-15.238282 38.859375-24.539063 63.226562-24.539063 10.742188 0 21.058594 1.8125 30.667969 5.140625l24.617188-44.398438c-7.566407-10.628906-18.117188-18.988281-30.433594-23.84375zm0 0" fill="#87cee9"/><path d="m55.769531 146.734375c0-28.679687 17.8125-53.183594 42.96875-63.101563h-20.164062c-25.160157 9.917969-42.972657 34.421876-42.972657 63.101563 0 8.65625 1.640626 16.925781 4.597657 24.539063 5.085937-4.648438 10.6875-8.738282 16.707031-12.183594-.742188-4.007813-1.136719-8.132813-1.136719-12.355469zm0 0" fill="#32b1cc"/><path d="m147.71875 157.871094c6.863281 3.6875 13.230469 8.1875 18.933594 13.402344 2.957031-7.613282 4.59375-15.882813 4.59375-24.539063 0-5.03125-.558594-9.933594-1.597656-14.652344zm0 0" fill="#87cee9"/><path d="m206.484375 80.765625-19.570313-13.644531c-2.359374-1.644532-5.621093-.886719-7.015624 1.628906l-46.605469 84.054688c4.78125 1.652343 9.394531 3.664062 13.792969 6.027343l60.320312-70.945312c1.855469-2.179688 1.425781-5.484375-.921875-7.121094zm0 0" fill="#d7f7ff"/><path d="m147.859375 157.917969 45.261719-81.632813c.753906-1.359375 2.050781-2.1875 3.457031-2.429687l-9.664063-6.734375c-2.355468-1.644532-5.621093-.890625-7.015624 1.625l-46.601563 84.058594c4.777344 1.652343 9.390625 3.664062 13.789063 6.023437zm0 0" fill="#b7e9f9"/><path d="m103.425781 146.734375c-51.777343 0-93.753906 41.976563-93.753906 93.753906h187.503906c.003907-51.777343-41.972656-93.753906-93.75-93.753906zm0 0" fill="#f98c96"/><path d="m113.574219 147.285156c-3.332031-.359375-6.71875-.550781-10.148438-.550781-51.777343 0-93.753906 41.976563-93.753906 93.753906h20.300781c0-48.347656 36.597656-88.140625 83.601563-93.203125zm0 0" fill="#ea5471"/><path d="m130.164062 73.765625c0 14.769531-11.972656 26.738281-26.738281 26.738281-14.769531 0-26.742187-11.96875-26.742187-26.738281s11.972656-26.738281 26.742187-26.738281c14.765625 0 26.738281 11.96875 26.738281 26.738281zm0 0" fill="#da1c4b"/><path d="m96.851562 73.765625c0-11.199219 6.886719-20.785156 16.65625-24.765625-3.109374-1.269531-6.515624-1.972656-10.082031-1.972656-14.769531 0-26.738281 11.96875-26.738281 26.738281s11.96875 26.738281 26.738281 26.738281c3.566407 0 6.96875-.703125 10.082031-1.972656-9.769531-3.980469-16.65625-13.566406-16.65625-24.765625zm0 0" fill="#bf0443"/><path d="m63.863281 195.636719c-1.796875-3.773438-.195312-8.285157 3.574219-10.082031l11.992188-5.707032c3.769531-1.796875 8.28125-.195312 10.078124 3.574219 1.796876 3.773437.195313 8.285156-3.574218 10.078125l-11.992188 5.710938c-3.769531 1.796874-8.285156.195312-10.078125-3.574219zm0 0" fill="#ea5471"/><path d="m112.910156 215.5625-11.988281-5.707031c-3.773437-1.796875-5.375-6.308594-3.578125-10.082031 1.796875-3.769532 6.308594-5.371094 10.078125-3.574219l11.992187 5.707031c3.769532 1.796875 5.371094 6.308594 3.574219 10.082031-1.792969 3.765625-6.300781 5.371094-10.078125 3.574219zm0 0" fill="#ea5471"/><path d="m70.328125 129.292969c-4.21875 0-7.558594-3.433594-7.558594-7.558594 0-3.699219 2.679688-6.777344 6.078125-7.414063 4.675782-.960937 9.042969 2.675782 9.042969 7.414063 0 4.15625-3.382813 7.558594-7.5625 7.558594zm0 0" fill="#32b1cc"/><path d="m201.582031 240.332031h-194.820312c-3.457031 0-6.261719 2.808594-6.261719 6.265625v26.03125c0 3.460938 2.804688 6.265625 6.261719 6.265625h194.820312c3.457031 0 6.261719-2.804687 6.261719-6.265625v-26.03125c0-3.460937-2.804688-6.265625-6.261719-6.265625zm0 0" fill="#ffd782"/><path d="m20.664062 272.628906v-26.03125c0-3.460937 2.804688-6.265625 6.265626-6.265625h-20.167969c-3.457031 0-6.261719 2.808594-6.261719 6.265625v26.03125c0 3.460938 2.804688 6.265625 6.261719 6.265625h20.167969c-3.460938 0-6.265626-2.804687-6.265626-6.265625zm0 0" fill="#fdbd40"/><path d="m194.355469 278.894531-79.09375 225.242188c-3.683594 10.484375-18.5 10.484375-22.179688 0l-79.09375-225.242188zm0 0" fill="#ffd782"/><path d="m113.433594 504.136719-79.09375-225.242188h-20.351563l79.09375 225.242188c3.429688 9.761719 16.511719 10.429687 21.265625 2.007812-.351562-.621093-.660156-1.285156-.914062-2.007812zm0 0" fill="#fdbd40"/><path d="m180.8125 317.457031 13.542969-38.5625h-180.367188l13.542969 38.5625zm0 0" fill="#fdbd40"/><path d="m13.988281 278.894531 13.542969 38.5625h20.351562l-13.542968-38.5625zm0 0" fill="#f2aa2a"/></svg>