<svg viewBox="0 -32 512.0008 512" xmlns="http://www.w3.org/2000/svg"><path d="m292.25 62.691406h219.75v342.738282h-219.75zm0 0" fill="#32b1cc"/><path d="m465.320312 141.992188c-4.65625-10.339844-14.996093-16.566407-26.316406-15.875-.410156.023437-.8125.054687-1.207031.085937.578125-7.453125.140625-19-9.851563-28.992187-9.996093-9.992188-21.546874-10.433594-28.996093-9.851563.5-6.394531.226562-15.808594-6.171875-24.667969h-100.527344v342.738282h20.570312v-86.300782l146.972657-146.972656c8.003906-8.007812 10.175781-19.847656 5.527343-30.164062zm0 0" fill="#1695b7"/><path d="m500.722656 26.234375c-4.472656 5.058594-7.71875 11.660156-16.195312 11.660156-13.734375 0-13.734375-17.335937-27.472656-17.335937-13.734376 0-13.734376 17.335937-27.46875 17.335937-13.734376 0-13.734376-17.335937-27.46875-17.335937-13.734376 0-13.734376 17.335937-27.46875 17.335937-13.734376 0-13.734376-17.335937-27.46875-17.335937-13.734376 0-13.734376 17.335937-27.464844 17.335937-8.789063 0-11.953125-7.101562-16.691406-12.214843-3.839844-4.140626-10.773438-1.414063-10.773438 4.234374v37.097657h219.75v-36.546875c0-5.941406-7.339844-8.683594-11.277344-4.230469zm0 0" fill="#87cee9"/><path d="m360.101562 48.511719c.542969-6.984375.191407-17.566407-8.078124-27.09375-1.414063-.542969-3.003907-.859375-4.84375-.859375-13.730469 0-13.730469 17.335937-27.464844 17.335937-8.789063 0-11.953125-7.101562-16.691406-12.214843-3.839844-4.140626-10.773438-1.414063-10.773438 4.234374v37.101563h103.167969c-1.488281-2.925781-3.519531-5.851563-6.320313-8.652344-9.992187-9.992187-21.542968-10.433593-28.996094-9.851562zm0 0" fill="#32b1cc"/><path d="m500.722656 441.472656c-4.472656-5.058594-7.71875-11.664062-16.195312-11.664062-13.734375 0-13.734375 17.339844-27.472656 17.339844-13.734376 0-13.734376-17.339844-27.46875-17.339844-13.734376 0-13.734376 17.339844-27.46875 17.339844-13.734376 0-13.734376-17.339844-27.46875-17.339844-13.734376 0-13.734376 17.339844-27.46875 17.339844-13.734376 0-13.734376-17.339844-27.464844-17.339844-8.789063 0-11.953125 7.101562-16.691406 12.214844-3.839844 4.144531-10.773438 1.417968-10.773438-4.230469v-37.101563h219.75v36.550782c0 5.941406-7.339844 8.679687-11.277344 4.230468zm0 0" fill="#87cee9"/><path d="m312.820312 400.691406h-20.570312v37.101563c0 5.648437 6.933594 8.375 10.773438 4.230469 3.234374-3.488282 5.738281-7.902344 9.796874-10.355469zm0 0" fill="#32b1cc"/><path d="m487.53125 230.84375c0 47.167969-38.238281 85.40625-85.40625 85.40625s-85.40625-38.238281-85.40625-85.40625 38.238281-85.40625 85.40625-85.40625 85.40625 38.238281 85.40625 85.40625zm0 0" fill="#b7e9f9"/><path d="m459.792969 172.15625c.742187-.742188 1.417969-1.53125 2.0625-2.335938-13.097657-12.820312-30.296875-21.441406-49.449219-23.742187 0 0 .003906-.003906.003906-.003906-3.253906-.371094-6.738281-.636719-10.285156-.636719-75.347656 0-114.089844 91.164062-60.890625 145.273438 15.496094 15.757812 37.046875 25.539062 60.890625 25.539062 3.484375 0 6.910156-.234375 10.285156-.640625-23.0625-2.769531-43.292968-14.730469-56.933594-32.109375-1.773437-2.261719-1.523437-5.503906.507813-7.535156zm0 0" fill="#87cee9"/><path d="m267.695312 24.386719 155.386719 155.386719-242.71875 242.71875-155.382812-155.386719zm0 0" fill="#8ec13f"/><path d="m267.695312 24.386719 14.648438 14.648437-242.714844 242.71875-14.648437-14.648437zm0 0" fill="#7cad27"/><path d="m440.265625 146.648438c-6.738281.410156-13.703125 2.789062-19.699219-3.207032-9.714844-9.714844 2.546875-21.972656-7.167968-31.6875-9.710938-9.710937-21.972657 2.550782-31.683594-7.164062-9.710938-9.710938 2.550781-21.96875-7.164063-31.683594-9.710937-9.710938-21.972656 2.550781-31.683593-7.160156-9.710938-9.714844 2.550781-21.972656-7.160157-31.683594-9.710937-9.710938-21.972656 2.546875-31.683593-7.164062-6.214844-6.214844-3.429688-13.472657-3.164063-20.4375.214844-5.648438-6.617187-8.621094-10.609375-4.625l-26.234375 26.234374 155.386719 155.386719 25.84375-25.847656c4.203125-4.199219.949218-11.328125-4.980469-10.960937zm0 0" fill="#c8d952"/><path d="m300.859375 6.460938c.214844-5.644532-6.617187-8.617188-10.609375-4.625l-26.234375 26.234374 14.648437 14.648438 21.839844-21.839844c-1.210937-4.652344.171875-9.605468.355469-14.417968zm0 0" fill="#8ec13f"/><path d="m146.648438 440.265625c.410156-6.738281 2.789062-13.703125-3.207032-19.699219-9.714844-9.714844-21.972656 2.546875-31.6875-7.167968-9.710937-9.710938 2.550782-21.96875-7.164062-31.679688-9.710938-9.714844-21.972656 2.546875-31.683594-7.164062-9.710938-9.714844 2.546875-21.972657-7.164062-31.683594-9.710938-9.710938-21.96875 2.546875-31.679688-7.164063-9.710938-9.710937 2.546875-21.96875-7.164062-31.679687-6.214844-6.214844-13.472657-3.429688-20.441407-3.167969-5.644531.214844-8.617187-6.613281-4.621093-10.609375l26.234374-26.234375 155.386719 155.386719-25.847656 25.847656c-4.199219 4.199219-11.324219.945312-10.960937-4.984375zm0 0" fill="#c8d952"/><path d="m28.070312 264.015625-26.234374 26.234375c-3.992188 3.992188-1.019532 10.824219 4.625 10.609375 4.8125-.183594 9.765624-1.5625 14.414062-.355469l21.84375-21.839844zm0 0" fill="#8ec13f"/><path d="m286.25 161.21875c-33.351562-33.355469-87.425781-33.355469-120.78125 0-33.351562 33.351562-33.351562 87.425781 0 120.777344 33.355469 33.355468 87.429688 33.355468 120.78125 0 33.355469-33.351563 33.355469-87.425782 0-120.777344zm0 0" fill="#e1ea6e"/><path d="m186.042969 282c-33.351563-33.355469-33.351563-87.429688 0-120.785156 14.054687-14.054688 31.792969-22.160156 50.105469-24.371094-25.144532-3.03125-51.378907 5.074219-70.675782 24.371094-33.351562 33.355468-33.351562 87.429687 0 120.785156 19.296875 19.296875 45.53125 27.402344 70.675782 24.371094-18.3125-2.210938-36.050782-10.316406-50.105469-24.371094zm0 0" fill="#c8d952"/></svg>