<svg viewBox="0 -67 512 512" xmlns="http://www.w3.org/2000/svg"><path d="m322.84375 0c-104.46875 0-189.15625 84.6875-189.15625 189.15625s84.6875 189.15625 189.15625 189.15625 189.15625-84.6875 189.15625-189.15625-84.6875-189.15625-189.15625-189.15625zm0 0" fill="#394d5c"/><path d="m286.644531 3.476562c-87.148437 16.890626-152.957031 93.59375-152.957031 185.679688s65.808594 168.789062 152.957031 185.679688c66.695313-35.15625 112.269531-105.191407 112.269531-185.679688s-45.574218-150.523438-112.269531-185.679688zm0 0" fill="#2b3f4c"/><path d="m470.390625 189.15625c0 81.488281-66.058594 147.546875-147.546875 147.546875s-147.546875-66.058594-147.546875-147.546875 66.058594-147.546875 147.546875-147.546875 147.546875 66.058594 147.546875 147.546875zm0 0" fill="#d7f7ff"/><path d="m175.296875 189.15625c0 81.488281 66.058594 147.546875 147.546875 147.546875 5.445312 0 10.816406-.304687 16.109375-.878906 37.070313-37.847657 59.964844-89.628907 59.964844-146.667969s-22.894531-108.820312-59.964844-146.667969c-5.292969-.574219-10.664063-.878906-16.109375-.878906-81.488281 0-147.546875 66.058594-147.546875 147.546875zm0 0" fill="#b7e9f9"/><path d="m189.15625 0c-104.46875 0-189.15625 84.6875-189.15625 189.15625s84.6875 189.15625 189.15625 189.15625 189.15625-84.6875 189.15625-189.15625-84.691406-189.15625-189.15625-189.15625zm0 0" fill="#394d5c"/><path d="m20.605469 189.15625c0-101.011719 79.175781-183.523438 178.851562-188.875-3.410156-.179688-6.84375-.28125-10.300781-.28125-104.46875 0-189.15625 84.6875-189.15625 189.15625s84.6875 189.15625 189.15625 189.15625c3.457031 0 6.890625-.101562 10.300781-.285156-99.675781-5.347656-178.851562-87.859375-178.851562-188.871094zm0 0" fill="#2b3f4c"/><path d="m336.703125 189.15625c0 81.488281-66.058594 147.546875-147.546875 147.546875s-147.546875-66.058594-147.546875-147.546875 66.058594-147.546875 147.546875-147.546875 147.546875 66.058594 147.546875 147.546875zm0 0" fill="#2b3f4c"/><path d="m62.214844 189.15625c0-78.023438 60.5625-141.894531 137.242187-147.183594-3.402343-.234375-6.835937-.363281-10.300781-.363281-81.488281 0-147.546875 66.058594-147.546875 147.546875s66.058594 147.546875 147.546875 147.546875c3.464844 0 6.898438-.128906 10.300781-.363281-76.679687-5.289063-137.242187-69.160156-137.242187-147.183594zm0 0" fill="#20343f"/><path d="m281.707031 189.15625c0-27.230469-41.4375-49.304688-92.550781-49.304688s-92.550781 22.074219-92.550781 49.304688 41.4375 49.304688 92.550781 49.304688 92.550781-22.074219 92.550781-49.304688zm0 0" fill="#4d6777"/><g fill="#394d5c"><path d="m117.210938 189.15625c0-25.375 35.980468-46.269531 82.246093-49-3.382812-.199219-6.816406-.304688-10.300781-.304688-51.113281 0-92.550781 22.074219-92.550781 49.304688s41.4375 49.304688 92.550781 49.304688c3.484375 0 6.917969-.105469 10.300781-.308594-46.261719-2.726563-82.246093-23.621094-82.246093-48.996094zm0 0"/><path d="m214.898438 196.882812h-51.488282c-4.265625 0-7.726562-3.457031-7.726562-7.726562 0-4.265625 3.457031-7.726562 7.726562-7.726562h51.488282c4.269531 0 7.730468 3.457031 7.730468 7.726562 0 4.265625-3.460937 7.726562-7.730468 7.726562zm0 0"/></g></svg>