<svg viewBox="-70 0 512 512.00054" xmlns="http://www.w3.org/2000/svg"><path d="m114.117188 367.375h-42.492188v137.035156c0 4.171875 3.382812 7.554688 7.550781 7.554688h27.386719c4.171875 0 7.554688-3.382813 7.554688-7.554688zm0 0" fill="#d3843d"/><path d="m92.226562 504.410156v-137.035156h-20.601562v137.035156c0 4.171875 3.382812 7.554688 7.550781 7.554688h20.605469c-4.171875 0-7.554688-3.382813-7.554688-7.554688zm0 0" fill="#c65c38"/><path d="m97.277344.101562c-53.164063-2.480468-97.277344 40.867188-97.277344 94.089844v270.207032c0 4.488281 3.636719 8.125 8.128906 8.125h168.785156c4.875 0 8.828126-3.949219 8.828126-8.824219 0-5.515625 0-257.339844 0-270.828125 0-49.816406-39.222657-90.46875-88.464844-92.769532zm0 0" fill="#b7e9f9"/><path d="m20.605469 364.398438c0-11.046876 0-255.59375 0-270.207032 0-48.222656 36.210937-88.339844 82.558593-93.605468-55.835937-6.15625-103.164062 38.511718-103.164062 93.605468v270.207032c0 4.488281 3.640625 8.125 8.128906 8.125h20.601563c-4.488281.003906-8.125-3.636719-8.125-8.125zm0 0" fill="#87cee9"/><path d="m185.742188 223.332031c0-62.667969 0-123.988281 0-130.460937 0-49.816406-39.222657-90.46875-88.464844-92.769532-53.164063-2.480468-97.277344 40.867188-97.277344 94.089844v217.585938zm0 0" fill="#87cee9"/><path d="m0 311.777344 20.601562-9.808594c0-76.726562 0-197.636719 0-207.777344 0-48.222656 36.214844-88.339844 82.5625-93.605468-55.742187-6.136719-103.164062 38.410156-103.164062 93.605468zm0 0" fill="#32b1cc"/><path d="m185.742188 100.984375c0-4.179687 0-6.984375 0-8.113281 0-49.816406-39.222657-90.46875-88.464844-92.769532-53.164063-2.480468-97.277344 40.867188-97.277344 94.089844v95.242188zm0 0" fill="#32b1cc"/><path d="m20.605469 94.191406c0-48.222656 36.210937-88.339844 82.558593-93.605468-55.117187-6.074219-103.148437 37.640624-103.164062 93.589843v.015625 95.242188l20.601562-9.808594c.003907-44.09375.003907-80.097656.003907-85.433594zm0 0" fill="#1695b7"/><path d="m10.832031 50.242188h40.390625c2.761719 0 5.003906 2.242187 5.003906 5.003906v26.445312c0 9.859375 7.578126 18.34375 17.425782 18.808594 10.519531.492188 19.199218-7.886719 19.199218-18.292969v-28.308593c0 10.40625 8.679688 18.785156 19.195313 18.289062 9.851563-.464844 17.429687-8.945312 17.429687-18.808594 0-1.730468 1.402344-3.136718 3.136719-3.136718h42.777344c-34.152344-65.976563-129.003906-67.792969-164.558594 0zm0 0" fill="#9c2d20"/><path d="m72.941406 2.21875c-27.46875 6.160156-49.789062 24.527344-62.109375 48.023438h20.597657c14.085937-26.859376 40.617187-46.121094 71.734374-49.65625-10.152343-1.117188-20.167968-.6210942-30.222656 1.632812zm0 0" fill="#8c271f"/><path d="m299.824219 367.410156h-42.496094v137.035156c0 4.171876 3.382813 7.554688 7.554687 7.554688h27.386719c4.171875 0 7.550781-3.382812 7.550781-7.554688v-137.035156zm0 0" fill="#d3843d"/><path d="m277.933594 504.445312v-137.035156h-20.605469v137.035156c0 4.171876 3.382813 7.554688 7.554687 7.554688h20.601563c-4.171875 0-7.550781-3.382812-7.550781-7.554688zm0 0" fill="#c65c38"/><path d="m282.980469.136719c-53.164063-2.480469-97.273438 40.867187-97.273438 94.089843v270.207032c0 4.488281 3.636719 8.128906 8.125 8.128906h168.789063c4.875 0 8.824218-3.953125 8.824218-8.828125 0-5.511719 0-257.335937 0-270.828125 0-49.8125-39.21875-90.46875-88.464843-92.769531zm0 0" fill="#fff69a"/><path d="m206.308594 364.433594c0-11.046875 0-255.59375 0-270.207032 0-48.222656 36.214844-88.339843 82.5625-93.601562-1.949219-.214844-3.90625-.394531-5.890625-.484375-53.164063-2.484375-97.273438 40.863281-97.273438 94.085937v270.207032c0 4.488281 3.636719 8.128906 8.125 8.128906h20.601563c-4.484375 0-8.125-3.640625-8.125-8.128906zm0 0" fill="#ffd782"/><path d="m371.445312 223.367188c0-62.664063 0-123.988282 0-130.460938 0-49.8125-39.21875-90.46875-88.464843-92.769531-53.164063-2.480469-97.273438 40.867187-97.273438 94.089843v217.589844zm0 0" fill="#ffd782"/><path d="m185.707031 311.816406 20.601563-9.8125c0-76.722656 0-197.632812 0-207.777344 0-48.222656 36.214844-88.339843 82.5625-93.601562-1.660156-.183594-4.207032-.40625-5.890625-.484375-53.214844-2.480469-97.273438 40.933594-97.273438 94.085937zm0 0" fill="#fdbd40"/><path d="m371.445312 101.023438c0-4.183594 0-6.988282 0-8.117188 0-49.816406-39.21875-90.46875-88.464843-92.769531-53.164063-2.480469-97.273438 40.867187-97.273438 94.089843v95.242188zm0 0" fill="#fdbd40"/><path d="m206.308594 94.226562c0-48.222656 36.214844-88.339843 82.5625-93.601562-1.652344-.183594-4.21875-.40625-5.890625-.484375-53.34375-2.488281-97.261719 41.085937-97.273438 94.070313v.015624 95.246094l20.601563-9.8125c0-44.09375 0-80.097656 0-85.433594zm0 0" fill="#f2aa2a"/><path d="m282.980469.136719c-37.335938-1.742188-70.179688 19.132812-86.445313 50.144531h40.394532c2.761718 0 5 2.238281 5 5v26.445312c0 9.859376 7.578124 18.347657 17.429687 18.808594 10.515625.492188 19.195313-7.886718 19.195313-18.292968v-28.308594c0 10.40625 8.679687 18.785156 19.195312 18.289062 9.851562-.460937 17.429688-8.945312 17.429688-18.804687 0-1.734375 1.40625-3.136719 3.136718-3.136719h42.777344c-14.8125-28.617188-44.058594-48.550781-78.113281-50.144531zm0 0" fill="#9c2d20"/><path d="m196.535156 50.28125h20.597656c14.085938-26.863281 40.617188-46.121094 71.738282-49.660156-2.183594-.238282-4.769532-.429688-5.890625-.484375-36.269531-1.695313-69.707031 18.230469-86.445313 50.144531zm0 0" fill="#8c271f"/></svg>