<svg viewBox="0 -76 512.00045 512" xmlns="http://www.w3.org/2000/svg"><path d="m512 179.757812c0 99.277344-80.480469 179.757813-179.757812 179.757813-99.277344 0-179.757813-80.480469-179.757813-179.757813 0-99.277343 80.480469-179.757812 179.757813-179.757812 99.277343 0 179.757812 80.480469 179.757812 179.757812zm0 0" fill="#c65c38"/><path d="m281.425781 7.296875c-74.53125 21.929687-128.941406 90.835937-128.941406 172.460937 0 81.753907 54.582031 150.753907 129.292969 172.566407 14.398437-8.539063 27.816406-18.941407 39.945312-31.105469 37.742188-37.855469 58.507813-88.140625 58.472656-141.601562-.050781-72.988282-39.804687-137.328126-98.769531-172.320313zm0 0" fill="#9c2d20"/><path d="m181.976562.0117188c-23.753906-.2734378-46.460937 4.0703122-67.285156 12.1718752-1.738281.679687-2.75 2.550781-2.308594 4.363281 3.558594 14.65625-2.910156 29.957031-16.082031 37.585937-1.082031.628907-1.640625 1.890626-1.332031 3.101563 8.660156 34.097656-21.042969 65.796875-55.699219 59.203125-1.027343-.195312-2.046875.257812-2.605469 1.136719-6.058593 9.492187-16.679687 15.792969-28.773437 15.792969-.007813 0-.011719 0-.019531 0-1.003906-.003907-1.902344.644531-2.152344 1.617187-29.375 114.539063 58.257812 224.816406 174.574219 224.53125 99.113281-.242187 179.375-80.699219 179.308593-179.882813-.066406-97.980468-79.648437-178.480468-177.625-179.6210932zm0 0" fill="#c65c38"/><path d="m28.089844 126.738281c-5.65625 4.167969-12.640625 6.628907-20.199219 6.628907-.007813 0-.011719 0-.019531 0-1.003906-.003907-1.902344.644531-2.152344 1.617187-29.375 114.539063 58.257812 224.816406 174.574219 224.53125 3.199219-.007813 6.378906-.105469 9.535156-.277344-116.214844-6.363281-196.46875-120.816406-161.738281-232.5zm0 0" fill="#9c2d20"/><path d="m274.164062 84.628906c0 14.308594-11.601562 25.910156-25.910156 25.910156-14.3125 0-25.914062-11.601562-25.914062-25.910156 0-14.3125 11.601562-25.914062 25.914062-25.914062 14.308594 0 25.910156 11.601562 25.910156 25.914062zm0 0" fill="#9c2d20"/><path d="m222.339844 207.28125c0 18.125-14.695313 32.820312-32.820313 32.820312-18.128906 0-32.824219-14.695312-32.824219-32.820312 0-18.128906 14.695313-32.824219 32.824219-32.824219 18.125 0 32.820313 14.695313 32.820313 32.824219zm0 0" fill="#9c2d20"/><path d="m242.933594 84.628906c0-10.652344 6.429687-19.796875 15.617187-23.78125-3.160156-1.371094-6.636719-2.132812-10.296875-2.132812-14.3125 0-25.914062 11.601562-25.914062 25.914062 0 14.308594 11.601562 25.910156 25.914062 25.910156 3.660156 0 7.136719-.761718 10.296875-2.132812-9.1875-3.980469-15.617187-13.128906-15.617187-23.777344zm0 0" fill="#8c271f"/><path d="m177.289062 207.28125c0-14.53125 9.445313-26.847656 22.527344-31.167969-3.242187-1.066406-6.699218-1.65625-10.296875-1.65625-18.128906 0-32.824219 14.695313-32.824219 32.824219 0 18.125 14.695313 32.820312 32.824219 32.820312 3.597657 0 7.054688-.585937 10.296875-1.65625-13.082031-4.320312-22.527344-16.636718-22.527344-31.164062zm0 0" fill="#8c271f"/><path d="m.769531 195.382812c3.09375 35.914063 16.734375 68.8125 37.828125 95.570313 19.078125-7.507813 32.585938-26.082031 32.585938-47.828125 0-36.347656-36.738282-61.171875-70.414063-47.742188zm0 0" fill="#9c2d20"/><path d="m52.488281 282.753906c-18.28125-26.101562-29.804687-57.28125-32.027343-91.003906-6.898438-.09375-13.488282 1.160156-19.691407 3.632812 2.925781 33.621094 15.425781 66.921876 38.011719 95.492188 5.003906-1.992188 9.617188-4.75 13.707031-8.121094zm0 0" fill="#8c271f"/><path d="m287.121094 208.144531c0 29.351563 23.246094 53.265625 52.332031 54.363281 12.867187-24.769531 20.148437-52.910156 20.148437-82.75 0-7.953124-.523437-15.78125-1.523437-23.460937-5.21875-1.664063-10.773437-2.570313-16.542969-2.570313-30.050781 0-54.414062 24.363282-54.414062 54.417969zm0 0" fill="#9c2d20"/><path d="m307.714844 208.144531c0-26.535156 18.996094-48.621093 44.128906-53.433593-3.335938-.640626-6.78125-.984376-10.304688-.984376-30.054687 0-54.417968 24.363282-54.417968 54.417969 0 29.351563 23.246094 53.265625 52.332031 54.363281.691406-1.332031 1.363281-2.679687 2.019531-4.03125-19.804687-8.132812-33.757812-27.59375-33.757812-50.332031zm0 0" fill="#8c271f"/><path d="m427.980469 123.972656c20.757812 20.757813 54.105469 21.226563 75.445312 1.4375-8.414062-26.613281-23.164062-51.65625-44.265625-72.757812-5.621094-5.625-11.53125-10.792969-17.667968-15.515625-32.726563 16.90625-39.535157 60.8125-13.511719 86.835937zm0 0" fill="#9c2d20"/><path d="m451.003906 44.996094c-3.101562-2.742188-6.269531-5.367188-9.511718-7.859375-32.726563 16.90625-39.535157 60.8125-13.511719 86.835937 13.289062 13.289063 31.738281 18.25 48.890625 14.914063-43.703125-8.511719-59.4375-63.746094-25.867188-93.890625zm0 0" fill="#8c271f"/><g fill="#9c2d20"><path d="m90.988281 168.90625c-3.015625-3.015625-3.015625-7.90625 0-10.921875l9.71875-9.714844c3.015625-3.015625 7.90625-3.015625 10.921875 0s3.015625 7.90625 0 10.917969l-9.71875 9.71875c-3.015625 3.015625-7.90625 3.015625-10.921875 0zm0 0"/><path d="m124.148438 297.035156-9.003907-7.046875c-3.355469-2.628906-3.949219-7.480469-1.320312-10.839843 2.628906-3.359376 7.480469-3.953126 10.839843-1.324219l9.003907 7.046875c3.359375 2.628906 3.949219 7.480468 1.320312 10.839844-2.625 3.355468-7.480469 3.953124-10.839843 1.324218zm0 0"/><path d="m196.367188 290.464844c-1.835938-3.851563-.199219-8.457032 3.652343-10.292969l13.601563-6.476563c3.851562-1.835937 8.460937-.199218 10.292968 3.652344 1.835938 3.851563.199219 8.457032-3.652343 10.292969l-13.601563 6.476563c-3.855468 1.835937-8.460937.195312-10.292968-3.652344zm0 0"/><path d="m150.28125 63.015625-8.421875-12.574219c-2.375-3.542968-1.425781-8.339844 2.117187-10.710937 3.542969-2.375 8.339844-1.425781 10.714844 2.117187l8.421875 12.570313c2.375 3.542969 1.425781 8.339843-2.117187 10.714843-3.542969 2.371094-8.339844 1.425782-10.714844-2.117187zm0 0"/><path d="m355.652344 296.71875c-.519532-4.234375 2.496094-8.082031 6.730468-8.601562l11.34375-1.382813c4.234376-.519531 8.085938 2.496094 8.601563 6.730469s-2.496094 8.085937-6.730469 8.601562l-11.347656 1.382813c-4.234375.519531-8.082031-2.496094-8.597656-6.730469zm0 0"/><path d="m422.019531 246.359375c-4.019531-1.425781-6.125-5.84375-4.695312-9.863281l5.039062-14.199219c1.425781-4.019531 5.839844-6.117187 9.859375-4.695313 4.019532 1.425782 6.121094 5.839844 4.695313 9.863282l-5.039063 14.199218c-1.421875 4.011719-5.832031 6.121094-9.859375 4.695313zm0 0"/></g></svg>