<svg viewBox="-61 0 511 511.99992" xmlns="http://www.w3.org/2000/svg"><path d="m144.160156 512h-96.039062c-19.558594 0-32.59375-20.011719-24.542969-37.679688l26.492187-58.109374h92.140626l26.492187 58.109374c8.054687 17.667969-4.984375 37.679688-24.542969 37.679688zm0 0" fill="#ea5471"/><path d="m97.824219 81.324219c-14.074219-13.5625-9.429688-37.101563 8.742187-44.324219l30.714844-12.203125h-89.160156c-19.558594 0-32.59375 20.15625-24.542969 37.953125l26.492187 58.535156h89.230469zm0 0" fill="#ea5471"/><path d="m44.1875 474.320312 26.488281-58.109374c-6.964843 0-13.917969 0-20.605469 0l-26.492187 58.109374c-8.050781 17.667969 4.984375 37.679688 24.542969 37.679688h20.605468c-19.558593 0-32.59375-20.011719-24.539062-37.679688zm0 0" fill="#da1c4b"/><path d="m68.726562 24.796875h-20.605468c-19.558594 0-32.59375 20.160156-24.542969 37.953125l26.492187 58.535156h20.605469l-26.488281-58.535156c-8.054688-17.792969 4.980469-37.953125 24.539062-37.953125zm0 0" fill="#da1c4b"/><path d="m173.699219 329.511719-39.660157-98.050781-29.175781-72.136719c-3.742187-9.246094.886719-19.816407 10.28125-23.5l28.976563-11.34375-4.820313-4.578125h-120.414062c-10.113281 0-18.386719 8.140625-18.386719 18.089844v260.8125c0 9.949218 8.273438 18.089843 18.386719 18.089843h159.339843c10.113282 0 18.386719-8.140625 18.386719-18.089843v-12.648438zm0 0" fill="#f98c96"/><path d="m21.105469 398.804688v-260.8125c0-9.949219 8.273437-18.089844 18.386719-18.089844h-20.605469c-10.113281 0-18.386719 8.140625-18.386719 18.089844v260.8125c0 9.949218 8.273438 18.089843 18.386719 18.089843h20.605469c-10.113282 0-18.386719-8.140625-18.386719-18.089843zm0 0" fill="#ea5471"/><path d="m127.636719 215.632812h-127.136719v105.53125h169.824219c-5.882813-14.546874-36.792969-90.960937-42.6875-105.53125zm0 0" fill="#fff69a"/><path d="m.5 215.632812h20.605469v105.53125h-20.605469zm0 0" fill="#ffd782"/><path d="m148.980469 268.398438h-148.480469v52.765624h169.824219zm0 0" fill="#ffd782"/><path d="m.5 268.398438h20.605469v52.765624h-20.605469zm0 0" fill="#fdbd40"/><path d="m192.671875 1.878906-87.800781 34.945313c-17.882813 7.117187-22.332032 30.628906-8.375 44.269531l45.910156 44.859375c33.902344-13.492187 75.390625-30.007813 84.242188-33.527344l2.527343-64.140625c.765625-19.496094-18.621093-33.523437-36.503906-26.40625zm0 0" fill="#32b1cc"/><path d="m117.089844 81.09375c-13.957032-13.640625-9.507813-37.152344 8.375-44.269531l87.179687-34.699219c-6.070312-2.589844-13.128906-2.96875-19.972656-.246094l-87.804687 34.945313c-17.878907 7.117187-22.328126 30.628906-8.371094 44.269531l45.910156 44.855469c4.765625-1.894531 9.683594-3.851563 14.632812-5.824219zm0 0" fill="#1695b7"/><path d="m372.835938 454.546875-87.804688 34.945313c-17.878906 7.117187-37.320312-7.039063-36.597656-26.652344l2.378906-64.515625c33.898438-13.492188 75.386719-30.003907 84.238281-33.527344l46.058594 45.238281c14.003906 13.753906 9.609375 37.394532-8.273437 44.511719zm0 0" fill="#32b1cc"/><path d="m269.039062 462.839844 1.851563-50.136719c.320313-8.738281 5.769531-16.464844 13.894531-19.699219 20.601563-8.199218 42.023438-16.726562 56.207032-22.371094l-5.941407-5.835937c-8.851562 3.523437-50.335937 20.035156-84.238281 33.527344l-2.378906 64.515625c-.722656 19.613281 18.71875 33.769531 36.597656 26.652344l.675781-.269532c-9.839843-4.210937-17.113281-14.25-16.667969-26.382812zm0 0" fill="#1695b7"/><path d="m258.984375 77.847656-145.675781 57.976563c-9.242188 3.679687-13.796875 14.253906-10.117188 23.5l96.445313 242.328125c3.679687 9.242187 14.253906 13.796875 23.5 10.117187l145.675781-57.980469c9.246094-3.679687 13.796875-14.253906 10.117188-23.496093l-96.445313-242.328125c-3.679687-9.246094-14.253906-13.796875-23.5-10.117188zm0 0" fill="#87cee9"/><path d="m220.925781 394.4375-97.082031-243.929688c-3.085938-7.75-.445312-16.398437 5.859375-21.207031l-16.394531 6.523438c-9.242188 3.679687-13.796875 14.253906-10.117188 23.5l96.445313 242.328125c3.679687 9.242187 14.253906 13.796875 23.5 10.117187l14.695312-5.847656c-7.207031-.015625-14.070312-4.367187-16.90625-11.484375zm0 0" fill="#32b1cc"/><path d="m131.902344 231.457031 179.289062-71.359375 39.023438 98.046875-179.289063 71.363281zm0 0" fill="#d7f7ff"/><path d="m152.757812 223.160156-20.855468 8.300782c4.355468 10.941406 34.753906 87.320312 39.023437 98.050781l20.855469-8.300781zm0 0" fill="#b7e9f9"/><path d="m151.414062 280.480469 179.289063-71.359375 19.511719 49.023437-179.289063 71.363281zm0 0" fill="#b7e9f9"/><path d="m170.925781 329.511719 20.019531-7.964844.835938-.335937-19.511719-49.023438-20.855469 8.300781zm0 0" fill="#87cee9"/></svg>