<svg viewBox="-38 1 511 511.99841" xmlns="http://www.w3.org/2000/svg"><path d="m297.710938 259.027344c-5.238282 0-10.394532-.339844-15.472657-.945313v238.242188c0 8.65625 6.929688 15.671875 15.472657 15.671875 8.542968 0 15.472656-7.015625 15.472656-15.671875v-238.242188c-5.078125.605469-10.238282.945313-15.472656.945313zm0 0" fill="#b7e9f9"/><path d="m302.847656 496.324219v-237.417969c-1.707031.070312-3.414062.121094-5.136718.121094-5.238282 0-10.394532-.339844-15.472657-.945313v238.242188c0 8.65625 6.929688 15.675781 15.472657 15.675781 3.960937 0 7.566406-1.523438 10.304687-4.007812-3.164063-2.871094-5.167969-7.027344-5.167969-11.667969zm0 0" fill="#87cee9"/><path d="m390.414062 38.414062c-51.21875-51.21875-134.257812-51.21875-185.472656 0-51.21875 51.214844-51.21875 134.253907 0 185.472657 51.214844 51.214843 134.253906 51.214843 185.472656 0 51.214844-51.21875 51.214844-134.257813 0-185.472657zm0 0" fill="#ffd782"/><path d="m209.3125 72.867188c-3.695312-2.210938-4.859375-7.042969-2.589844-10.703126 21.550782-34.808593 58.648438-58.417968 101.261719-61.757812-49.273437-3.859375-95.785156 20.054688-121.566406 61.253906-7.617188 10.792969-19.316407 37.507813-19.859375 67.058594-1.144532 63.261719 42.824218 118.316406 104.871094 130.921875.332031.066406.664062.148437.996093.214844 0-.003907.003907-.007813.003907-.011719 11.71875 2.285156 23.6875 2.972656 35.554687 2.042969-9.402344-.734375-18.746094-2.484375-27.84375-5.242188-3.144531-.953125-4.894531-4.273437-3.894531-7.40625 21.3125-66.695312-5.910156-139.875-66.933594-176.371093zm0 0" fill="#fdbd40"/><path d="m426.0625 106.226562h-256.707031c-5.695313 0-10.308594 4.617188-10.308594 10.3125v29.15625c0 5.695313 4.613281 10.308594 10.308594 10.308594h256.707031c5.695312 0 10.3125-4.613281 10.3125-10.308594v-29.15625c0-5.695312-4.617188-10.3125-10.3125-10.3125zm0 0" fill="#fdbd40"/><path d="m275.878906 156.007812c-6.03125-18.382812-15.480468-35.226562-27.601562-49.777343-85.261719 0-78.542969-.011719-79.355469.019531-2.800781 14.578125-3.320313 31.476562-.03125 49.734375.816406.035156-7.417969.023437 106.988281.023437zm0 0" fill="#f2aa2a"/><path d="m222.09375 293.59375c-3.703125 3.703125-7.589844 7.109375-11.609375 10.269531l168.464844 168.464844c6.121093 6.121094 15.980469 6.183594 22.023437.140625 6.042969-6.039062 5.976563-15.902344-.144531-22.023438l-168.460937-168.460937c-3.164063 4.019531-6.566407 7.90625-10.273438 11.609375zm0 0" fill="#d7f7ff"/><path d="m238.652344 307.972656c-2.15625-2.15625-2.058594-5.710937.253906-7.695312 2.09375-1.792969 4.140625-3.664063 6.140625-5.613282l-12.679687-12.679687c-3.164063 4.019531-6.570313 7.90625-10.273438 11.609375s-7.589844 7.109375-11.609375 10.269531l168.464844 168.464844c6.121093 6.121094 15.980469 6.183594 22.023437.140625.367188-.367188.710938-.75 1.03125-1.144531zm0 0" fill="#b7e9f9"/><path d="m262.800781 203.1875c0 72.433594-58.71875 131.152344-131.152343 131.152344-72.429688 0-131.148438-58.71875-131.148438-131.152344 0-72.429688 58.71875-131.148438 131.148438-131.148438 72.433593 0 131.152343 58.71875 131.152343 131.148438zm0 0" fill="#f98c96"/><path d="m21.25 203.1875c0-68.9375 53.191406-125.449219 120.773438-130.738281-3.421876-.269531-6.882813-.410157-10.375-.410157-72.429688 0-131.148438 58.71875-131.148438 131.148438 0 72.433594 58.71875 131.152344 131.148438 131.152344 3.492187 0 6.953124-.140625 10.375-.410156-67.582032-5.289063-120.773438-61.800782-120.773438-130.742188zm0 0" fill="#ea5471"/><path d="m204.808594 94.789062-181.519532 181.519532c-4.027343 4.027344-4.027343 10.554687 0 14.582031l20.617188 20.617187c4.027344 4.027344 10.554688 4.027344 14.582031 0l181.519531-181.519531c4.027344-4.027343 4.027344-10.558593 0-14.582031l-20.617187-20.617188c-4.023437-4.027343-10.554687-4.027343-14.582031 0zm0 0" fill="#ea5471"/><path d="m35.980469 263.621094-12.691407 12.6875c-4.027343 4.027344-4.027343 10.554687 0 14.582031l20.617188 20.613281c4.027344 4.027344 10.554688 4.027344 14.582031 0l8.65625-8.65625c-12.738281-10.90625-23.359375-24.21875-31.164062-39.226562zm0 0" fill="#da1c4b"/></svg>