<svg viewBox="-124 0 512 512" xmlns="http://www.w3.org/2000/svg"><path d="m132.441406 262.636719c-3.851562 0-7.660156-.472657-11.425781-1.34375v239.285156c0 6.28125 5.140625 11.421875 11.425781 11.421875 6.28125 0 11.421875-5.140625 11.421875-11.421875 0-3.789063 0-236.035156 0-239.285156-3.765625.871093-7.574219 1.34375-11.421875 1.34375zm0 0" fill="#d7f7ff"/><path d="m137.144531 500.75c0-10.21875 0-219.894531 0-238.367188-1.5625.152344-3.128906.253907-4.703125.253907-3.851562 0-7.660156-.472657-11.425781-1.34375v239.285156c0 6.28125 5.140625 11.421875 11.425781 11.421875 3.097656 0 5.914063-1.253906 7.976563-3.273438-2.019531-2.0625-3.273438-4.878906-3.273438-7.976562zm0 0" fill="#b7e9f9"/><path d="m264.878906 132.441406c0 73.144532-59.292968 132.4375-132.4375 132.4375-73.144531 0-132.441406-59.292968-132.441406-132.4375 0-73.144531 59.296875-132.441406 132.441406-132.441406 73.144532 0 132.4375 59.296875 132.4375 132.441406zm0 0" fill="#f98c96"/><path d="m20.605469 132.441406c0-69.679687 53.808593-126.789062 122.136719-132.046875-3.398438-.257812-6.835938-.394531-10.300782-.394531-73.144531 0-132.441406 59.296875-132.441406 132.441406 0 73.144532 59.296875 132.4375 132.441406 132.4375 3.464844 0 6.902344-.132812 10.300782-.394531-68.328126-5.257813-122.136719-62.367187-122.136719-132.042969zm0 0" fill="#ea5471"/><path d="m229.140625 132.441406c0 53.40625-43.292969 96.699219-96.699219 96.699219-53.410156 0-96.703125-43.292969-96.703125-96.699219 0-53.410156 43.292969-96.703125 96.703125-96.703125 53.40625 0 96.699219 43.292969 96.699219 96.703125zm0 0" fill="#ea5471"/><path d="m56.105469 132.441406c0-49.96875 37.898437-91.082031 86.519531-96.171875-3.347656-.347656-6.746094-.53125-10.183594-.53125-53.40625 0-96.703125 43.292969-96.703125 96.703125 0 53.40625 43.296875 96.699219 96.703125 96.699219 3.441406 0 6.835938-.179687 10.183594-.53125-48.621094-5.089844-86.519531-46.203125-86.519531-96.167969zm0 0" fill="#da1c4b"/><path d="m193.878906 132.441406c0 33.929688-27.507812 61.4375-61.4375 61.4375-33.933594 0-61.441406-27.507812-61.441406-61.4375 0-33.933594 27.507812-61.441406 61.441406-61.441406 33.929688 0 61.4375 27.507812 61.4375 61.441406zm0 0" fill="#da1c4b"/><path d="m91.589844 132.441406c0-30.421875 22.117187-55.667968 51.144531-60.566406-3.347656-.566406-6.785156-.875-10.292969-.875-33.933594 0-61.441406 27.507812-61.441406 61.441406 0 33.929688 27.507812 61.4375 61.441406 61.4375 3.507813 0 6.945313-.308594 10.292969-.875-29.027344-4.898437-51.144531-30.140625-51.144531-60.5625zm0 0" fill="#bf0443"/><path d="m176.964844 304.132812-25.59375 13.6875c2.3125 2.402344 3.746094 5.613282 3.746094 9.140626v13.777343c0 3.527344-1.433594 6.738281-3.746094 9.140625l25.59375 13.6875c12.316406 6.589844 27.398437-2.058594 27.398437-15.710937 0-.273438 0-28.25 0-28.011719 0-13.652344-15.082031-22.300781-27.398437-15.710938zm0 0" fill="#87cee9"/><path d="m151.371094 317.820312c2.3125 2.402344 3.746094 5.613282 3.746094 9.140626v13.777343c0 3.527344-1.433594 6.738281-3.746094 9.140625l19.558594 10.460938c3.921874-5.546875 6.238281-12.308594 6.238281-19.601563v-13.777343c0-7.296876-2.316407-14.058594-6.238281-19.601563zm0 0" fill="#32b1cc"/><path d="m109.441406 340.738281v-13.777343c0-3.476563 1.371094-6.644532 3.597656-9.035157l-25.46875-13.792969c-12.160156-6.589843-27.054687 2.058594-27.054687 15.710938 0-.238281 0 27.742188 0 28.011719 0 13.652343 14.894531 22.300781 27.054687 15.710937l25.46875-13.792968c-2.226562-2.390626-3.597656-5.558594-3.597656-9.035157zm0 0" fill="#87cee9"/><path d="m81.121094 347.855469c0-.269531 0-28.25 0-28.011719 0-6.410156 3.28125-11.714844 8.023437-14.859375l-1.574219-.851563c-12.160156-6.589843-27.054687 2.058594-27.054687 15.710938 0-.238281 0 27.742188 0 28.011719 0 13.652343 14.894531 22.300781 27.054687 15.710937l1.574219-.851562c-4.742187-3.144532-8.023437-8.449219-8.023437-14.859375zm0 0" fill="#32b1cc"/><path d="m143.136719 313.535156h-21.105469c-7.382812 0-13.421875 6.039063-13.421875 13.425782v13.777343c0 7.382813 6.039063 13.425781 13.421875 13.425781h21.105469c7.386719 0 13.425781-6.042968 13.425781-13.425781v-13.777343c0-7.382813-6.039062-13.425782-13.425781-13.425782zm0 0" fill="#32b1cc"/><path d="m129.214844 340.738281v-13.777343c0-7.386719 6.039062-13.425782 13.421875-13.425782h-20.605469c-7.382812 0-13.421875 6.039063-13.421875 13.425782v13.777343c0 7.382813 6.039063 13.425781 13.421875 13.425781h20.605469c-7.382813 0-13.421875-6.042968-13.421875-13.425781zm0 0" fill="#1695b7"/><path d="m159.253906 132.441406c0 14.808594-12.003906 26.8125-26.8125 26.8125-14.8125 0-26.816406-12.003906-26.816406-26.8125 0-14.8125 12.003906-26.816406 26.816406-26.816406 14.808594 0 26.8125 12.003906 26.8125 26.816406zm0 0" fill="#bf0443"/><path d="m126.230469 132.441406c0-11.160156 6.816406-20.722656 16.511719-24.761718-3.171876-1.320313-6.652344-2.054688-10.300782-2.054688-14.808594 0-26.816406 12.007812-26.816406 26.816406s12.003906 26.8125 26.816406 26.8125c3.648438 0 7.128906-.730468 10.300782-2.054687-9.695313-4.039063-16.511719-13.601563-16.511719-24.757813zm0 0" fill="#af0446"/></svg>