<svg viewBox="-145 0 512 512.0003" xmlns="http://www.w3.org/2000/svg"><path d="m84.078125 361.566406v123.652344c0 14.792969 11.988281 26.78125 26.78125 26.78125 14.789063 0 26.78125-11.988281 26.78125-26.78125v-123.652344zm0 0" fill="#d3843d"/><path d="m104.683594 485.21875v-123.652344h-20.605469v123.652344c0 14.792969 11.988281 26.78125 26.78125 26.78125 3.652344 0 7.128906-.734375 10.300781-2.058594-9.675781-4.035156-16.476562-13.582031-16.476562-24.722656zm0 0" fill="#c65c38"/><path d="m116.117188.121094c-63.460938-2.964844-116.117188 48.78125-116.117188 112.3125v241.492187c0 5.355469 4.34375 9.699219 9.699219 9.699219h201.484375c5.816406 0 10.535156-4.714844 10.535156-10.535156v-242.230469c0-59.464844-46.816406-107.992187-105.601562-110.738281zm0 0" fill="#ffd782"/><path d="m20.605469 353.925781v-241.492187c0-58.296875 44.339843-106.664063 100.679687-111.949219-1.710937-.15625-3.433594-.28125-5.167968-.363281-63.460938-2.964844-116.117188 48.78125-116.117188 112.3125v241.492187c0 5.355469 4.34375 9.699219 9.699219 9.699219h20.605469c-5.355469 0-9.699219-4.34375-9.699219-9.699219zm0 0" fill="#fdbd40"/><path d="m116.117188.121094c-63.460938-2.964844-116.117188 48.78125-116.117188 112.3125v147.625h26.453125c4.699219 0 8.511719 3.808594 8.511719 8.511718v28.265626c0 9.933593 8.289062 17.933593 18.328125 17.460937 9.402343-.441406 16.636719-8.542969 16.636719-17.953125v-47.835938c0-9.933593 8.285156-17.933593 18.328124-17.460937 9.402344.441406 16.636719 8.542969 16.636719 17.957031v31.617188c0 9.9375 8.285157 17.9375 18.328125 17.464844 9.402344-.445313 16.636719-8.542969 16.636719-17.957032v-12.230468c0-4.332032 3.511719-7.839844 7.839844-7.839844h74.019531v-149.199219c0-59.464844-46.816406-107.992187-105.601562-110.738281zm0 0" fill="#ea5471"/><g fill="#da1c4b"><path d="m121.285156.484375c-1.710937-.15625-3.433594-.28125-5.167968-.363281-63.460938-2.964844-116.117188 48.78125-116.117188 112.3125v147.625h20.605469v-147.625c0-58.296875 44.339843-106.664063 100.679687-111.949219zm0 0"/><path d="m55.570312 296.835938v-28.265626c0-4.703124-3.8125-8.511718-8.511718-8.511718h-20.605469c4.699219 0 8.511719 3.808594 8.511719 8.511718v28.265626c0 9.933593 8.289062 17.933593 18.328125 17.460937 3.527343-.164063 6.75-1.410156 9.402343-3.398437-4.316406-3.183594-7.125-8.289063-7.125-14.0625zm0 0"/><path d="m125.5 280.621094c0-12.960938 0-18.628906 0-31.621094 0-9.410156-7.234375-17.511719-16.636719-17.953125-4.207031-.199219-8.09375 1.101563-11.203125 3.398437 4.410156 3.308594 7.234375 8.675782 7.234375 14.554688v31.621094c0 9.933594 8.289063 17.933594 18.328125 17.460937 3.53125-.164062 6.753906-1.410156 9.402344-3.398437-4.316406-3.183594-7.125-8.289063-7.125-14.0625zm0 0"/></g><path d="m116.117188.121094c-63.460938-2.964844-116.117188 48.78125-116.117188 112.3125v28.605468h74.015625c4.332031 0 7.84375 3.507813 7.84375 7.839844v12.226563c0 9.414062 7.234375 17.515625 16.636719 17.957031 10.039062.472656 18.328125-7.527344 18.328125-17.460938 0-12.960937 0-18.628906 0-31.621093 0-9.414063 7.234375-17.511719 16.636719-17.957031 10.039062-.472657 18.328124 7.527343 18.328124 17.464843v47.832031c0 9.414063 7.234376 17.515626 16.636719 17.957032 10.039063.472656 18.328125-7.527344 18.328125-17.460938v-28.265625c0-4.703125 3.8125-8.511719 8.511719-8.511719h26.453125v-30.179687c0-59.464844-46.816406-107.992187-105.601562-110.738281zm0 0" fill="#c65c38"/><path d="m102.527344 161.105469v-12.226563c0-4.332031-3.507813-7.839844-7.839844-7.839844h-20.671875c4.332031 0 7.84375 3.507813 7.84375 7.839844v12.226563c0 9.414062 7.234375 17.515625 16.636719 17.957031 4.222656.199219 8.121094-1.113281 11.238281-3.421875-4.394531-3.3125-7.207031-8.667969-7.207031-14.535156zm0 0" fill="#9c2d20"/><path d="m121.320312.488281c-1.722656-.160156-3.457031-.285156-5.203124-.367187-63.460938-2.964844-116.117188 48.78125-116.117188 112.3125v28.605468h20.667969v-28.605468c0-58.285156 44.328125-106.644532 100.652343-111.945313zm0 0" fill="#9c2d20"/><path d="m172.457031 177.324219c0-9.46875 0-36.792969 0-47.835938 0-9.933593-8.285156-17.933593-18.324219-17.460937-3.542968.164062-6.777343 1.421875-9.433593 3.421875 4.296875 3.1875 7.089843 8.28125 7.089843 14.039062v47.835938c0 9.414062 7.234376 17.511719 16.636719 17.957031 4.21875.195312 8.121094-1.113281 11.238281-3.425781-4.394531-3.3125-7.207031-8.667969-7.207031-14.53125zm0 0" fill="#9c2d20"/></svg>