<svg viewBox="-129 0 512 512.00063" xmlns="http://www.w3.org/2000/svg"><path d="m86.308594 0h82.722656c13.332031 0 24.5 10.179688 25.847656 23.558594l28.269532 280.617187h-191.34375l28.234374-280.230469c1.367188-13.597656 12.71875-23.945312 26.269532-23.945312zm0 0" fill="#f98c96"/><path d="m106.914062 0h-20.605468c-13.550782 0-24.898438 10.347656-26.269532 23.945312l-28.230468 280.230469h20.605468l28.230469-280.230469c1.367188-13.597656 12.71875-23.945312 26.269531-23.945312zm0 0" fill="#ea5471"/><path d="m108.289062 0h38.558594c6.214844 0 11.421875 10.179688 12.050782 23.558594l13.179687 280.617187h-89.199219l13.164063-280.230469c.636719-13.597656 5.925781-23.945312 12.246093-23.945312zm0 0" fill="#ea5471"/><path d="m128.890625 0h-20.601563c-6.320312 0-11.609374 10.347656-12.25 23.945312l-13.160156 280.230469h20.605469l13.160156-280.230469c.640625-13.597656 5.929688-23.945312 12.246094-23.945312zm0 0" fill="#da1c4b"/><path d="m242.699219 301.535156h-230.035157c-6.75 0-12.539062 5.28125-12.66015575 12.027344-.12890625 6.875 5.41015575 12.488281 12.25390575 12.488281h101.097657c1.03125 0 1.867187.835938 1.867187 1.863281v16.238282c0 1.292968-.945312 2.382812-2.21875 2.605468-40.089844 7.058594-70.386718 42.890626-68.714844 85.335938 1.679688 42.671875 35.964844 77.484375 78.609376 79.785156 47.976562 2.582032 87.835937-35.707031 87.835937-83.132812 0-40.878906-29.613281-74.960938-68.515625-81.941406-1.425781-.253907-2.480469-1.472657-2.480469-2.921876v-15.34375c0-1.375 1.113281-2.488281 2.484375-2.488281h100.070313c6.75 0 12.539062-5.28125 12.660156-12.027343.128906-6.875-5.410156-12.488282-12.253906-12.488282zm-56.480469 127.207032c0 32.390624-26.351562 58.742187-58.742188 58.742187-32.386718 0-58.738281-26.351563-58.738281-58.742187 0-32.386719 26.351563-58.738282 58.738281-58.738282 32.390626 0 58.742188 26.351563 58.742188 58.738282zm0 0" fill="#b7e9f9"/><g fill="#87cee9"><path d="m20.433594 313.5625c.125-6.746094 5.914062-12.027344 12.664062-12.027344h-20.433594c-6.75 0-12.539062 5.28125-12.66015575 12.027344-.12890625 6.875 5.41015575 12.488281 12.25390575 12.488281h20.433594c-6.847656 0-12.382812-5.613281-12.257812-12.488281zm0 0"/><path d="m64.722656 432.09375c-1.675781-42.445312 28.625-78.277344 68.710938-85.335938 1.277344-.226562 2.222656-1.3125 2.222656-2.605468v-16.238282c0-1.027343-.835938-1.863281-1.867188-1.863281h-20.433593c1.03125 0 1.867187.835938 1.867187 1.863281v16.238282c0 1.292968-.945312 2.382812-2.21875 2.605468-40.089844 7.058594-70.386718 42.890626-68.714844 85.335938 1.679688 42.671875 35.964844 77.484375 78.609376 79.785156 5.054687.269532 10.019531.085938 14.855468-.515625-40.015625-4.886719-71.425781-38.476562-73.03125-79.269531zm0 0"/></g></svg>