<svg viewBox="0 -48 512.00035 512" xmlns="http://www.w3.org/2000/svg"><g fill="#d7f7ff"><path d="m367.011719 55.472656h-17.003907c-2.988281 0-5.410156 2.480469-5.410156 5.539063v80.722656h27.824219v-80.722656c0-3.058594-2.421875-5.539063-5.410156-5.539063zm0 0"/><path d="m264.503906 55.472656h-17.007812c-2.988282 0-5.410156 2.480469-5.410156 5.539063v80.722656h27.824218v-80.722656c.003906-3.058594-2.417968-5.539063-5.40625-5.539063zm0 0"/><path d="m161.992188 55.472656h-17.003907c-2.988281 0-5.410156 2.480469-5.410156 5.539063v80.722656h27.824219v-80.722656c0-3.058594-2.421875-5.539063-5.410156-5.539063zm0 0"/></g><path d="m367.78125 55.550781c-.835938-.121093.824219-.078125-17.773438-.078125-2.988281 0-5.410156 2.480469-5.410156 5.539063v80.722656h18.542969v-80.722656c0-2.789063 2.023437-5.074219 4.640625-5.460938zm0 0" fill="#b7e9f9"/><path d="m265.273438 55.550781c-.839844-.121093.824218-.078125-17.773438-.078125-2.988281 0-5.414062 2.480469-5.414062 5.539063v80.722656h18.546874v-80.722656c0-2.789063 2.019532-5.074219 4.640626-5.460938zm0 0" fill="#b7e9f9"/><path d="m162.765625 55.550781c-.84375-.121093.824219-.078125-17.777344-.078125-2.988281 0-5.410156 2.480469-5.410156 5.539063v80.722656h18.542969v-80.722656c0-2.789063 2.023437-5.074219 4.644531-5.460938zm0 0" fill="#b7e9f9"/><path d="m418.421875 155.71875c0-8.816406-7.144531-15.960938-15.960937-15.960938h-292.921876c-8.8125 0-15.960937 7.148438-15.960937 15.960938v36.644531c18.945313-2.488281 35.261719-13.25 45.234375-28.546875 1.574219-2.414062 5.027344-2.410156 6.601562.003906 24.554688 37.660157 78.921876 38.980469 105.339844 2.816407 2.613282-3.578125 7.878906-3.578125 10.492188 0 25.730468 35.222656 78.152344 35.023437 103.640625-.328125 2.464843-3.425782 7.53125-3.445313 9.996093-.023438 10.074219 13.984375 25.636719 23.722656 43.539063 26.074219zm0 0" fill="#ea5471"/><path d="m114.183594 155.71875c0-8.816406 7.148437-15.960938 15.960937-15.960938h-20.605469c-8.8125 0-15.960937 7.144532-15.960937 15.960938v36.644531c7.335937-.964843 14.273437-3.179687 20.605469-6.410156zm0 0" fill="#da1c4b"/><path d="m374.882812 166.285156c-2.464843-3.425781-7.527343-3.40625-9.996093.019532-25.511719 35.390624-77.933594 35.519531-103.640625.328124-2.613282-3.574218-7.878906-3.574218-10.492188 0-26.410156 36.15625-80.777344 34.859376-105.339844-2.8125-1.574218-2.414062-5.027343-2.421874-6.601562-.007812-9.972656 15.300781-26.289062 26.0625-45.234375 28.550781v49.574219h324.84375v-49.582031c-17.902344-2.347657-33.464844-12.085938-43.539063-26.070313zm0 0" fill="#f98c96"/><path d="m114.183594 185.953125c-6.332032 3.230469-13.265625 5.449219-20.605469 6.410156v49.578125h20.605469zm0 0" fill="#ea5471"/><path d="m156.4375.796875c-1.808594-1.0625-4.082031-1.0625-5.894531 0-11.777344 6.914063-19.3125 19.867187-18.707031 34.316406 1.148437 27.371094 43.34375 27.492188 43.34375-1.613281 0-13.941406-7.53125-26.121094-18.742188-32.703125zm0 0" fill="#ffd782"/><path d="m163.792969 6.441406c-2.207031-2.164062-4.671875-4.070312-7.355469-5.644531-1.808594-1.0625-4.082031-1.0625-5.894531 0-11.730469 6.886719-19.3125 19.8125-18.707031 34.316406.761718 18.164063 19.375 24.15625 31.957031 18.011719-17.070313-8.335938-13.394531-33.5625 0-46.683594zm0 0" fill="#fdbd40"/><path d="m155.296875 28.84375c-1.109375-.648438-2.503906-.648438-3.609375 0-8.570312 5.03125-12.484375 14.664062-11.320312 22.640625 7.601562 5.3125 18.648437 5.3125 26.246093 0 1.183594-8.117187-2.855469-17.671875-11.316406-22.640625zm0 0" fill="#fdbd40"/><path d="m152.753906 28.441406c-.371094.078125-.734375.207032-1.070312.402344-8.535156 5.011719-12.480469 14.625-11.316406 22.632812 6.792968 4.742188 16.1875 5.183594 23.425781 1.648438-9.515625-4.648438-12.46875-13.980469-11.039063-24.683594zm0 0" fill="#f2aa2a"/><path d="m436.867188 239.878906h-361.730469c-10.886719 0-19.710938 8.824219-19.710938 19.710938v82.46875h401.148438v-82.46875c0-10.886719-8.824219-19.710938-19.707031-19.710938zm0 0" fill="#ffd782"/><path d="m95.742188 239.878906h-20.605469c-10.886719 0-19.710938 8.824219-19.710938 19.710938v82.46875h20.605469v-82.46875c0-10.886719 8.824219-19.710938 19.710938-19.710938zm0 0" fill="#fdbd40"/><path d="m55.425781 274.695312h401.148438v33.042969h-401.148438zm0 0" fill="#fdbd40"/><path d="m55.425781 274.695312h20.605469v33.042969h-20.605469zm0 0" fill="#f2aa2a"/><path d="m44.730469 389.964844c9.964843 15.828125 26.558593 25.304687 44.304687 25.304687h333.933594c17.746094 0 34.339844-9.476562 44.304688-25.304687zm0 0" fill="#b7e9f9"/><path d="m67.140625 389.964844h-22.410156c9.964843 15.828125 26.558593 25.304687 44.304687 25.304687h22.410156c-17.75 0-34.339843-9.476562-44.304687-25.304687zm0 0" fill="#87cee9"/><path d="m481.722656 391.792969h-451.445312c-3.554688 0-6.878906-1.816407-8.878906-4.851563l-19.527344-29.667968c-4.835938-7.347657.269531-17.277344 8.878906-17.277344h490.5c8.613281 0 13.714844 9.929687 8.878906 17.277344l-19.527344 29.667968c-1.996093 3.035156-5.324218 4.851563-8.878906 4.851563zm0 0" fill="#d7f7ff"/><path d="m42.003906 386.941406-19.527344-29.667968c-4.835937-7.347657.265626-17.273438 8.878907-17.273438h-20.605469c-8.609375 0-13.714844 9.925781-8.878906 17.273438l19.53125 29.667968c1.996094 3.035156 5.320312 4.851563 8.878906 4.851563h20.601562c-3.554687 0-6.882812-1.816407-8.878906-4.851563zm0 0" fill="#b7e9f9"/><path d="m258.945312.796875c-1.808593-1.0625-4.082031-1.0625-5.890624 0-11.214844 6.582031-18.742188 18.765625-18.742188 32.707031 0 29.359375 43.375 29.320313 43.375 0 0-13.945312-7.527344-26.125-18.742188-32.707031zm0 0" fill="#ffd782"/><path d="m254.917969 33.5c0-10.601562 4.363281-20.183594 11.386719-27.058594-2.210938-2.164062-4.675782-4.070312-7.359376-5.644531-1.808593-1.0625-4.082031-1.0625-5.890624 0-11.214844 6.582031-18.742188 18.761719-18.742188 32.703125 0 19.9375 19.402344 25.773438 31.988281 19.625-6.972656-3.40625-11.382812-9.957031-11.382812-19.625zm0 0" fill="#fdbd40"/><path d="m257.808594 28.84375c-1.109375-.648438-2.503906-.648438-3.613282 0-8.40625 4.933594-12.511718 14.457031-11.316406 22.640625 7.597656 5.3125 18.644532 5.3125 26.246094 0 1.183594-8.117187-2.859375-17.671875-11.316406-22.640625zm0 0" fill="#fdbd40"/><path d="m254.917969 33.5c0-1.714844.125-3.402344.347656-5.058594-.371094.078125-.734375.207032-1.070313.402344-8.4375 4.953125-12.503906 14.492188-11.320312 22.632812 6.871094 4.792969 16.273438 5.140626 23.425781 1.648438-6.972656-3.40625-11.382812-9.957031-11.382812-19.625zm0 0" fill="#f2aa2a"/><path d="m361.457031.796875c-1.808593-1.0625-4.085937-1.0625-5.894531 0-11.210938 6.582031-18.742188 18.765625-18.742188 32.707031 0 29.359375 43.378907 29.320313 43.378907 0 0-13.945312-7.53125-26.125-18.742188-32.707031zm0 0" fill="#ffd782"/><path d="m368.8125 6.441406c-2.207031-2.164062-4.671875-4.070312-7.355469-5.644531-1.808593-1.0625-4.085937-1.0625-5.894531 0-11.210938 6.582031-18.742188 18.761719-18.742188 32.703125 0 19.9375 19.40625 25.773438 31.992188 19.625-17.070312-8.335938-13.394531-33.5625 0-46.683594zm0 0" fill="#fdbd40"/><path d="m360.316406 28.84375c-1.109375-.648438-2.503906-.648438-3.613281 0-8.503906 4.992188-12.492187 14.589844-11.316406 22.640625 7.601562 5.3125 18.648437 5.3125 26.246093 0 1.179688-8.078125-2.820312-17.652344-11.316406-22.640625zm0 0" fill="#fdbd40"/><path d="m357.773438 28.441406c-.371094.078125-.734376.207032-1.070313.402344-8.570313 5.03125-12.476563 14.664062-11.316406 22.632812 6.796875 4.742188 16.1875 5.183594 23.425781 1.648438-9.515625-4.648438-12.472656-13.980469-11.039062-24.683594zm0 0" fill="#f2aa2a"/></svg>