<svg viewBox="-115 0 512 512.00103" xmlns="http://www.w3.org/2000/svg"><path d="m141.140625 329.257812-129.757813 19.257813v153.417969c0 5.558594 4.507813 10.066406 10.066407 10.066406h239.382812c5.558594 0 10.066407-4.507812 10.066407-10.066406v-153.417969zm0 0" fill="#c8d952"/><path d="m31.988281 501.933594v-156.476563l-20.605469 3.058594v153.417969c0 5.558594 4.507813 10.066406 10.066407 10.066406h20.605469c-5.558594 0-10.066407-4.507812-10.066407-10.066406zm0 0" fill="#8ec13f"/><path d="m141.140625 329.257812-97.484375 14.46875v130.199219c0 3.625 2.9375 6.566407 6.566406 6.566407h181.835938c3.625 0 6.5625-2.941407 6.5625-6.566407v-130.199219zm0 0" fill="#8ec13f"/><path d="m64.261719 473.925781v-133.257812l-20.601563 3.058593v130.199219c0 3.625 2.9375 6.566407 6.5625 6.566407h20.605469c-3.628906 0-6.566406-2.941407-6.566406-6.566407zm0 0" fill="#7cad27"/><path d="m244.789062 0h-207.296874c-7.5 0-13.636719 6.136719-13.636719 13.636719v232.15625h234.570312v-232.15625c0-7.5-6.136719-13.636719-13.636719-13.636719zm0 0" fill="#d3843d"/><path d="m58.097656 0h-20.605468c-7.5 0-13.636719 6.136719-13.636719 13.636719v232.15625h20.605469v-232.15625c0-7.5 6.136718-13.636719 13.636718-13.636719zm0 0" fill="#c65c38"/><path d="m276.355469 310.296875-138.519531 20.558594 136.480468 20.25c4.195313.625 7.964844-2.625 7.964844-6.867188v-40.808593c0 3.441406-2.523438 6.363281-5.925781 6.867187zm0 0" fill="#b7e9f9"/><path d="m276.355469 310.296875-138.519531 20.558594 73.40625 10.890625 68.277343-10.132813c.9375-.136719 1.859375-.332031 2.761719-.5625v-27.621093c0 3.441406-2.523438 6.363281-5.925781 6.867187zm0 0" fill="#87cee9"/><path d="m119.148438 137.339844h-57c-3.144532 0-5.6875 2.546875-5.6875 5.6875v61.300781c0 3.140625 2.546874 5.691406 5.6875 5.691406h57c3.144531 0 5.691406-2.550781 5.691406-5.691406v-61.300781c0-3.140625-2.546875-5.6875-5.691406-5.6875zm0 0" fill="#c65c38"/><path d="m77.0625 204.328125v-61.300781c0-3.140625 2.546875-5.6875 5.691406-5.6875h-20.605468c-3.144532 0-5.6875 2.546875-5.6875 5.6875v61.300781c0 3.140625 2.546874 5.691406 5.6875 5.691406h20.605468c-3.144531 0-5.691406-2.550781-5.691406-5.691406zm0 0" fill="#9c2d20"/><path d="m220.132812 137.339844h-57c-3.144531 0-5.691406 2.546875-5.691406 5.6875v61.300781c0 3.140625 2.546875 5.691406 5.691406 5.691406h57c3.140626 0 5.6875-2.550781 5.6875-5.691406v-61.300781c0-3.140625-2.546874-5.6875-5.6875-5.6875zm0 0" fill="#c65c38"/><path d="m178.046875 204.328125v-61.300781c0-3.140625 2.546875-5.6875 5.6875-5.6875h-20.601563c-3.144531 0-5.691406 2.546875-5.691406 5.6875v61.300781c0 3.140625 2.546875 5.691406 5.691406 5.691406h20.601563c-3.140625 0-5.6875-2.550781-5.6875-5.691406zm0 0" fill="#9c2d20"/><path d="m119.148438 35.417969h-57c-3.144532 0-5.6875 2.296875-5.6875 5.132812v55.316407c0 2.835937 2.546874 5.132812 5.6875 5.132812h57c3.144531 0 5.691406-2.296875 5.691406-5.132812v-55.316407c0-2.835937-2.546875-5.132812-5.691406-5.132812zm0 0" fill="#c65c38"/><path d="m77.0625 95.867188v-55.316407c0-2.835937 2.546875-5.132812 5.691406-5.132812h-20.605468c-3.144532 0-5.6875 2.296875-5.6875 5.132812v55.316407c0 2.835937 2.546874 5.132812 5.6875 5.132812h20.605468c-3.144531 0-5.691406-2.296875-5.691406-5.132812zm0 0" fill="#9c2d20"/><path d="m220.132812 35.417969h-57c-3.144531 0-5.691406 2.296875-5.691406 5.132812v55.316407c0 2.835937 2.546875 5.132812 5.691406 5.132812h57c3.140626 0 5.6875-2.296875 5.6875-5.132812v-55.316407c0-2.835937-2.546874-5.132812-5.6875-5.132812zm0 0" fill="#c65c38"/><path d="m178.046875 95.867188v-55.316407c0-2.835937 2.546875-5.132812 5.6875-5.132812h-20.601563c-3.144531 0-5.691406 2.296875-5.691406 5.132812v55.316407c0 2.835937 2.546875 5.132812 5.691406 5.132812h20.601563c-3.140625 0-5.6875-2.296875-5.6875-5.132812zm0 0" fill="#9c2d20"/><path d="m275.496094 243.730469h-268.710938c-3.746094 0-6.785156 3.039062-6.785156 6.785156v93.882813c0 4.144531 3.683594 7.320312 7.78125 6.710937l268.710938-39.875c3.324218-.496094 5.789062-3.351563 5.789062-6.714844v-54.003906c0-3.746094-3.039062-6.785156-6.785156-6.785156zm0 0" fill="#d7f7ff"/><path d="m20.605469 344.398438v-93.882813c0-3.746094 3.035156-6.785156 6.785156-6.785156h-20.605469c-3.746094 0-6.785156 3.039062-6.785156 6.785156v93.882813c0 4.144531 3.683594 7.320312 7.78125 6.710937l14.582031-2.164063c-1.085937-1.195312-1.757812-2.78125-1.757812-4.546874zm0 0" fill="#b7e9f9"/></svg>