<svg viewBox="-78 0 512 512.00004" xmlns="http://www.w3.org/2000/svg"><path d="m134.660156 60.710938c40.710938 0 73.828125 33.121093 73.828125 73.828124v59.011719c3.707031-2.835937 8.320313-4.542969 13.320313-4.542969h34.617187c4.757813 0 9.164063 1.542969 12.773438 4.136719v-58.605469c0-74.183593-60.351563-134.539062-134.539063-134.539062-109.945312 0-173.324218 125.410156-108.675781 213.863281 5.941406 8.132813 15.171875 12.445313 24.53125 12.445313 6.214844 0 12.484375-1.902344 17.886719-5.851563 13.535156-9.890625 16.488281-28.882812 6.59375-42.417969-35.417969-48.472656-.703125-117.328124 59.664062-117.328124zm0 0" fill="#f98c96"/><path d="m229.09375 134.539062c0-44.527343-39.441406-79.363281-84.132812-73.09375 35.851562 5.027344 63.527343 35.882813 63.527343 73.09375v59.011719c3.707031-2.835937 8.316407-4.542969 13.316407-4.542969h7.289062zm0 0" fill="#ea5471"/><path d="m46.585938 213.863281c-62.089844-84.957031-6.289063-205.507812 98.375-213.472656-3.398438-.257813-6.835938-.390625-10.300782-.390625-109.945312 0-173.324218 125.410156-108.675781 213.863281 5.941406 8.132813 15.171875 12.445313 24.53125 12.445313 3.453125 0 6.921875-.609375 10.25-1.8125-5.492187-1.980469-10.472656-5.566406-14.179687-10.632813zm0 0" fill="#ea5471"/><path d="m256.425781 255.652344h-34.617187c-5 0-9.613282-1.707032-13.320313-4.542969v230.535156c0 16.765625 13.59375 30.355469 30.359375 30.355469 16.761719 0 30.351563-13.589844 30.351563-30.355469v-230.128906c-3.609375 2.589844-8.015625 4.136719-12.773438 4.136719zm0 0" fill="#f98c96"/><path d="m229.09375 481.644531v-225.992187h-7.285156c-5 0-9.613282-1.707032-13.320313-4.542969v230.535156c0 16.765625 13.59375 30.355469 30.355469 30.355469 3.617188 0 7.085938-.636719 10.304688-1.796875-11.695313-4.21875-20.054688-15.410156-20.054688-28.558594zm0 0" fill="#ea5471"/><path d="m32.382812 47.234375c-15.441406 18.0625-26.191406 40.25-30.347656 64.660156 23.144532 6.253907 45.75-11.21875 45.75-35.007812 0-12.257813-6.089844-23.089844-15.402344-29.652344zm0 0" fill="#ea5471"/><path d="m32.382812 47.234375c-15.628906 18.277344-26.242187 40.539063-30.347656 64.660156 6.804688 1.839844 13.984375 1.664063 20.6875-.515625 3.285156-18.832031 10.492188-36.335937 20.753906-51.628906-2.679687-4.984375-6.492187-9.273438-11.09375-12.515625zm0 0" fill="#da1c4b"/><path d="m133.71875 24.34375c-23.777344 0-41.265625 22.59375-35.007812 45.742188 10.648437-5.960938 22.902343-9.375 35.949218-9.375 12.375 0 24.039063 3.074218 34.292969 8.476562 5.566406-22.945312-11.84375-44.84375-35.234375-44.84375zm0 0" fill="#ea5471"/><path d="m144.019531 25.835938c-3.265625-.964844-6.722656-1.492188-10.300781-1.492188-23.777344 0-41.265625 22.59375-35.007812 45.742188 6.007812-3.363282 12.527343-5.914063 19.410156-7.5-.933594-17.121094 10.121094-32.082032 25.898437-36.75zm0 0" fill="#da1c4b"/><path d="m144.984375 61.441406c8.386719 1.183594 16.527344 3.828125 23.96875 7.746094.550781-2.257812.878906-4.605469.984375-7.007812-8.214844-1.664063-16.535156-1.914063-24.953125-.738282zm0 0" fill="#da1c4b"/><path d="m261.90625 90.832031c-7.988281-23.191406-22.148438-43.53125-40.511719-59.054687-23.476562 22.339844-7.898437 62.539062 24.988281 62.539062 5.554688 0 10.816407-1.253906 15.523438-3.484375zm0 0" fill="#ea5471"/><path d="m233.714844 43.617188c-3.855469-4.195313-7.964844-8.15625-12.320313-11.839844-27.109375 25.796875-1.605469 71.972656 35.289063 61.042968-20.859375-6.171874-31.636719-29.28125-22.96875-49.203124zm0 0" fill="#da1c4b"/><path d="m208.285156 129.34375c.28125 4.007812.203125-.203125.203125 64.207031 3.707031-2.835937 8.316407-4.542969 13.316407-4.542969h12.992187c19.484375-23 3.855469-58.703124-26.511719-59.664062zm0 0" fill="#ea5471"/><path d="m208.289062 129.34375c.058594.820312.105469 1.640625.136719 2.46875.089844 2.105469.0625-1.960938.0625 61.738281 1.855469-1.417969 3.933594-2.554687 6.175781-3.335937 2.238282-.78125 4.640626-1.207032 7.140626-1.207032h7.289062v-52.261718c-5.808594-4.433594-12.992188-7.152344-20.804688-7.402344zm0 0" fill="#da1c4b"/><path d="m232.578125 255.652344c3.097656 17.386718 18.507813 30.308594 36.621094 29.839844v-33.976563c-3.609375 2.589844-8.015625 4.136719-12.773438 4.136719zm0 0" fill="#ea5471"/><path d="m253.183594 255.652344h-20.605469c3.097656 17.386718 18.507813 30.308594 36.621094 29.839844v-5.796876c-8.242188-5.335937-14.214844-13.929687-16.015625-24.042968zm0 0" fill="#da1c4b"/><path d="m208.488281 372.59375c20-.757812 35.613281-17.574219 34.871094-37.578125-.703125-19.105469-16.066406-34.199219-34.871094-34.894531zm0 0" fill="#ea5471"/><path d="m229.09375 307.515625c-5.777344-4.40625-12.902344-7.109375-20.605469-7.394531v72.472656c7.765625-.292969 14.863281-3.015625 20.605469-7.398438zm0 0" fill="#da1c4b"/><path d="m269.199219 459.707031v-72.496093c-.75-.015626-1.503907-.019532-2.265625.007812-20.015625.738281-35.644532 17.5625-34.90625 37.578125.734375 19.882813 17.335937 35.421875 37.171875 34.910156zm0 0" fill="#ea5471"/><path d="m269.199219 392.996094v-5.785156c-.75-.015626-1.503907-.019532-2.265625.007812-20.015625.738281-35.644532 17.5625-34.90625 37.578125.734375 19.878906 17.335937 35.421875 37.171875 34.910156v-5.792969c-22.101563-14.296874-22.109375-46.609374 0-60.917968zm0 0" fill="#da1c4b"/><path d="m312.597656 173.578125-41.339844 22.453125c3.734376 3.941406 6.046876 9.210938 6.046876 14.996094v22.601562c0 5.785156-2.3125 11.054688-6.046876 14.996094l41.339844 22.453125c19.894532 10.804687 44.261719-3.378906 44.261719-25.773437 0-.445313 0-46.339844 0-45.953126 0-22.390624-24.367187-36.578124-44.261719-25.773437zm0 0" fill="#ffd782"/><path d="m277.304688 211.027344v22.601562c0 5.785156-2.3125 11.054688-6.046876 14.996094l19.6875 10.691406c5.09375-7.144531 8.109376-15.917968 8.109376-25.402344v-23.367187c0-9.417969-2.980469-18.140625-8.011719-25.261719l-19.785157 10.746094c3.734376 3.941406 6.046876 9.210938 6.046876 14.996094zm0 0" fill="#fdbd40"/><path d="m256.425781 189.007812h-34.617187c-12.113282 0-22.023438 9.910157-22.023438 22.019532v22.601562c0 12.113282 9.910156 22.023438 22.023438 22.023438h34.617187c12.113281 0 22.023438-9.910156 22.023438-22.023438v-22.601562c0-12.113282-9.910157-22.019532-22.023438-22.019532zm0 0" fill="#ffd782"/><path d="m200.816406 233.628906v-22.601562c0-5.703125 2.242188-10.898438 5.878906-14.820313l-41.601562-22.628906c-19.867188-10.804687-44.199219 3.382813-44.199219 25.773437 0-.386718 0 45.507813 0 45.953126 0 22.394531 24.332031 36.578124 44.199219 25.773437l41.601562-22.628906c-3.636718-3.921875-5.878906-9.117188-5.878906-14.820313zm0 0" fill="#ffd782"/><path d="m141.5 245.304688c0-.445313 0-46.339844 0-45.953126 0-13.214843 8.476562-23.570312 19.511719-27.617187-18.96875-6.996094-40.117188 6.738281-40.117188 27.617187 0-.386718 0 45.507813 0 45.953126 0 20.878906 21.148438 34.613281 40.117188 27.617187-11.035157-4.046875-19.511719-14.398437-19.511719-27.617187zm0 0" fill="#fdbd40"/><path d="m256.425781 187.785156h-34.617187c-12.113282 0-22.023438 10.242188-22.023438 22.765625v23.363281c0 12.519532 9.910156 22.765626 22.023438 22.765626h34.617187c12.113281 0 22.023438-10.246094 22.023438-22.765626v-23.363281c0-12.523437-9.910157-22.765625-22.023438-22.765625zm0 0" fill="#fdbd40"/><path d="m220.390625 233.914062v-23.363281c0-12.523437 9.910156-22.765625 22.019531-22.765625h-20.601562c-12.113282 0-22.023438 10.242188-22.023438 22.765625v23.363281c0 12.519532 9.910156 22.765626 22.023438 22.765626h20.601562c-12.109375 0-22.019531-10.246094-22.019531-22.765626zm0 0" fill="#f2aa2a"/></svg>