<svg viewBox="-101 0 512 512" xmlns="http://www.w3.org/2000/svg"><path d="m205.671875 355.003906v136.5c0 11.320313 9.179687 20.496094 20.496094 20.496094 11.320312 0 20.5-9.175781 20.5-20.496094v-136.5zm0 0" fill="#d3843d"/><path d="m226.167969 491.503906v-136.5h-20.496094v136.5c0 11.320313 9.179687 20.496094 20.496094 20.496094 3.738281 0 7.234375-1.015625 10.25-2.765625-6.121094-3.542969-10.25-10.148437-10.25-17.730469zm0 0" fill="#c65c38"/><path d="m255.027344 0h-57.714844c-17.25 0-31.367188 14.117188-31.367188 31.371094v296.386718c0 17.253907 14.113282 31.367188 31.367188 31.367188h57.714844c17.253906 0 31.367187-14.113281 31.367187-31.367188 0-13.667968 0-282.675781 0-296.386718 0-17.253906-14.113281-31.371094-31.367187-31.371094zm0 0" fill="#fff69a"/><path d="m186.441406 327.757812c0-12.378906 0-283.992187 0-296.386718 0-17.253906 14.117188-31.371094 31.371094-31.371094h-20.5c-17.25 0-31.367188 14.117188-31.367188 31.371094v296.386718c0 17.253907 14.113282 31.367188 31.367188 31.367188h20.5c-17.253906 0-31.371094-14.117188-31.371094-31.367188zm0 0" fill="#ffd782"/><g fill="#c8d952"><path d="m307.96875 54.566406c-3.859375-11.191406-16.054688-17.136718-27.246094-13.28125l-123.066406 42.398438c-11.191406 3.855468-17.140625 16.054687-13.285156 27.246094 3.859375 11.191406 16.054687 17.136718 27.246094 13.28125l123.066406-42.398438c11.191406-3.855469 17.140625-16.054688 13.285156-27.246094zm0 0"/><path d="m307.96875 152.664062c-3.859375-11.191406-16.054688-17.140624-27.246094-13.285156l-123.066406 42.398438c-11.191406 3.859375-17.140625 16.054687-13.285156 27.246094 3.859375 11.195312 16.054687 17.140624 27.246094 13.285156l123.066406-42.398438c11.191406-3.855468 17.140625-16.054687 13.285156-27.246094zm0 0"/><path d="m307.96875 250.757812c-3.859375-11.191406-16.054688-17.136718-27.246094-13.28125l-123.066406 42.398438c-11.191406 3.855469-17.140625 16.054688-13.285156 27.246094 3.859375 11.191406 16.054687 17.140625 27.246094 13.28125l123.066406-42.394532c11.191406-3.859374 17.140625-16.058593 13.285156-27.25zm0 0"/></g><path d="m180.953125 103.605469c-12.792969 4.410156-26.433594-4-28.230469-17.449219-7.894531 5.277344-11.589844 15.371094-8.351562 24.773438 3.859375 11.191406 16.058594 17.136718 27.246094 13.28125l123.066406-42.398438c9.8125-3.378906 15.589844-13.171875 14.269531-23.074219-3.40625 2.277344 4.800781-.882812-128 44.867188zm0 0" fill="#8ec13f"/><path d="m180.953125 201.703125c-12.792969 4.410156-26.433594-4-28.230469-17.453125-7.894531 5.28125-11.589844 15.371094-8.351562 24.773438 3.859375 11.195312 16.058594 17.140624 27.246094 13.285156l123.066406-42.398438c9.8125-3.382812 15.589844-13.175781 14.269531-23.078125-3.40625 2.277344 4.800781-.882812-128 44.871094zm0 0" fill="#8ec13f"/><path d="m180.953125 299.800781c-12.792969 4.40625-26.433594-4-28.230469-17.453125-7.894531 5.28125-11.589844 15.371094-8.351562 24.773438 3.859375 11.191406 16.058594 17.140625 27.246094 13.28125l123.066406-42.398438c9.8125-3.378906 15.589844-13.171875 14.269531-23.074218-3.40625 2.277343 4.800781-.882813-128 44.871093zm0 0" fill="#8ec13f"/><path d="m62.476562 355.003906v136.5c0 11.320313 9.175782 20.496094 20.496094 20.496094 11.320313 0 20.496094-9.175781 20.496094-20.496094v-136.5zm0 0" fill="#d3843d"/><path d="m82.972656 491.503906v-136.5h-20.496094v136.5c0 11.320313 9.175782 20.496094 20.496094 20.496094 3.738282 0 7.230469-1.015625 10.25-2.765625-6.121094-3.542969-10.25-10.148437-10.25-17.730469zm0 0" fill="#c65c38"/><path d="m111.828125 0h-57.710937c-17.253907 0-31.371094 14.117188-31.371094 31.371094v296.386718c0 17.253907 14.117187 31.367188 31.371094 31.367188h57.710937c17.253906 0 31.371094-14.113281 31.371094-31.367188 0-13.667968 0-282.675781 0-296.386718 0-17.253906-14.117188-31.371094-31.371094-31.371094zm0 0" fill="#87cee9"/><path d="m43.242188 327.757812c0-12.378906 0-283.992187 0-296.386718 0-17.253906 14.117187-31.371094 31.371093-31.371094h-20.496093c-17.253907 0-31.371094 14.117188-31.371094 31.371094v296.386718c0 17.253907 14.117187 31.367188 31.371094 31.367188h20.496093c-17.253906 0-31.371093-14.117188-31.371093-31.367188zm0 0" fill="#32b1cc"/><path d="m164.769531 54.566406c-3.855469-11.191406-16.054687-17.136718-27.246093-13.28125l-123.066407 42.398438c-11.191406 3.855468-17.136719 16.054687-13.28125 27.246094 3.855469 11.191406 16.054688 17.136718 27.246094 13.28125l123.0625-42.398438c11.195313-3.855469 17.140625-16.054688 13.285156-27.246094zm0 0" fill="#f98c96"/><path d="m164.769531 152.664062c-3.855469-11.191406-16.054687-17.140624-27.246093-13.285156l-123.066407 42.398438c-11.191406 3.859375-17.136719 16.054687-13.28125 27.246094 3.855469 11.195312 16.054688 17.140624 27.246094 13.285156l123.0625-42.398438c11.195313-3.855468 17.140625-16.054687 13.285156-27.246094zm0 0" fill="#f98c96"/><path d="m164.769531 250.757812c-3.855469-11.191406-16.054687-17.136718-27.246093-13.28125l-123.066407 42.398438c-11.191406 3.855469-17.136719 16.054688-13.28125 27.246094s16.054688 17.140625 27.246094 13.28125l123.0625-42.394532c11.195313-3.859374 17.140625-16.058593 13.285156-27.25zm0 0" fill="#f98c96"/><path d="m37.757812 103.605469c-12.796874 4.410156-26.4375-4-28.230468-17.449219-7.894532 5.277344-11.589844 15.371094-8.351563 24.773438 3.855469 11.191406 16.054688 17.136718 27.246094 13.28125l123.0625-42.398438c9.8125-3.378906 15.589844-13.171875 14.269531-23.074219-3.40625 2.277344 4.800782-.882812-127.996094 44.867188zm0 0" fill="#ea5471"/><path d="m37.757812 201.703125c-12.796874 4.410156-26.4375-4-28.230468-17.453125-7.894532 5.28125-11.589844 15.371094-8.351563 24.773438 3.855469 11.195312 16.054688 17.140624 27.246094 13.285156l123.0625-42.398438c9.8125-3.382812 15.589844-13.175781 14.269531-23.078125-3.40625 2.277344 4.800782-.882812-127.996094 44.871094zm0 0" fill="#ea5471"/><path d="m37.757812 299.800781c-12.796874 4.40625-26.4375-4-28.230468-17.453125-7.894532 5.28125-11.589844 15.371094-8.351563 24.773438 3.855469 11.191406 16.054688 17.140625 27.246094 13.28125l123.0625-42.398438c9.8125-3.378906 15.589844-13.171875 14.269531-23.074218-3.40625 2.277343 4.800782-.882813-127.996094 44.871093zm0 0" fill="#ea5471"/></svg>