<svg viewBox="0 -59 512.00035 512" xmlns="http://www.w3.org/2000/svg"><path d="m268.433594 10.804688c-3.675782-2.167969-8.414063-.941407-10.578125 2.738281-.007813.007812-.238281.351562-.648438.800781-2.820312-6.523438-5.542969-10.601562-5.777343-10.953125-2.386719-3.527344-7.171876-4.449219-10.707032-2.070313-3.53125 2.375-4.472656 7.171876-2.105468 10.710938.097656.144531 9.660156 14.652344 9.660156 31.980469 0 4.265625 3.457031 7.726562 7.726562 7.726562 4.265625 0 7.726563-3.457031 7.726563-7.726562 0-5.039063-.613281-9.84375-1.558594-14.273438 4.445313-2.316406 7.535156-5.867187 9-8.355469 2.164063-3.675781.9375-8.410156-2.738281-10.578124zm0 0" fill="#d3843d"/><path d="m239.363281 88.476562c11.105469-2.882812 22.703125-2.886718 33.828125 0 17.390625-15.496093 6.484375-44.464843-16.914062-44.464843-23.382813 0-34.316406 28.957031-16.914063 44.464843zm0 0" fill="#da1c4b"/><path d="m266.578125 46.191406c-3.148437-1.398437-6.632813-2.179687-10.300781-2.179687-23.382813 0-34.316406 28.957031-16.914063 44.464843 6.058594-1.570312 12.191407-2.285156 18.480469-2.136718-11.417969-12.855469-7.070312-33.144532 8.734375-40.148438zm0 0" fill="#bf0443"/><path d="m67.625 160.125-8.8125 159.90625h61.015625l9.578125-173.820312c.984375-17.839844 9.113281-33.65625 21.507812-44.765626-40.242187-11.941406-80.988281 16.917969-83.289062 58.679688zm0 0" fill="#fff69a"/><path d="m142.753906 99.597656c-38.03125-6.105468-73.007812 22.039063-75.128906 60.527344l-8.8125 159.90625h20.605469l8.8125-159.90625c1.703125-30.917969 24.847656-55.785156 54.523437-60.527344zm0 0" fill="#ffd782"/><path d="m128.378906 146.210938-9.578125 173.820312h64.101563l9.578125-173.820312c1.253906-22.800782 14.175781-42.3125 32.777343-52.890626-41.71875-23.722656-94.226562 4.707032-96.878906 52.890626zm0 0" fill="#ffd782"/><path d="m203.53125 85.679688c-38.207031-6.128907-73.042969 22.199218-75.152344 60.53125l-9.578125 173.820312h20.605469l9.578125-173.820312c1.703125-30.925782 24.859375-55.796876 54.546875-60.53125zm0 0" fill="#fdbd40"/><path d="m444.929688 160.125c-2.300782-41.753906-43.039063-70.625-83.289063-58.679688 12.394531 11.109376 20.523437 26.925782 21.507813 44.765626l9.578124 173.820312h61.015626zm0 0" fill="#fff69a"/><path d="m384.175781 146.210938c-2.652343-48.125-55.113281-76.640626-96.878906-52.890626 18.601563 10.578126 31.523437 30.085938 32.777344 52.890626l9.578125 173.820312h64.101562zm0 0" fill="#ffd782"/><path d="m191.449219 146.210938-9.578125 173.820312h148.8125l-9.578125-173.820312c-1.894531-34.417969-30.359375-61.355469-64.828125-61.355469-34.472656 0-62.933594 26.9375-64.828125 61.355469zm0 0" fill="#fdbd40"/><path d="m266.578125 85.6875c-38.3125-6.121094-73.023437 22.289062-75.128906 60.523438l-9.578125 173.820312h20.605468l9.578126-173.820312c1.703124-30.917969 24.847656-55.785157 54.523437-60.523438zm0 0" fill="#f2aa2a"/><path d="m44.730469 368.445312c9.964843 15.828126 26.558593 25.304688 44.304687 25.304688h333.933594c17.746094 0 34.339844-9.476562 44.304688-25.304688zm0 0" fill="#b7e9f9"/><path d="m67.226562 368.445312h-22.496093c9.964843 15.828126 26.558593 25.304688 44.304687 25.304688h22.496094c-17.75 0-34.339844-9.476562-44.304688-25.304688zm0 0" fill="#87cee9"/><path d="m481.722656 370.273438h-451.445312c-3.554688 0-6.878906-1.820313-8.878906-4.851563l-19.527344-29.671875c-4.835938-7.34375.269531-17.273438 8.878906-17.273438h490.5c8.613281 0 13.714844 9.929688 8.878906 17.273438l-19.527344 29.671875c-1.996093 3.03125-5.324218 4.851563-8.878906 4.851563zm0 0" fill="#d7f7ff"/><path d="m42.003906 365.421875-19.527344-29.671875c-4.835937-7.34375.265626-17.273438 8.878907-17.273438h-20.605469c-8.609375 0-13.714844 9.929688-8.878906 17.273438l19.53125 29.671875c1.996094 3.03125 5.320312 4.851563 8.878906 4.851563h20.601562c-3.554687 0-6.882812-1.820313-8.878906-4.851563zm0 0" fill="#b7e9f9"/></svg>