<svg viewBox="-13 0 512 512.00081" xmlns="http://www.w3.org/2000/svg"><path d="m260.496094 17.019531c-3.621094-2.136719-8.269532-.960937-10.402344 2.664063-.148438.238281-2.890625 4.585937-7.761719 6.59375-5.140625-13.546875-10.960937-22.289063-11.394531-22.929688-2.355469-3.484375-7.089844-4.394531-10.570312-2.039062-3.484376 2.355468-4.394532 7.085937-2.039063 10.570312.105469.15625 6.792969 10.195313 11.675781 25.238282.003906.015624.011719.03125.015625.046874 2.804688 8.664063 5.011719 18.976563 5.011719 30.027344 0 4.203125 3.410156 7.613282 7.613281 7.613282s7.613281-3.410157 7.613281-7.613282c0-9.4375-1.363281-18.34375-3.355468-26.355468 10.519531-3.8125 15.988281-12.878907 16.273437-13.367188 2.132813-3.621094.945313-8.316406-2.679687-10.449219zm0 0" fill="#d3843d"/><path d="m403.867188 471.082031h-321.535157c-11.148437 0-20.183593 9.160157-20.183593 20.460938 0 11.296875 9.035156 20.457031 20.183593 20.457031h321.535157c11.144531 0 20.179687-9.160156 20.179687-20.457031 0-11.300781-9.035156-20.460938-20.179687-20.460938zm0 0" fill="#b7e9f9"/><path d="m82.449219 491.542969c0-11.300781 9.035156-20.460938 20.179687-20.460938h-20.296875c-11.148437 0-20.183593 9.160157-20.183593 20.460938 0 11.296875 9.035156 20.457031 20.183593 20.457031h20.296875c-11.144531 0-20.179687-9.160156-20.179687-20.457031zm0 0" fill="#87cee9"/><path d="m366 147.917969h-245.804688c-12.507812 0-23.066406 9.296875-24.652343 21.703125l-33.394531 261.652344h361.898437l-33.394531-261.652344c-1.582032-12.40625-12.144532-21.703125-24.652344-21.703125zm0 0" fill="#ffd782"/><path d="m141.097656 147.917969h-20.902344c-12.507812 0-23.066406 9.296875-24.652343 21.703125l-33.394531 261.652344h20.902343l33.398438-261.652344c1.582031-12.40625 12.140625-21.703125 24.648437-21.703125zm0 0" fill="#fdbd40"/><path d="m126.941406 318.171875c1.558594-2.390625 4.980469-2.386719 6.542969.007813 24.339844 37.328124 78.226563 38.636718 104.414063 2.789062 2.589843-3.546875 7.808593-3.546875 10.398437 0 25.507813 34.914062 77.46875 34.714844 102.726563-.324219 2.445312-3.394531 7.464843-3.414062 9.910156-.023437 11.675781 16.210937 30.789062 26.671875 52.359375 26.386718l-22.640625-177.386718c-1.582032-12.40625-12.144532-21.703125-24.652344-21.703125h-245.804688c-12.507812 0-23.066406 9.296875-24.652343 21.703125l-22.640625 177.398437c22.640625.300781 42.570312-11.25 54.039062-28.847656zm0 0" fill="#9c2d20"/><path d="m94.238281 343.640625 22.210938-174.019531c1.582031-12.40625 12.140625-21.703125 24.652343-21.703125h-20.90625c-12.496093 0-23.066406 9.285156-24.648437 21.703125l-22.644531 177.398437c7.476562.097657 14.65625-1.101562 21.335937-3.378906zm0 0" fill="#8c271f"/><path d="m126.941406 210.886719c1.558594-2.394531 4.980469-2.386719 6.542969.003906 24.339844 37.328125 78.226563 38.640625 104.414063 2.792969 2.589843-3.546875 7.808593-3.546875 10.398437 0 25.507813 34.910156 77.464844 34.714844 102.726563-.328125 2.445312-3.394531 7.464843-3.414063 9.910156-.019531 9.101562 12.632812 22.722656 21.765624 38.496094 25.054687l-8.777344-68.769531c-1.582032-12.40625-12.144532-21.703125-24.652344-21.703125h-245.804688c-12.507812 0-23.066406 9.296875-24.652343 21.703125l-8.777344 68.789062c16.78125-3.496094 31.117187-13.628906 40.175781-27.523437zm0 0" fill="#ea5471"/><path d="m108.851562 229.136719 7.597657-59.515625c1.582031-12.40625 12.140625-21.703125 24.648437-21.703125h-20.902344c-.070312 0-.136718.011719-.203124.011719-12.433594.101562-22.875 9.371093-24.449219 21.695312l-8.777344 68.789062c8.027344-1.675781 15.488281-4.882812 22.085937-9.277343zm0 0" fill="#da1c4b"/><path d="m283.460938 107.554688c0 22.292968-18.070313 40.363281-40.363282 40.363281-22.292968 0-40.363281-18.070313-40.363281-40.363281 0-22.292969 18.070313-40.363282 40.363281-40.363282 22.292969 0 40.363282 18.070313 40.363282 40.363282zm0 0" fill="#da1c4b"/><path d="m223.03125 107.554688c0-18.785157 12.835938-34.574219 30.214844-39.074219-3.242188-.839844-6.644532-1.289063-10.148438-1.289063-22.292968 0-40.363281 18.070313-40.363281 40.363282 0 22.292968 18.070313 40.363281 40.363281 40.363281 3.503906 0 6.90625-.445313 10.148438-1.289063-17.378906-4.5-30.214844-20.289062-30.214844-39.074218zm0 0" fill="#bf0443"/><path d="m480.640625 430.316406h-475.082031c-3.535156 0-6.195313 3.347656-5.425782 6.875 4.316407 19.714844 21.507813 34.445313 42.0625 34.445313h401.804688c20.558594 0 37.746094-14.730469 42.0625-34.445313.773438-3.527344-1.890625-6.875-5.421875-6.875zm0 0" fill="#d7f7ff"/><path d="m20.433594 437.191406c-.773438-3.527344 1.890625-6.875 5.421875-6.875h-20.296875c-3.535156 0-6.195313 3.347656-5.425782 6.875 4.316407 19.714844 21.507813 34.445313 42.0625 34.445313h20.300782c-20.558594 0-37.75-14.730469-42.0625-34.445313zm0 0" fill="#b7e9f9"/></svg>