<svg viewBox="-74 0 512 512" xmlns="http://www.w3.org/2000/svg"><path d="m259.644531 51.152344h-155.003906s-.4375 32.835937-18.300781 42.5h191.605468c-17.867187-9.664063-18.300781-42.5-18.300781-42.5zm0 0" fill="#b7e9f9"/><path d="m125.628906 51.152344h-20.988281s-.4375 32.835937-18.300781 42.5h20.988281c17.867187-9.664063 18.300781-42.5 18.300781-42.5zm0 0" fill="#87cee9"/><path d="m318.3125 90.199219h-272.339844c-25.285156 0-45.972656 20.6875-45.972656 45.972656v329.855469c0 25.285156 20.6875 45.972656 45.972656 45.972656h272.339844c25.28125 0 45.96875-20.6875 45.96875-45.972656v-329.855469c0-25.285156-20.6875-45.972656-45.96875-45.972656zm0 0" fill="#d7f7ff"/><path d="m20.605469 466.027344v-329.855469c0-25.285156 20.6875-45.972656 45.96875-45.972656h-20.601563c-25.285156 0-45.972656 20.6875-45.972656 45.972656v329.855469c0 25.285156 20.6875 45.972656 45.972656 45.972656h20.601563c-25.285157 0-45.96875-20.6875-45.96875-45.972656zm0 0" fill="#b7e9f9"/><path d="m.292969 471.148438c2.570312 22.898437 22.125 40.851562 45.679687 40.851562h272.339844c23.550781 0 43.105469-17.953125 45.675781-40.851562zm0 0" fill="#b7e9f9"/><path d="m20.898438 471.148438h-20.605469c2.585937 23.019531 22.273437 40.851562 45.679687 40.851562h20.601563c-23.550781 0-43.105469-17.953125-45.675781-40.851562zm0 0" fill="#87cee9"/><path d="m353.765625 386.382812c0 46.816407-37.953125 84.765626-84.765625 84.765626-46.816406 0-84.765625-37.949219-84.765625-84.765626 0-46.8125 37.949219-84.765624 84.765625-84.765624 46.8125 0 84.765625 37.953124 84.765625 84.765624zm0 0" fill="#d3843d"/><path d="m184.234375 386.382812c0 46.816407 37.949219 84.765626 84.765625 84.765626 1.503906 0 2.996094-.042969 4.480469-.121094 25.882812-19.214844 42.6875-50.003906 42.6875-84.644532 0-34.640624-16.804688-65.429687-42.6875-84.644531-1.484375-.078125-2.976563-.121093-4.480469-.121093-46.816406 0-84.765625 37.953124-84.765625 84.765624zm0 0" fill="#c65c38"/><path d="m352.605469 372.445312c-2.488281-15.03125-8.914063-28.738281-18.210938-39.996093-10.515625 1.957031-18.480469 11.164062-18.480469 22.25 0 12.507812 10.140626 22.648437 22.648438 22.648437 5.308594 0 10.179688-1.839844 14.042969-4.902344zm0 0" fill="#c65c38"/><path d="m129.898438 0h53.445312v52.835938h-53.445312zm0 0" fill="#da1c4b"/><path d="m129.898438 32.222656h53.445312v20.613282h-53.445312zm0 0" fill="#bf0443"/><path d="m182.289062 0h52.265626v52.835938h-52.265626zm0 0" fill="#ea5471"/><path d="m182.289062 32.222656h52.265626v20.613282h-52.265626zm0 0" fill="#da1c4b"/><path d="m273.757812 0h-40.03125v52.835938h40.03125c6.054688 0 10.964844-4.910157 10.964844-10.96875v-30.902344c0-6.054688-4.910156-10.964844-10.964844-10.964844zm0 0" fill="#da1c4b"/><path d="m273.757812 32.222656h-40.03125v20.613282h40.03125c6.054688 0 10.964844-4.910157 10.964844-10.96875v-20.609376c0 6.054688-4.910156 10.964844-10.964844 10.964844zm0 0" fill="#bf0443"/><path d="m90.523438 0c-6.054688 0-10.964844 4.910156-10.964844 10.964844v30.902344c0 6.058593 4.910156 10.96875 10.964844 10.96875h40.324218v-52.835938zm0 0" fill="#ea5471"/><path d="m79.558594 21.257812v20.609376c0 6.058593 4.910156 10.96875 10.964844 10.96875h40.324218v-20.613282h-40.324218c-6.054688 0-10.964844-4.910156-10.964844-10.964844zm0 0" fill="#da1c4b"/><path d="m296.285156 386.382812c0 46.816407-37.949218 84.765626-84.765625 84.765626-46.8125 0-84.761719-37.949219-84.761719-84.765626 0-46.8125 37.949219-84.765624 84.761719-84.765624 46.816407 0 84.765625 37.953124 84.765625 84.765624zm0 0" fill="#d3843d"/><path d="m126.753906 386.382812c0 48.390626 40.515625 87.183594 89.25 84.644532 25.882813-19.214844 42.6875-50.003906 42.6875-84.644532 0-34.640624-16.804687-65.429687-42.6875-84.644531-1.484375-.078125-2.980468-.121093-4.484375-.121093-46.8125 0-84.765625 37.953124-84.765625 84.765624zm0 0" fill="#c65c38"/><path d="m237.363281 386.382812c0 46.816407-37.949219 84.765626-84.765625 84.765626-46.8125 0-84.761718-37.949219-84.761718-84.765626 0-46.8125 37.949218-84.765624 84.761718-84.765624 46.816406 0 84.765625 37.953124 84.765625 84.765624zm0 0" fill="#d3843d"/><path d="m67.835938 386.382812c0 48.390626 40.515624 87.183594 89.246093 84.644532 25.882813-19.214844 42.6875-50.003906 42.6875-84.644532 0-34.640624-16.804687-65.429687-42.6875-84.644531-1.484375-.078125-2.980469-.121093-4.480469-.121093-46.816406 0-84.765624 37.953124-84.765624 84.765624zm0 0" fill="#c65c38"/><path d="m217.601562 403.199219c-12.402343 0-22.453124 10.054687-22.453124 22.453125 0 10.304687 6.949218 18.964844 16.40625 21.605468 10.382812-10.058593 18.195312-22.738281 22.375-36.988281-4.09375-4.34375-9.886719-7.070312-16.328126-7.070312zm0 0" fill="#c65c38"/><path d="m336.519531 354.699219c0-4.972657 1.613281-9.5625 4.332031-13.296875-1.957031-3.128906-4.117187-6.117188-6.457031-8.953125-10.515625 1.957031-18.480469 11.167969-18.480469 22.25 0 12.507812 10.140626 22.648437 22.648438 22.648437 3.703125 0 7.1875-.914062 10.273438-2.496094-7.3125-3.753906-12.316407-11.367187-12.316407-20.152343zm0 0" fill="#9c2d20"/><path d="m215.753906 425.652344c0-8.679688 4.929688-16.203125 12.136719-19.941406-3.078125-1.601563-6.574219-2.511719-10.289063-2.511719-12.398437 0-22.453124 10.054687-22.453124 22.453125 0 10.304687 6.949218 18.964844 16.40625 21.605468 2.902343-2.808593 5.59375-5.832031 8.074218-9.03125-2.4375-3.585937-3.875-7.90625-3.875-12.574218zm0 0" fill="#9c2d20"/><path d="m179.164062 386.382812c0 46.816407-37.949218 84.765626-84.765624 84.765626-46.8125 0-84.761719-37.949219-84.761719-84.765626 0-46.8125 37.949219-84.765624 84.761719-84.765624 46.816406 0 84.765624 37.953124 84.765624 84.765624zm0 0" fill="#d3843d"/><g fill="#c65c38"><path d="m30.238281 386.382812c0-43.324218 32.511719-79.03125 74.464844-84.121093-3.378906-.410157-6.8125-.644531-10.304687-.644531-46.8125 0-84.761719 37.953124-84.761719 84.765624s37.949219 84.765626 84.761719 84.765626c3.492187 0 6.925781-.238282 10.304687-.644532-41.953125-5.085937-74.464844-40.796875-74.464844-84.121094zm0 0"/><path d="m139.253906 406.707031c0 9.574219-7.761718 17.339844-17.335937 17.339844-9.578125 0-17.339844-7.765625-17.339844-17.339844s7.761719-17.339843 17.339844-17.339843c9.574219 0 17.335937 7.765624 17.335937 17.339843zm0 0"/><path d="m169.375 346.839844c-7.898438-14.941406-20.121094-27.242188-35.019531-35.21875-5.835938 4.582031-9.597657 11.683594-9.597657 19.679687 0 13.820313 11.203126 25.023438 25.023438 25.023438 7.945312 0 15.007812-3.710938 19.59375-9.484375zm0 0"/></g><path d="m145.363281 331.296875c0-3.84375.875-7.476563 2.429688-10.730469-4.171875-3.386718-8.664063-6.390625-13.4375-8.945312-5.835938 4.582031-9.597657 11.683594-9.597657 19.679687 0 13.820313 11.203126 25.023438 25.023438 25.023438 3.675781 0 7.15625-.800781 10.292969-2.222657-8.675781-3.933593-14.710938-12.660156-14.710938-22.804687zm0 0" fill="#9c2d20"/><path d="m72.234375 380.265625c0 8.324219-6.746094 15.070313-15.070313 15.070313-8.320312 0-15.066406-6.746094-15.066406-15.070313 0-8.320313 6.746094-15.066406 15.066406-15.066406 8.324219 0 15.070313 6.746093 15.070313 15.066406zm0 0" fill="#c65c38"/><path d="m125.398438 406.707031c0-5.664062 2.730468-10.675781 6.929687-13.839843-2.902344-2.1875-6.5-3.496094-10.410156-3.496094-9.574219 0-17.339844 7.761718-17.339844 17.335937s7.761719 17.339844 17.339844 17.339844c3.910156 0 7.507812-1.3125 10.410156-3.496094-4.199219-3.167969-6.929687-8.179687-6.929687-13.84375zm0 0" fill="#9c2d20"/><path d="m62.917969 380.265625c0-4.277344 1.792969-8.132813 4.65625-10.875-2.703125-2.589844-6.367188-4.191406-10.410157-4.191406-8.320312 0-15.066406 6.746093-15.066406 15.066406 0 8.324219 6.746094 15.070313 15.066406 15.070313 4.042969 0 7.707032-1.601563 10.410157-4.191407-2.863281-2.742187-4.65625-6.597656-4.65625-10.878906zm0 0" fill="#9c2d20"/><path d="m51.371094 429.84375c-9.039063 0-16.597656 6.265625-18.617188 14.6875 8.207032 8.695312 18.222656 15.65625 29.460938 20.273438 15.402344-10.585938 7.996094-34.960938-10.84375-34.960938zm0 0" fill="#c65c38"/><path d="m43.332031 431.617188c-5.242187 2.433593-9.199219 7.171874-10.578125 12.914062 14.167969 14.875 29.460938 20.277344 29.460938 20.277344 2.738281-1.886719 4.960937-4.464844 6.421875-7.484375-10.167969-6.652344-18.804688-15.4375-25.304688-25.707031zm0 0" fill="#9c2d20"/></svg>