<svg viewBox="-74 0 512 512" xmlns="http://www.w3.org/2000/svg"><path d="m259.644531 51.152344c-6.804687 0-148.199219 0-155.003906 0 0 0-.4375 32.835937-18.300781 42.5h191.605468c-17.867187-9.664063-18.300781-42.5-18.300781-42.5zm0 0" fill="#b7e9f9"/><path d="m125.628906 51.152344h-20.988281s-.4375 32.835937-18.300781 42.5h20.988281c17.867187-9.664063 18.300781-42.5 18.300781-42.5zm0 0" fill="#87cee9"/><path d="m318.3125 90.199219h-272.339844c-25.285156 0-45.972656 20.6875-45.972656 45.972656v329.855469c0 25.285156 20.6875 45.972656 45.972656 45.972656h272.339844c25.28125 0 45.96875-20.6875 45.96875-45.972656v-329.855469c0-25.285156-20.6875-45.972656-45.96875-45.972656zm0 0" fill="#d7f7ff"/><path d="m20.605469 466.027344v-329.855469c0-25.285156 20.683593-45.972656 45.96875-45.972656h-20.601563c-25.285156 0-45.972656 20.6875-45.972656 45.972656v329.855469c0 25.285156 20.6875 45.972656 45.972656 45.972656h20.601563c-25.285157 0-45.96875-20.6875-45.96875-45.972656zm0 0" fill="#b7e9f9"/><path d="m.292969 471.148438c2.570312 22.898437 22.125 40.851562 45.679687 40.851562h272.339844c23.550781 0 43.105469-17.953125 45.675781-40.851562zm0 0" fill="#b7e9f9"/><path d="m20.898438 471.148438h-20.605469c2.585937 23.046874 22.285156 40.851562 45.679687 40.851562h20.601563c-23.550781 0-43.105469-17.953125-45.675781-40.851562zm0 0" fill="#87cee9"/><path d="m129.898438 0h53.445312v52.835938h-53.445312zm0 0" fill="#1695b7"/><path d="m129.898438 32.222656h53.445312v20.613282h-53.445312zm0 0" fill="#10819b"/><path d="m182.289062 0h52.265626v52.835938h-52.265626zm0 0" fill="#32b1cc"/><path d="m182.289062 32.222656h52.265626v20.613282h-52.265626zm0 0" fill="#1695b7"/><path d="m273.757812 0h-40.03125v52.835938h40.03125c6.054688 0 10.964844-4.910157 10.964844-10.96875v-30.902344c0-6.054688-4.910156-10.964844-10.964844-10.964844zm0 0" fill="#1695b7"/><path d="m273.757812 32.222656h-40.03125v20.613282h40.03125c6.054688 0 10.964844-4.910157 10.964844-10.96875v-20.609376c0 6.054688-4.910156 10.964844-10.964844 10.964844zm0 0" fill="#10819b"/><path d="m90.523438 0c-6.054688 0-10.964844 4.910156-10.964844 10.964844v30.902344c0 6.058593 4.910156 10.96875 10.964844 10.96875h40.324218v-52.835938zm0 0" fill="#32b1cc"/><path d="m79.558594 21.257812v20.609376c0 6.058593 4.910156 10.96875 10.964844 10.96875h40.324218v-20.613282h-40.324218c-6.054688 0-10.964844-4.910156-10.964844-10.964844zm0 0" fill="#1695b7"/><path d="m73.09375 361.953125c0 20.101563-16.296875 36.398437-36.402344 36.398437-20.101562 0-36.398437-16.296874-36.398437-36.398437 0-20.105469 16.296875-36.398437 36.398437-36.398437 20.105469 0 36.402344 16.292968 36.402344 36.398437zm0 0" fill="#d3843d"/><path d="m20.898438 361.953125c0-16.523437 11.011718-30.46875 26.097656-34.910156-3.269532-.964844-6.722656-1.488281-10.304688-1.488281-20.101562 0-36.398437 16.296874-36.398437 36.398437s16.296875 36.398437 36.398437 36.398437c3.582032 0 7.035156-.523437 10.304688-1.488281-15.085938-4.445312-26.097656-18.386719-26.097656-34.910156zm0 0" fill="#c65c38"/><path d="m182.289062 298.941406c0 20.101563-16.296874 36.398438-36.398437 36.398438s-36.398437-16.296875-36.398437-36.398438c0-20.101562 16.296874-36.398437 36.398437-36.398437s36.398437 16.296875 36.398437 36.398437zm0 0" fill="#8ec13f"/><path d="m130.097656 298.941406c0-16.523437 11.011719-30.464844 26.09375-34.910156-3.265625-.960938-6.722656-1.488281-10.300781-1.488281-20.101563 0-36.398437 16.296875-36.398437 36.398437 0 20.105469 16.292968 36.402344 36.398437 36.402344 3.578125 0 7.035156-.527344 10.300781-1.488281-15.082031-4.449219-26.09375-18.390625-26.09375-34.914063zm0 0" fill="#7cad27"/><path d="m255.085938 298.941406c0 20.101563-16.296876 36.398438-36.398438 36.398438s-36.398438-16.296875-36.398438-36.398438c0-20.101562 16.296876-36.398437 36.398438-36.398437s36.398438 16.296875 36.398438 36.398437zm0 0" fill="#fdbd40"/><path d="m202.894531 298.941406c0-16.523437 11.011719-30.464844 26.09375-34.910156-3.265625-.960938-6.722656-1.488281-10.300781-1.488281-20.101562 0-36.398438 16.296875-36.398438 36.398437 0 20.105469 16.296876 36.402344 36.398438 36.402344 3.578125 0 7.035156-.527344 10.300781-1.488281-15.082031-4.449219-26.09375-18.390625-26.09375-34.914063zm0 0" fill="#f2aa2a"/><path d="m218.539062 236.1875c0 20.105469-16.296874 36.402344-36.398437 36.402344s-36.398437-16.296875-36.398437-36.402344c0-20.101562 16.296874-36.398438 36.398437-36.398438s36.398437 16.296876 36.398437 36.398438zm0 0" fill="#32b1cc"/><path d="m166.347656 236.1875c0-16.523438 11.011719-30.464844 26.09375-34.910156-3.265625-.960938-6.722656-1.488282-10.300781-1.488282-20.101563 0-36.398437 16.296876-36.398437 36.402344 0 20.101563 16.296874 36.398438 36.398437 36.398438 3.582031 0 7.035156-.527344 10.300781-1.488282-15.082031-4.445312-26.09375-18.390624-26.09375-34.914062zm0 0" fill="#1695b7"/><path d="m327.882812 298.941406c0 20.101563-16.296874 36.398438-36.398437 36.398438s-36.398437-16.296875-36.398437-36.398438c0-20.101562 16.296874-36.398437 36.398437-36.398437s36.398437 16.296875 36.398437 36.398437zm0 0" fill="#ea5471"/><path d="m275.691406 298.941406c0-16.523437 11.011719-30.464844 26.09375-34.910156-3.265625-.960938-6.722656-1.488281-10.300781-1.488281-20.101563 0-36.398437 16.296875-36.398437 36.398437 0 20.105469 16.296874 36.402344 36.398437 36.402344 3.582031 0 7.035156-.527344 10.300781-1.488281-15.082031-4.449219-26.09375-18.390625-26.09375-34.914063zm0 0" fill="#da1c4b"/><path d="m73.09375 434.75c0 20.101562-16.296875 36.398438-36.402344 36.398438-20.101562 0-36.398437-16.296876-36.398437-36.398438s16.296875-36.398438 36.398437-36.398438c20.105469 0 36.402344 16.296876 36.402344 36.398438zm0 0" fill="#c65c38"/><path d="m20.898438 434.75c0-16.523438 11.011718-30.464844 26.097656-34.910156-3.269532-.960938-6.722656-1.488282-10.304688-1.488282-20.101562 0-36.398437 16.296876-36.398437 36.398438 0 20.105469 16.296875 36.398438 36.398437 36.398438 3.582032 0 7.035156-.523438 10.304688-1.488282-15.085938-4.445312-26.097656-18.386718-26.097656-34.910156zm0 0" fill="#9c2d20"/><path d="m364.28125 361.953125c0 20.101563-16.292969 36.398437-36.398438 36.398437-20.101562 0-36.398437-16.296874-36.398437-36.398437 0-20.105469 16.296875-36.398437 36.398437-36.398437 20.105469 0 36.398438 16.292968 36.398438 36.398437zm0 0" fill="#c65c38"/><path d="m312.089844 361.953125c0-16.523437 11.011718-30.46875 26.097656-34.910156-3.269531-.964844-6.722656-1.488281-10.304688-1.488281-20.101562 0-36.398437 16.296874-36.398437 36.398437s16.296875 36.398437 36.398437 36.398437c3.582032 0 7.035157-.523437 10.304688-1.488281-15.085938-4.445312-26.097656-18.386719-26.097656-34.910156zm0 0" fill="#9c2d20"/><path d="m291.484375 361.953125c0 20.101563-16.296875 36.398437-36.398437 36.398437-20.101563 0-36.398438-16.296874-36.398438-36.398437 0-20.105469 16.296875-36.398437 36.398438-36.398437 20.101562 0 36.398437 16.292968 36.398437 36.398437zm0 0" fill="#32b1cc"/><path d="m239.292969 361.953125c0-16.523437 11.011719-30.46875 26.09375-34.910156-3.265625-.964844-6.722657-1.488281-10.300781-1.488281-20.101563 0-36.398438 16.296874-36.398438 36.398437s16.296875 36.398437 36.398438 36.398437c3.578124 0 7.035156-.523437 10.300781-1.488281-15.082031-4.445312-26.09375-18.386719-26.09375-34.910156zm0 0" fill="#1695b7"/><path d="m145.890625 434.75c0 20.101562-16.296875 36.398438-36.398437 36.398438-20.105469 0-36.398438-16.296876-36.398438-36.398438s16.292969-36.398438 36.398438-36.398438c20.101562 0 36.398437 16.296876 36.398437 36.398438zm0 0" fill="#32b1cc"/><path d="m93.695312 434.75c0-16.523438 11.015626-30.464844 26.097657-34.910156-3.269531-.960938-6.722657-1.488282-10.300781-1.488282-20.101563 0-36.398438 16.296876-36.398438 36.398438 0 20.105469 16.292969 36.398438 36.398438 36.398438 3.578124 0 7.035156-.523438 10.300781-1.488282-15.082031-4.445312-26.097657-18.386718-26.097657-34.910156zm0 0" fill="#1695b7"/><path d="m364.28125 434.75c0 20.101562-16.292969 36.398438-36.398438 36.398438-20.101562 0-36.398437-16.296876-36.398437-36.398438s16.296875-36.398438 36.398437-36.398438c20.105469 0 36.398438 16.296876 36.398438 36.398438zm0 0" fill="#fdbd40"/><path d="m312.089844 434.75c0-16.523438 11.011718-30.464844 26.097656-34.910156-3.269531-.960938-6.722656-1.488282-10.304688-1.488282-20.101562 0-36.398437 16.296876-36.398437 36.398438s16.296875 36.398438 36.398437 36.398438c3.582032 0 7.035157-.523438 10.304688-1.488282-15.085938-4.445312-26.097656-18.386718-26.097656-34.910156zm0 0" fill="#f2aa2a"/><path d="m145.890625 361.953125c0 20.101563-16.296875 36.398437-36.398437 36.398437-20.105469 0-36.398438-16.296874-36.398438-36.398437 0-20.105469 16.292969-36.398437 36.398438-36.398437 20.101562 0 36.398437 16.292968 36.398437 36.398437zm0 0" fill="#fdbd40"/><path d="m93.695312 361.953125c0-16.523437 11.015626-30.46875 26.097657-34.910156-3.269531-.964844-6.722657-1.488281-10.300781-1.488281-20.105469 0-36.398438 16.296874-36.398438 36.398437s16.292969 36.398437 36.398438 36.398437c3.578124 0 7.035156-.523437 10.300781-1.488281-15.082031-4.445312-26.097657-18.386719-26.097657-34.910156zm0 0" fill="#f2aa2a"/><path d="m218.6875 434.75c0 20.101562-16.296875 36.398438-36.398438 36.398438-20.105468 0-36.398437-16.296876-36.398437-36.398438s16.292969-36.398438 36.398437-36.398438c20.101563 0 36.398438 16.296876 36.398438 36.398438zm0 0" fill="#8ec13f"/><path d="m166.496094 434.75c0-16.523438 11.011718-30.464844 26.09375-34.910156-3.265625-.960938-6.722656-1.488282-10.300782-1.488282-20.101562 0-36.398437 16.296876-36.398437 36.398438s16.296875 36.398438 36.398437 36.398438c3.578126 0 7.035157-.523438 10.300782-1.488282-15.082032-4.445312-26.09375-18.386718-26.09375-34.910156zm0 0" fill="#7cad27"/><path d="m218.539062 361.953125c0 20.101563-16.296874 36.398437-36.398437 36.398437s-36.398437-16.296874-36.398437-36.398437c0-20.105469 16.296874-36.398437 36.398437-36.398437s36.398437 16.292968 36.398437 36.398437zm0 0" fill="#ea5471"/><path d="m166.347656 361.953125c0-16.523437 11.011719-30.46875 26.09375-34.910156-3.265625-.964844-6.722656-1.488281-10.300781-1.488281-20.101563 0-36.398437 16.296874-36.398437 36.398437s16.296874 36.398437 36.398437 36.398437c3.582031 0 7.035156-.523437 10.300781-1.488281-15.082031-4.445312-26.09375-18.386719-26.09375-34.910156zm0 0" fill="#da1c4b"/><path d="m291.484375 434.75c0 20.101562-16.296875 36.398438-36.398437 36.398438-20.101563 0-36.398438-16.296876-36.398438-36.398438s16.296875-36.398438 36.398438-36.398438c20.101562 0 36.398437 16.296876 36.398437 36.398438zm0 0" fill="#ea5471"/><path d="m239.292969 434.75c0-16.523438 11.011719-30.464844 26.09375-34.910156-3.265625-.960938-6.722657-1.488282-10.300781-1.488282-20.101563 0-36.398438 16.296876-36.398438 36.398438s16.296875 36.398438 36.398438 36.398438c3.578124 0 7.035156-.523438 10.300781-1.488282-15.082031-4.445312-26.09375-18.386718-26.09375-34.910156zm0 0" fill="#da1c4b"/></svg>