<svg viewBox="-74 0 512 512" xmlns="http://www.w3.org/2000/svg"><path d="m259.644531 51.152344h-155.003906s-.4375 32.835937-18.300781 42.5h191.605468c-17.867187-9.664063-18.300781-42.5-18.300781-42.5zm0 0" fill="#b7e9f9"/><path d="m125.628906 51.152344h-20.988281s-.4375 32.835937-18.300781 42.5h20.988281c17.867187-9.664063 18.300781-42.5 18.300781-42.5zm0 0" fill="#87cee9"/><path d="m318.3125 90.199219h-272.339844c-25.285156 0-45.972656 20.6875-45.972656 45.972656v329.855469c0 25.285156 20.6875 45.972656 45.972656 45.972656h272.339844c25.28125 0 45.96875-20.6875 45.96875-45.972656v-329.855469c0-25.285156-20.6875-45.972656-45.96875-45.972656zm0 0" fill="#d7f7ff"/><path d="m20.605469 466.027344v-329.855469c0-25.285156 20.6875-45.972656 45.96875-45.972656h-20.601563c-25.285156 0-45.972656 20.6875-45.972656 45.972656v329.855469c0 25.285156 20.6875 45.972656 45.972656 45.972656h20.601563c-25.285157 0-45.96875-20.6875-45.96875-45.972656zm0 0" fill="#b7e9f9"/><path d="m.292969 471.148438c2.570312 22.898437 22.125 40.851562 45.679687 40.851562h272.339844c23.550781 0 43.105469-17.953125 45.675781-40.851562zm0 0" fill="#b7e9f9"/><path d="m20.898438 471.148438h-20.605469c2.570312 22.886718 22.125 40.851562 45.679687 40.851562h20.601563c-23.550781 0-43.105469-17.953125-45.675781-40.851562zm0 0" fill="#87cee9"/><path d="m129.898438 0h53.445312v52.835938h-53.445312zm0 0" fill="#7cad27"/><path d="m129.898438 32.222656h53.445312v20.613282h-53.445312zm0 0" fill="#6b9618"/><path d="m182.289062 0h52.265626v52.835938h-52.265626zm0 0" fill="#8ec13f"/><path d="m182.289062 32.222656h52.265626v20.613282h-52.265626zm0 0" fill="#7cad27"/><path d="m273.757812 0h-40.03125v52.835938h40.03125c6.054688 0 10.964844-4.910157 10.964844-10.96875v-30.902344c0-6.054688-4.910156-10.964844-10.964844-10.964844zm0 0" fill="#7cad27"/><path d="m273.757812 32.222656h-40.03125v20.613282h40.03125c6.054688 0 10.964844-4.910157 10.964844-10.96875v-20.609376c0 6.054688-4.910156 10.964844-10.964844 10.964844zm0 0" fill="#6b9618"/><path d="m90.523438 0c-6.054688 0-10.964844 4.910156-10.964844 10.964844v30.902344c0 6.058593 4.910156 10.96875 10.964844 10.96875h40.324218v-52.835938zm0 0" fill="#8ec13f"/><path d="m79.558594 21.257812v20.609376c0 6.058593 4.910156 10.96875 10.964844 10.96875h40.324218v-20.613282h-40.324218c-6.054688 0-10.964844-4.910156-10.964844-10.964844zm0 0" fill="#7cad27"/><path d="m167.816406 311.691406c-10.007812 0-18.125-8.113281-18.125-18.125 0-9.304687 7.019532-18.125 19.308594-18.125 9.683594 0 18.773438-5.167968 23.71875-13.492187 5.117188-8.601563 16.238281-11.429688 24.84375-6.316407 8.601562 5.117188 11.429688 16.238282 6.316406 24.84375-11.023437 18.535157-31.253906 31.214844-56.0625 31.214844zm0 0" fill="#fdbd40"/><path d="m177.722656 353.933594c10.011719 0 18.125-8.113282 18.125-18.125 0-10.007813-8.117187-18.125-18.125-18.125-11.710937 0-20.191406-5.566406-24.902344-13.492188-5.117187-8.605468-16.234374-11.433594-24.839843-6.316406s-11.433594 16.238281-6.316407 24.84375c11.019532 18.535156 31.25 31.214844 56.058594 31.214844zm0 0" fill="#32b1cc"/><path d="m142.003906 322.71875c-4.929687-8.289062-2.46875-18.902344 5.414063-24.242188-5.636719-3.824218-13.195313-4.3125-19.4375-.601562-8.605469 5.117188-11.433594 16.238281-6.320313 24.84375 17.25 29.011719 51.539063 34.324219 62.675782 29.953125-17.488282-3.542969-33.058594-14.351563-42.332032-29.953125zm0 0" fill="#1695b7"/><path d="m279.335938 338.195312c-10.011719 0-18.125 8.117188-18.125 18.125 0 10.011719 8.117187 18.125 18.125 18.125 11.714843 0 20.191406 5.570313 24.902343 13.496094 5.117188 8.601563 16.238281 11.429688 24.839844 6.316406 8.605469-5.117187 11.433594-16.242187 6.316406-24.84375-11.019531-18.535156-31.25-31.21875-56.058593-31.21875zm0 0" fill="#fdbd40"/><path d="m189.601562 275.441406c9.683594 0 18.773438-5.167968 23.722657-13.492187 1.375-2.3125 3.191406-4.191407 5.269531-5.628907-.339844-.230468-.671875-.472656-1.035156-.6875-8.601563-5.113281-19.722656-2.285156-24.839844 6.316407-4.738281 7.972656-13.230469 13.492187-24.902344 13.492187-10.007812 0-18.125 8.117188-18.125 18.125 0 9.304688 7.019532 18.125 19.304688 18.125 4.3125 0 8.566406-.445312 12.714844-1.296875-17.890626-7.140625-14.300782-34.953125 7.890624-34.953125zm0 0" fill="#f2aa2a"/><path d="m324.84375 387.941406c-4.949219-8.324218-14.039062-13.496094-23.722656-13.496094-12.40625 0-19.304688-8.957031-19.304688-18.125 0-7.636718 4.730469-14.15625 11.414063-16.824218-5.332031-1.097656-9.425781-1.300782-13.894531-1.300782-10.007813 0-18.125 8.117188-18.125 18.125 0 10.011719 8.117187 18.125 18.125 18.125 11.714843 0 20.191406 5.570313 24.902343 13.496094 5.117188 8.601563 16.238281 11.429688 24.839844 6.316406.363281-.214843.695313-.453124 1.035156-.691406-2.078125-1.433594-3.894531-3.3125-5.269531-5.625zm0 0" fill="#f2aa2a"/><path d="m80.390625 393.640625c-10.007813 0-18.125-8.113281-18.125-18.125 0-9.304687 7.015625-18.125 19.304687-18.125 9.6875 0 18.773438-5.167969 23.722657-13.492187 5.117187-8.605469 16.238281-11.433594 24.839843-6.316407 8.605469 5.117188 11.433594 16.238281 6.316407 24.84375-11.019531 18.535157-31.25 31.214844-56.058594 31.214844zm0 0" fill="#ea5471"/><path d="m82.871094 375.515625c0-10.007813 8.117187-18.125 18.125-18.125 11.714844 0 20.191406-5.566406 24.902344-13.492187 1.375-2.3125 3.191406-4.191407 5.269531-5.628907-.339844-.234375-.675781-.472656-1.035157-.6875-8.601562-5.117187-19.722656-2.289062-24.84375 6.316407-4.734374 7.96875-13.226562 13.492187-24.898437 13.492187-10.011719 0-18.125 8.117187-18.125 18.125 0 9.304687 7.015625 18.125 19.304687 18.125 4.308594 0 8.566407-.445313 12.714844-1.296875-6.683594-2.667969-11.414062-9.191406-11.414062-16.828125zm0 0" fill="#da1c4b"/><path d="m92.722656 471.148438c10.011719 0 18.125-8.113282 18.125-18.125 0-9.304688-7.015625-18.125-19.304687-18.125-9.683594 0-18.773438-5.167969-23.71875-13.492188-5.117188-8.605469-16.238281-11.433594-24.84375-6.316406-8.601563 5.117187-11.433594 16.238281-6.316407 24.84375 11.019532 18.535156 31.25 31.214844 56.058594 31.214844zm0 0" fill="#32b1cc"/><path d="m57.003906 439.933594c-4.929687-8.289063-2.464844-18.902344 5.417969-24.242188-5.640625-3.824218-13.199219-4.3125-19.441406-.601562-8.601563 5.117187-11.433594 16.238281-6.316407 24.84375 17.25 29.011718 51.535157 34.324218 62.671876 29.953125-17.488282-3.542969-33.054688-14.351563-42.332032-29.953125zm0 0" fill="#1695b7"/><path d="m177.722656 452.25c10.011719 0 18.125-8.117188 18.125-18.125 0-10.011719-8.117187-18.125-18.125-18.125-11.710937 0-20.191406-5.566406-24.902344-13.492188-5.117187-8.605468-16.234374-11.433593-24.839843-6.316406-8.605469 5.113282-11.433594 16.238282-6.316407 24.839844 11.019532 18.539062 31.25 31.21875 56.058594 31.21875zm0 0" fill="#8ec13f"/><path d="m142.003906 421.03125c-4.929687-8.289062-2.46875-18.898438 5.414063-24.242188-5.636719-3.824218-13.195313-4.3125-19.4375-.597656-8.605469 5.113282-11.433594 16.238282-6.320313 24.839844 17.25 29.011719 51.539063 34.328125 62.675782 29.953125-17.488282-3.539063-33.058594-14.351563-42.332032-29.953125zm0 0" fill="#7cad27"/><path d="m164.078125 216.210938c10.007813 0 18.125-8.117188 18.125-18.125 0-9.308594-7.019531-18.125-19.308594-18.125-9.683593 0-18.773437-5.171876-23.71875-13.496094-5.117187-8.601563-16.238281-11.429688-24.839843-6.316406-8.605469 5.117187-11.433594 16.242187-6.320313 24.84375 11.023437 18.535156 31.253906 31.21875 56.0625 31.21875zm0 0" fill="#8ec13f"/><path d="m128.355469 184.992188c-4.925781-8.289063-2.464844-18.902344 5.417969-24.242188-5.640626-3.824219-13.199219-4.3125-19.441407-.601562-8.601562 5.117187-11.433593 16.242187-6.316406 24.84375 17.25 29.011718 51.539063 34.324218 62.671875 29.953124-17.488281-3.542968-33.054688-14.351562-42.332031-29.953124zm0 0" fill="#7cad27"/><path d="m333.585938 471.148438c10.007812 0 18.125-8.113282 18.125-18.125 0-9.304688-7.019532-18.125-19.308594-18.125-9.683594 0-18.773438-5.167969-23.71875-13.492188-5.117188-8.605469-16.238282-11.433594-24.84375-6.316406-8.601563 5.117187-11.433594 16.238281-6.316406 24.84375 11.019531 18.535156 31.253906 31.214844 56.0625 31.214844zm0 0" fill="#8ec13f"/><path d="m297.863281 439.933594c-4.929687-8.289063-2.464843-18.902344 5.414063-24.242188-5.636719-3.824218-13.195313-4.3125-19.4375-.601562-8.605469 5.117187-11.433594 16.238281-6.316406 24.84375 17.25 29.011718 51.535156 34.324218 62.671874 29.953125-17.488281-3.542969-33.054687-14.351563-42.332031-29.953125zm0 0" fill="#7cad27"/><path d="m90.296875 351.398438c10.007813 0 18.125-8.113282 18.125-18.125 0-9.304688-7.019531-18.125-19.308594-18.125-9.683593 0-18.769531-5.167969-23.71875-13.492188-5.117187-8.601562-16.238281-11.429688-24.839843-6.316406-8.605469 5.117187-11.433594 16.238281-6.320313 24.84375 11.023437 18.535156 31.253906 31.214844 56.0625 31.214844zm0 0" fill="#c65c38"/><path d="m54.578125 320.183594c-4.929687-8.289063-2.46875-18.902344 5.414063-24.242188-5.636719-3.824218-13.195313-4.3125-19.4375-.601562-8.605469 5.117187-11.433594 16.238281-6.320313 24.84375 17.25 29.011718 51.539063 34.324218 62.675781 29.953125-17.488281-3.539063-33.058594-14.351563-42.332031-29.953125zm0 0" fill="#9c2d20"/><path d="m216.367188 343.53125c-10.011719 0-18.125-8.117188-18.125-18.125 0-9.308594 7.015624-18.125 19.304687-18.125 9.683594 0 18.773437-5.171875 23.71875-13.496094 5.117187-8.601562 16.238281-11.429687 24.84375-6.3125 8.605469 5.113282 11.433594 16.238282 6.316406 24.839844-11.019531 18.539062-31.25 31.21875-56.058593 31.21875zm0 0" fill="#ea5471"/><path d="m238.152344 307.28125c9.683594 0 18.773437-5.171875 23.71875-13.496094 1.375-2.3125 3.195312-4.191406 5.273437-5.625-.339843-.234375-.675781-.476562-1.035156-.6875-8.605469-5.117187-19.726563-2.289062-24.84375 6.3125-4.738281 7.972656-13.226563 13.496094-24.902344 13.496094-10.007812 0-18.125 8.113281-18.125 18.125 0 10.007812 8.117188 18.125 18.125 18.125 4.417969 0 8.496094-.191406 13.894531-1.300781-17.886718-7.140625-14.296874-34.949219 7.894532-34.949219zm0 0" fill="#da1c4b"/><path d="m216.367188 441.84375c-10.011719 0-18.125-8.113281-18.125-18.125 0-9.304688 7.015624-18.125 19.304687-18.125 9.683594 0 18.773437-5.167969 23.71875-13.492188 5.117187-8.605468 16.238281-11.429687 24.84375-6.316406 8.605469 5.117188 11.433594 16.238282 6.316406 24.84375-11.019531 18.535156-31.25 31.214844-56.058593 31.214844zm0 0" fill="#ea5471"/><path d="m218.847656 423.71875c0-9.304688 7.015625-18.125 19.304688-18.125 9.683594 0 18.773437-5.167969 23.71875-13.492188 1.375-2.3125 3.195312-4.191406 5.273437-5.628906-.339843-.234375-.675781-.472656-1.035156-.6875-8.605469-5.113281-19.726563-2.289062-24.84375 6.316406-4.738281 7.972657-13.226563 13.492188-24.902344 13.492188-10.007812 0-18.125 8.117188-18.125 18.125 0 9.308594 7.019531 18.125 19.308594 18.125 4.308594 0 8.5625-.445312 12.714844-1.296875-6.6875-2.667969-11.414063-9.191406-11.414063-16.828125zm0 0" fill="#da1c4b"/><path d="m168.996094 410.007812c-12.1875 0-19.304688-8.734374-19.304688-18.125 0-10.011718 8.117188-18.125 18.125-18.125 11.714844 0 20.191406-5.566406 24.902344-13.492187 5.117188-8.605469 16.238281-11.433594 24.839844-6.316406 8.605468 5.117187 11.433594 16.238281 6.320312 24.84375-11.449218 19.253906-32.480468 31.214843-54.882812 31.214843zm0 0" fill="#d3843d"/><path d="m189.601562 373.757812c9.683594 0 18.773438-5.171874 23.722657-13.492187 1.375-2.316406 3.191406-4.195313 5.269531-5.628906-.339844-.234375-.671875-.476563-1.035156-.6875-8.601563-5.117188-19.722656-2.289063-24.839844 6.316406-4.738281 7.96875-13.230469 13.492187-24.902344 13.492187-10.011718 0-18.125 8.113282-18.125 18.125 0 9.304688 7.015625 18.125 19.304688 18.125 4.308594 0 8.566406-.449218 12.714844-1.296874-17.890626-7.144532-14.300782-34.953126 7.890624-34.953126zm0 0" fill="#c65c38"/></svg>