<svg viewBox="-51 0 512 512.00056" xmlns="http://www.w3.org/2000/svg"><path d="m280.425781 364.539062c-.003906.003907-.007812.003907-.007812.003907v-.003907c-54.492188 27.40625-119.191407 27.40625-173.683594 0v.003907c-.003906 0-.003906 0-.007813-.003907l-20.644531 114.8125h214.992188zm0 0" fill="#394d5c"/><path d="m106.734375 364.539062v.003907c-.003906 0-.007813 0-.007813-.003907l-20.648437 114.8125h20.605469l19.148437-106.480468c-6.539062-2.445313-12.917969-5.222656-19.097656-8.332032zm0 0" fill="#2b3f4c"/><path d="m300.144531 477.289062h-224.128906c-8.480469 0-15.417969 6.9375-15.417969 15.417969v3.855469c0 8.476562 6.9375 15.414062 15.417969 15.414062h224.128906c8.480469 0 15.417969-6.9375 15.417969-15.414062v-3.855469c0-8.480469-6.9375-15.417969-15.417969-15.417969zm0 0" fill="#4d6777"/><path d="m300.144531 491.375c-149.339843 0-85.875 0-224.128906 0-5.394531 0-10.160156-2.816406-12.914063-7.042969-1.578124 2.417969-2.503906 5.292969-2.503906 8.375v3.855469c0 8.480469 6.9375 15.417969 15.417969 15.417969h224.128906c8.480469 0 15.417969-6.941407 15.417969-15.417969v-3.855469c0-3.082031-.925781-5.957031-2.503906-8.375-2.753906 4.226563-7.515625 7.042969-12.914063 7.042969zm0 0" fill="#394d5c"/><path d="m387.140625 193.570312c0 106.90625-86.664063 193.570313-193.570313 193.570313s-193.570312-86.664063-193.570312-193.570313 86.664062-193.570312 193.570312-193.570312 193.570313 86.664062 193.570313 193.570312zm0 0" fill="#d7f7ff"/><path d="m20.605469 193.570312c0-103.449218 81.152343-187.941406 183.269531-193.296874-3.414062-.179688-6.847656-.273438-10.304688-.273438-106.90625 0-193.570312 86.664062-193.570312 193.570312 0 110.550782 92.585938 199.136719 203.875 193.296876-102.117188-5.351563-183.269531-89.84375-183.269531-193.296876zm0 0" fill="#b7e9f9"/><path d="m264.71875 475.636719c0 20.070312-16.273438 36.34375-36.34375 36.34375-20.074219 0-36.34375-16.273438-36.34375-36.34375 0-20.074219 16.269531-36.347657 36.34375-36.347657 20.070312 0 36.34375 16.273438 36.34375 36.347657zm0 0" fill="#8ec13f"/><path d="m337.40625 475.636719c0 20.070312-16.269531 36.34375-36.34375 36.34375-20.070312 0-36.34375-16.273438-36.34375-36.34375 0-20.074219 16.273438-36.347657 36.34375-36.347657 20.074219 0 36.34375 16.273438 36.34375 36.347657zm0 0" fill="#fdbd40"/><path d="m410.097656 475.636719c0 20.070312-16.273437 36.34375-36.34375 36.34375-20.074218 0-36.34375-16.273438-36.34375-36.34375 0-20.074219 16.269532-36.347657 36.34375-36.347657 20.070313 0 36.34375 16.273438 36.34375 36.347657zm0 0" fill="#ea5471"/><path d="m212.632812 475.636719c0-16.496094 10.992188-30.414063 26.042969-34.855469-3.265625-.964844-6.722656-1.492188-10.300781-1.492188-20.074219 0-36.34375 16.273438-36.34375 36.347657 0 24.226562 23.316406 41.738281 46.644531 34.851562-15.050781-4.441406-26.042969-18.359375-26.042969-34.851562zm0 0" fill="#7cad27"/><path d="m285.324219 475.636719c0-16.496094 10.988281-30.414063 26.042969-34.855469-3.269532-.964844-6.722657-1.492188-10.304688-1.492188-20.070312 0-36.34375 16.273438-36.34375 36.347657 0 20.070312 16.273438 36.34375 36.34375 36.34375 3.582031 0 7.035156-.527344 10.304688-1.492188-15.054688-4.441406-26.042969-18.359375-26.042969-34.851562zm0 0" fill="#f2aa2a"/><path d="m358.011719 475.636719c0-16.496094 10.988281-30.414063 26.042969-34.855469-3.265626-.964844-6.722657-1.492188-10.300782-1.492188-20.074218 0-36.347656 16.273438-36.347656 36.347657 0 20.070312 16.273438 36.34375 36.347656 36.34375 3.578125 0 7.035156-.527344 10.300782-1.492188-15.054688-4.441406-26.042969-18.359375-26.042969-34.851562zm0 0" fill="#da1c4b"/><path d="m128.191406 314.363281c0 18.050781-14.632812 32.6875-32.6875 32.6875-18.054687 0-32.691406-14.636719-32.691406-32.6875 0-18.054687 14.636719-32.691406 32.691406-32.691406 18.054688 0 32.6875 14.636719 32.6875 32.691406zm0 0" fill="#8ec13f"/><path d="m105.804688 283.339844c-3.238282-1.078125-6.699219-1.667969-10.300782-1.667969-18.054687 0-32.691406 14.636719-32.691406 32.6875 0 18.054687 14.636719 32.691406 32.691406 32.691406 3.601563 0 7.0625-.589843 10.300782-1.667969-29.789063-9.886718-29.730469-52.175781 0-62.042968zm0 0" fill="#7cad27"/><path d="m258.949219 279.671875c0 18.054687-14.636719 32.691406-32.6875 32.691406-18.054688 0-32.691407-14.636719-32.691407-32.691406 0-18.050781 14.636719-32.6875 32.691407-32.6875 18.050781 0 32.6875 14.636719 32.6875 32.6875zm0 0" fill="#fdbd40"/><path d="m214.175781 279.671875c0-14.453125 9.382813-26.707031 22.386719-31.023437-3.238281-1.074219-6.703125-1.664063-10.300781-1.664063-18.054688 0-32.691407 14.636719-32.691407 32.6875 0 18.054687 14.636719 32.691406 32.691407 32.691406 3.597656 0 7.0625-.59375 10.300781-1.667969-13.003906-4.316406-22.386719-16.570312-22.386719-31.023437zm0 0" fill="#f2aa2a"/><path d="m324.328125 248.984375c0 18.050781-14.636719 32.6875-32.6875 32.6875-18.054687 0-32.691406-14.636719-32.691406-32.6875 0-18.054687 14.636719-32.691406 32.691406-32.691406 18.050781 0 32.6875 14.636719 32.6875 32.691406zm0 0" fill="#c65c38"/><path d="m301.941406 217.960938c-3.238281-1.074219-6.699218-1.667969-10.300781-1.667969-18.054687 0-32.691406 14.636719-32.691406 32.691406 0 18.050781 14.636719 32.6875 32.691406 32.6875 3.601563 0 7.0625-.589844 10.300781-1.664063-29.792968-9.890624-29.730468-52.179687 0-62.046874zm0 0" fill="#9c2d20"/><path d="m193.570312 214.292969c0 18.054687-14.632812 32.691406-32.6875 32.691406-18.054687 0-32.691406-14.636719-32.691406-32.691406 0-18.050781 14.636719-32.6875 32.691406-32.6875 18.054688 0 32.6875 14.636719 32.6875 32.6875zm0 0" fill="#32b1cc"/><path d="m171.183594 183.269531c-3.238282-1.074219-6.699219-1.664062-10.300782-1.664062-18.054687 0-32.691406 14.636719-32.691406 32.6875 0 18.054687 14.636719 32.691406 32.691406 32.691406 3.601563 0 7.0625-.59375 10.300782-1.667969-29.789063-9.886718-29.730469-52.175781 0-62.046875zm0 0" fill="#1695b7"/><path d="m258.949219 214.292969c0 18.054687-14.636719 32.691406-32.6875 32.691406-18.054688 0-32.691407-14.636719-32.691407-32.691406 0-18.050781 14.636719-32.6875 32.691407-32.6875 18.050781 0 32.6875 14.636719 32.6875 32.6875zm0 0" fill="#ea5471"/><path d="m236.5625 183.269531c-3.238281-1.074219-6.703125-1.664062-10.300781-1.664062-18.054688 0-32.691407 14.636719-32.691407 32.6875 0 18.054687 14.636719 32.691406 32.691407 32.691406 3.597656 0 7.0625-.59375 10.300781-1.667969-29.789062-9.886718-29.730469-52.175781 0-62.046875zm0 0" fill="#da1c4b"/><path d="m258.949219 344.601562c0 18.054688-14.636719 32.691407-32.6875 32.691407-18.054688 0-32.691407-14.636719-32.691407-32.691407 0-18.050781 14.636719-32.6875 32.691407-32.6875 18.050781 0 32.6875 14.636719 32.6875 32.6875zm0 0" fill="#d3843d"/><path d="m236.5625 313.578125c-3.238281-1.074219-6.703125-1.664063-10.300781-1.664063-18.054688 0-32.691407 14.636719-32.691407 32.6875 0 18.054688 14.636719 32.691407 32.691407 32.691407 3.597656 0 7.0625-.59375 10.300781-1.667969-29.789062-9.886719-29.730469-52.175781 0-62.046875zm0 0" fill="#c65c38"/><path d="m379.695312 214.292969c0 18.054687-14.636718 32.691406-32.691406 32.691406-18.050781 0-32.6875-14.636719-32.6875-32.691406 0-18.050781 14.636719-32.6875 32.6875-32.6875 18.054688 0 32.691406 14.636719 32.691406 32.6875zm0 0" fill="#32b1cc"/><path d="m357.308594 183.269531c-3.242188-1.074219-6.703125-1.664062-10.304688-1.664062-18.050781 0-32.6875 14.636719-32.6875 32.6875 0 18.054687 14.636719 32.691406 32.6875 32.691406 3.601563 0 7.0625-.59375 10.304688-1.667969-29.792969-9.886718-29.730469-52.175781 0-62.046875zm0 0" fill="#1695b7"/><path d="m193.570312 345.40625c0 18.054688-14.632812 32.691406-32.6875 32.691406-18.054687 0-32.691406-14.636718-32.691406-32.691406 0-18.050781 14.636719-32.6875 32.691406-32.6875 18.054688 0 32.6875 14.636719 32.6875 32.6875zm0 0" fill="#32b1cc"/><path d="m171.183594 314.386719c-3.238282-1.078125-6.699219-1.667969-10.300782-1.667969-18.054687 0-32.691406 14.636719-32.691406 32.6875 0 18.054688 14.636719 32.691406 32.691406 32.691406 3.601563 0 7.0625-.589844 10.300782-1.667968-29.789063-9.886719-29.730469-52.175782 0-62.042969zm0 0" fill="#1695b7"/><path d="m128.191406 248.984375c0 18.050781-14.632812 32.6875-32.6875 32.6875-18.054687 0-32.691406-14.636719-32.691406-32.6875 0-18.054687 14.636719-32.691406 32.691406-32.691406 18.054688 0 32.6875 14.636719 32.6875 32.691406zm0 0" fill="#fdbd40"/><path d="m83.417969 248.984375c0-14.453125 9.382812-26.707031 22.386719-31.023437-3.238282-1.074219-6.699219-1.667969-10.300782-1.667969-18.054687 0-32.691406 14.636719-32.691406 32.691406 0 18.050781 14.636719 32.6875 32.691406 32.6875 3.601563 0 7.0625-.589844 10.300782-1.664063-13.003907-4.320312-22.386719-16.570312-22.386719-31.023437zm0 0" fill="#f2aa2a"/><path d="m324.328125 314.363281c0 18.050781-14.636719 32.6875-32.6875 32.6875-18.054687 0-32.691406-14.636719-32.691406-32.6875 0-18.054687 14.636719-32.691406 32.691406-32.691406 18.050781 0 32.6875 14.636719 32.6875 32.691406zm0 0" fill="#ea5471"/><path d="m301.941406 283.339844c-3.238281-1.078125-6.699218-1.667969-10.300781-1.667969-18.054687 0-32.691406 14.636719-32.691406 32.6875 0 18.054687 14.636719 32.691406 32.691406 32.691406 3.601563 0 7.0625-.589843 10.300781-1.667969-29.789062-9.886718-29.730468-52.175781 0-62.042968zm0 0" fill="#da1c4b"/><path d="m193.570312 279.671875c0 18.054687-14.632812 32.691406-32.6875 32.691406-18.054687 0-32.691406-14.636719-32.691406-32.691406 0-18.050781 14.636719-32.6875 32.691406-32.6875 18.054688 0 32.6875 14.636719 32.6875 32.6875zm0 0" fill="#ea5471"/><path d="m148.796875 279.671875c0-14.453125 9.382813-26.707031 22.386719-31.023437-3.242188-1.074219-6.703125-1.664063-10.300782-1.664063-18.054687 0-32.691406 14.636719-32.691406 32.6875 0 18.054687 14.636719 32.691406 32.691406 32.691406 3.597657 0 7.058594-.59375 10.300782-1.667969-13.003906-4.316406-22.386719-16.570312-22.386719-31.023437zm0 0" fill="#da1c4b"/><path d="m71.945312 214.292969c0 18.054687-14.632812 32.691406-32.6875 32.691406-18.054687 0-32.691406-14.636719-32.691406-32.691406 0-18.050781 14.636719-32.6875 32.691406-32.6875 18.054688 0 32.6875 14.636719 32.6875 32.6875zm0 0" fill="#8ec13f"/><path d="m49.558594 183.269531c-3.238282-1.074219-6.699219-1.664062-10.300782-1.664062-18.054687 0-32.691406 14.636719-32.691406 32.6875 0 18.054687 14.636719 32.691406 32.691406 32.691406 3.601563 0 7.0625-.59375 10.300782-1.667969-29.789063-9.886718-29.730469-52.175781 0-62.046875zm0 0" fill="#7cad27"/></svg>