<svg viewBox="0 -58 512.00023 512" xmlns="http://www.w3.org/2000/svg"><path d="m397.984375 224.058594h-286.921875c-7.453125 0-13.074219 6.953125-11.441406 14.28125 9.101562 40.929687 45.371094 71.515625 88.742187 71.515625h132.320313c43.375 0 79.640625-30.585938 88.746094-71.515625 1.628906-7.328125-3.992188-14.28125-11.445313-14.28125zm0 0" fill="#ffd782"/><path d="m409.671875 159.097656c-7.257813-89.21875-73.949219-159.097656-155.148437-159.097656-81.199219 0-147.886719 69.878906-155.144532 159.097656-.519531 6.390625 4 11.894532 9.703125 11.894532h290.882813c5.707031 0 10.226562-5.503907 9.707031-11.894532zm0 0" fill="#ffd782"/><path d="m120.34375 238.339844c-1.628906-7.328125 3.988281-14.28125 11.441406-14.28125h-20.722656c-7.453125 0-13.074219 6.953125-11.441406 14.28125 9.101562 40.929687 45.371094 71.515625 88.742187 71.515625h20.722657c-43.371094 0-79.636719-30.585938-88.742188-71.515625zm0 0" fill="#fdbd40"/><path d="m120.101562 159.097656c6.945313-85.390625 68.335938-153.058594 144.785157-158.707031-3.425781-.253906-6.878907-.390625-10.363281-.390625-81.199219 0-147.890626 69.878906-155.148438 159.097656-.519531 6.390625 4 11.894532 9.707031 11.894532h20.722657c-5.703126 0-10.222657-5.503907-9.703126-11.894532zm0 0" fill="#fdbd40"/><path d="m381 170.769531h-252.953125c-9.066406 0-16.480469 7.417969-16.480469 16.480469v20.964844c0 9.066406 7.417969 16.480468 16.480469 16.480468h48.257813c1.878906 0 3.40625 1.527344 3.40625 3.40625v29.339844c0 10.429688 8.011718 19.433594 18.429687 19.890625 11.058594.484375 20.175781-8.335937 20.175781-19.285156v-29.839844c0 10.949219 9.117188 19.769531 20.175782 19.28125 10.417968-.457031 18.429687-9.460937 18.429687-19.886719 0-1.605468 1.300781-2.90625 2.90625-2.90625h121.171875c9.066406 0 16.480469-7.417968 16.480469-16.480468v-20.964844c.003906-9.066406-7.414063-16.480469-16.480469-16.480469zm0 0" fill="#9c2d20"/><path d="m200.433594 257.441406v-29.339844c0-1.882812-1.523438-3.40625-3.40625-3.40625h-20.722656c1.878906 0 3.40625 1.523438 3.40625 3.40625v29.339844c0 10.429688 8.011718 19.429688 18.429687 19.890625 4.183594.183594 8.085937-.96875 11.328125-3.0625-5.460938-3.574219-9.035156-9.875-9.035156-16.828125zm0 0" fill="#8c271f"/><path d="m132.289062 208.214844v-20.964844c0-9.066406 7.417969-16.480469 16.480469-16.480469h-20.722656c-9.066406 0-16.484375 7.414063-16.484375 16.480469v20.964844c0 9.0625 7.417969 16.480468 16.484375 16.480468h20.722656c-9.0625 0-16.480469-7.417968-16.480469-16.480468zm0 0" fill="#8c271f"/><path d="m425.296875 352.785156h-338.597656c-11.738281 0-21.253907 9.644532-21.253907 21.546875 0 11.898438 9.515626 21.542969 21.253907 21.542969h338.597656c11.738281 0 21.253906-9.644531 21.253906-21.542969 0-11.902343-9.515625-21.546875-21.253906-21.546875zm0 0" fill="#b7e9f9"/><path d="m85.882812 374.332031c0-11.902343 9.515626-21.546875 21.253907-21.546875h-20.4375c-11.738281 0-21.253907 9.644532-21.253907 21.546875 0 11.898438 9.515626 21.542969 21.253907 21.542969h20.4375c-11.738281 0-21.253907-9.644531-21.253907-21.542969zm0 0" fill="#87cee9"/><path d="m506.144531 309.855469h-500.292969c-3.71875 0-6.523437 3.527343-5.710937 7.242187 4.542969 20.757813 22.648437 36.273438 44.296875 36.273438h423.125c21.652344 0 39.753906-15.515625 44.296875-36.273438.8125-3.714844-1.992187-7.242187-5.714844-7.242187zm0 0" fill="#d7f7ff"/><path d="m20.863281 317.097656c-.8125-3.714844 1.992188-7.242187 5.710938-7.242187h-20.722657c-3.71875 0-6.523437 3.527343-5.710937 7.242187 4.542969 20.757813 22.648437 36.269532 44.296875 36.269532h20.722656c-21.648437 0-39.75-15.511719-44.296875-36.269532zm0 0" fill="#b7e9f9"/><g fill="#fdbd40"><path d="m261.683594 60.101562c-3.035156-3.039062-3.035156-7.957031 0-10.992187l7.523437-7.523437c3.035157-3.035157 7.957031-3.035157 10.988281 0 3.035157 3.035156 3.035157 7.957031 0 10.988281l-7.523437 7.527343c-3.035156 3.03125-7.953125 3.03125-10.988281 0zm0 0"/><path d="m174.128906 79.707031c-3.035156-3.035156-3.035156-7.953125 0-10.988281l7.523438-7.527344c3.035156-3.03125 7.957031-3.03125 10.992187 0 3.035157 3.039063 3.035157 7.957032 0 10.992188l-7.523437 7.523437c-3.039063 3.035157-7.957032 3.035157-10.992188 0zm0 0"/><path d="m269.890625 93.386719c-3.035156-3.035157-3.035156-7.957031 0-10.988281l7.523437-7.523438c3.035157-3.035156 7.957032-3.035156 10.992188 0s3.03125 7.957031 0 10.988281l-7.527344 7.523438c-3.03125 3.035156-7.953125 3.035156-10.988281 0zm0 0"/><path d="m224.746094 52.574219-7.523438-7.523438c-3.035156-3.035156-3.035156-7.957031 0-10.992187 3.035156-3.03125 7.953125-3.035156 10.992188.003906l7.523437 7.523438c3.035157 3.035156 3.03125 7.957031 0 10.988281-3.035156 3.035156-7.957031 3.035156-10.992187 0zm0 0"/><path d="m323.929688 74.921875-7.523438-7.527344c-3.035156-3.035156-3.035156-7.953125 0-10.988281 3.03125-3.035156 7.953125-3.035156 10.988281 0l7.523438 7.523438c3.035156 3.035156 3.035156 7.957031 0 10.992187-3.035157 3.035156-7.953125 3.03125-10.988281 0zm0 0"/></g></svg>