<svg viewBox="0 -40 511.99969 511" xmlns="http://www.w3.org/2000/svg"><path d="m87.726562 357.355469h109.359376c37.214843-7.726563 65.183593-40.699219 65.183593-80.207031 0-39.507813-27.96875-72.476563-65.183593-80.207032h-109.359376c44.296876 0 80.207032 35.910156 80.207032 80.207032 0 44.296874-35.910156 80.207031-80.207032 80.207031zm0 0" fill="#d3843d"/><path d="m188.539062 277.148438c0-44.296876-35.910156-80.207032-80.207031-80.207032h-20.605469c44.296876 0 80.207032 35.910156 80.207032 80.207032 0 44.296874-35.910156 80.207031-80.207032 80.207031h20.605469c44.296875 0 80.207031-35.910157 80.207031-80.207031zm0 0" fill="#c65c38"/><path d="m271.378906 196.941406h-91.035156c44.296875 0 80.207031 35.910156 80.207031 80.207032 0 44.296874-35.910156 80.207031-80.207031 80.207031h91.035156c44.296875 0 80.207032-35.910157 80.207032-80.207031 0-44.296876-35.910157-80.207032-80.207032-80.207032zm0 0" fill="#fdbd40"/><path d="m167.933594 277.148438c0 44.296874-35.910156 80.207031-80.207032 80.207031-44.296874 0-80.207031-35.910157-80.207031-80.207031 0-44.296876 35.910157-80.207032 80.207031-80.207032 44.296876 0 80.207032 35.910156 80.207032 80.207032zm0 0" fill="#f98c96"/><path d="m136.101562 277.148438c0 26.714843-21.65625 48.375-48.375 48.375-26.714843 0-48.371093-21.660157-48.371093-48.375 0-26.714844 21.65625-48.371094 48.371093-48.371094 26.71875 0 48.375 21.65625 48.375 48.371094zm0 0" fill="#ea5471"/><path d="m28.125 277.148438c0-40.804688 30.476562-74.464844 69.90625-79.523438-3.375-.433594-6.808594-.683594-10.300781-.683594-44.296875 0-80.207031 35.910156-80.207031 80.207032 0 44.296874 35.910156 80.207031 80.207031 80.207031 3.492187 0 6.925781-.246094 10.300781-.679688-39.429688-5.058593-69.90625-38.722656-69.90625-79.527343zm0 0" fill="#ea5471"/><path d="m59.960938 277.148438c0-23.179688 16.304687-42.539063 38.070312-47.261719-3.320312-.722657-6.765625-1.113281-10.300781-1.113281-26.71875 0-48.375 21.660156-48.375 48.375 0 26.714843 21.65625 48.371093 48.375 48.371093 3.535156 0 6.980469-.386719 10.300781-1.109375-21.765625-4.722656-38.070312-24.082031-38.070312-47.261718zm0 0" fill="#da1c4b"/><path d="m329.3125 197.972656 6.660156-180.339844c.347656-9.359374-7.144531-17.132812-16.507812-17.132812h-14.066406c-9.363282 0-16.851563 7.773438-16.507813 17.132812l6.660156 180.339844zm0 0" fill="#d7f7ff"/><path d="m322.734375.828125c-1.058594-.210937-2.148437-.328125-3.269531-.328125h-14.066406c-9.363282 0-16.851563 7.773438-16.507813 17.132812l6.660156 180.339844h20.605469l-6.660156-180.339844c-.304688-8.238281 5.464844-15.242187 13.238281-16.804687zm0 0" fill="#b7e9f9"/><path d="m404.300781 393.371094h-329.097656c-10.179687 0-18.433594 8.445312-18.433594 18.863281s8.253907 18.859375 18.433594 18.859375h329.097656c10.179688 0 18.433594-8.441406 18.433594-18.859375s-8.253906-18.863281-18.433594-18.863281zm0 0" fill="#b7e9f9"/><path d="m77.890625 412.234375c0-10.417969 8.253906-18.863281 18.433594-18.863281h-21.121094c-10.179687 0-18.433594 8.445312-18.433594 18.863281s8.253907 18.859375 18.433594 18.859375h21.125c-10.183594 0-18.4375-8.441406-18.4375-18.859375zm0 0" fill="#87cee9"/><path d="m474.425781 357.355469h-469.347656c-3.226563 0-5.660156 2.988281-4.957031 6.136719 3.941406 17.589843 19.644531 30.734374 38.421875 30.734374h402.417969c18.777343 0 34.480468-13.144531 38.421874-30.734374.703126-3.148438-1.730468-6.136719-4.957031-6.136719zm0 0" fill="#d7f7ff"/><path d="m20.726562 363.492188c-.707031-3.148438 1.726563-6.136719 4.953126-6.136719h-20.601563c-3.226563 0-5.660156 2.988281-4.957031 6.136719 3.941406 17.589843 19.644531 30.734374 38.421875 30.734374h20.605469c-18.777344 0-34.480469-13.144531-38.421876-30.734374zm0 0" fill="#b7e9f9"/><path d="m248.140625 357.355469h109.359375c37.214844-7.726563 65.183594-40.699219 65.183594-80.207031 0-39.507813-27.96875-72.476563-65.183594-80.207032h-109.359375c44.296875 0 80.207031 35.910156 80.207031 80.207032 0 44.296874-35.910156 80.207031-80.207031 80.207031zm0 0" fill="#d3843d"/><path d="m348.953125 277.148438c0-44.296876-35.910156-80.207032-80.207031-80.207032h-20.605469c44.296875 0 80.207031 35.910156 80.207031 80.207032 0 44.296874-35.910156 80.207031-80.207031 80.207031h20.605469c44.296875 0 80.207031-35.910157 80.207031-80.207031zm0 0" fill="#c65c38"/><path d="m431.792969 196.941406h-91.035157c44.296876 0 80.207032 35.910156 80.207032 80.207032 0 44.296874-35.910156 80.207031-80.207032 80.207031h91.035157c44.296875 0 80.207031-35.910157 80.207031-80.207031 0-44.296876-35.910156-80.207032-80.207031-80.207032zm0 0" fill="#ffd782"/><path d="m441.570312 277.148438c0-44.296876-35.910156-80.207032-80.207031-80.207032h-20.605469c44.296876 0 80.207032 35.910156 80.207032 80.207032 0 44.296874-35.910156 80.207031-80.207032 80.207031h20.605469c44.296875 0 80.207031-35.910157 80.207031-80.207031zm0 0" fill="#fdbd40"/><path d="m328.347656 277.148438c0 44.296874-35.910156 80.207031-80.207031 80.207031s-80.207031-35.910157-80.207031-80.207031c0-44.296876 35.910156-80.207032 80.207031-80.207032s80.207031 35.910156 80.207031 80.207032zm0 0" fill="#87cee9"/><path d="m296.515625 277.148438c0 26.714843-21.65625 48.375-48.375 48.375-26.714844 0-48.371094-21.660157-48.371094-48.375 0-26.714844 21.65625-48.371094 48.371094-48.371094 26.71875 0 48.375 21.65625 48.375 48.371094zm0 0" fill="#32b1cc"/><path d="m188.539062 277.148438c0-40.804688 30.476563-74.464844 69.90625-79.523438-3.375-.433594-6.808593-.683594-10.300781-.683594-44.296875 0-80.207031 35.910156-80.207031 80.207032 0 44.296874 35.910156 80.207031 80.207031 80.207031 3.492188 0 6.925781-.246094 10.300781-.679688-39.429687-5.058593-69.90625-38.722656-69.90625-79.527343zm0 0" fill="#32b1cc"/><path d="m220.375 277.148438c0-23.179688 16.304688-42.539063 38.070312-47.261719-3.320312-.722657-6.765624-1.113281-10.300781-1.113281-26.71875 0-48.375 21.660156-48.375 48.375 0 26.714843 21.65625 48.371093 48.375 48.371093 3.535157 0 6.980469-.386719 10.300781-1.109375-21.765624-4.722656-38.070312-24.082031-38.070312-47.261718zm0 0" fill="#1695b7"/></svg>