<svg viewBox="0 -128 512.0003 512" xmlns="http://www.w3.org/2000/svg"><path d="m425.300781 212.191406h-338.601562c-11.738281 0-21.253907 9.605469-21.253907 21.457032 0 11.855468 9.515626 21.460937 21.253907 21.460937h338.601562c11.738281 0 21.25-9.605469 21.25-21.460937 0-11.851563-9.515625-21.457032-21.25-21.457032zm0 0" fill="#b7e9f9"/><path d="m86.050781 233.648438c0-11.851563 9.515625-21.457032 21.253907-21.457032h-20.605469c-11.738281 0-21.25 9.605469-21.25 21.457032 0 11.855468 9.511719 21.460937 21.25 21.460937h20.605469c-11.738282 0-21.253907-9.605469-21.253907-21.460937zm0 0" fill="#87cee9"/><path d="m406.671875 0h-301.34375c-46.777344 0-85.050781 38.273438-85.050781 85.050781 0 46.773438 38.273437 85.046875 85.050781 85.046875h301.34375c46.777344 0 85.046875-38.273437 85.046875-85.046875.003906-46.777343-38.269531-85.050781-85.046875-85.050781zm0 0" fill="#ffd782"/><path d="m40.882812 85.050781c0-46.777343 38.273438-85.050781 85.050782-85.050781h-20.605469c-46.777344 0-85.050781 38.273438-85.050781 85.050781 0 46.773438 38.273437 85.046875 85.050781 85.046875h20.605469c-46.777344 0-85.050782-38.273437-85.050782-85.046875zm0 0" fill="#fdbd40"/><path d="m406.671875 0h-301.34375c-46.417969 0-84.441406 37.691406-85.023437 83.976562 25.828124-2.617187 38.957031-10.089843 56.386718-15.921874 2.667969-.890626 5.429688 1.078124 5.429688 3.890624v47.65625c0 11.523438 8.960937 21.335938 20.476562 21.746094 12.09375.429688 22.027344-9.242187 22.027344-21.238281v-37.6875c0 11.996094 9.9375 21.667969 22.027344 21.238281 11.519531-.410156 20.480468-10.222656 20.480468-21.746094v-12.484374c0-2.503907 2.398438-4.3125 4.8125-3.640626 25.863282 7.207032 39.351563 19.144532 84.046876 19.144532 64 0 64-24.484375 128.003906-24.484375 56.398437 0 63.105468 19.011719 107.699218 23.527343-.582031-46.285156-38.605468-83.976562-85.023437-83.976562zm0 0" fill="#c65c38"/><g fill="#9c2d20"><path d="m125.90625 0h-20.578125c-46.417969 0-84.441406 37.691406-85.023437 83.976562 7.941406-.804687 14.679687-2.070312 20.714843-3.601562 2.449219-44.621094 39.679688-80.375 84.886719-80.375zm0 0"/><path d="m102.699219 119.601562v-37.996093c0-12.914063-14.25-20.59375-24.996094-13.753907 2.308594-.175781 4.417969 1.636719 4.417969 4.09375v47.65625c0 11.523438 8.960937 21.339844 20.476562 21.746094 4.054688.144532 7.863282-.847656 11.136719-2.683594-6.613281-3.742187-11.035156-10.972656-11.035156-19.0625zm0 0"/><path d="m174.410156 18.078125v-18.078125h-39.851562v18.078125c0 11.003906 8.917968 19.925781 19.925781 19.925781 11.003906 0 19.925781-8.921875 19.925781-19.925781zm0 0"/><path d="m387.625 0h-39.851562v18.078125c0 11.003906 8.921874 19.925781 19.925781 19.925781 11.003906 0 19.925781-8.921875 19.925781-19.925781zm0 0"/><path d="m281.015625 18.078125v-18.078125h-39.847656v18.078125c0 11.003906 8.917969 19.925781 19.925781 19.925781 11.003906 0 19.921875-8.921875 19.921875-19.925781zm0 0"/></g><path d="m155.164062 18.078125v-18.078125h-20.605468v18.078125c0 11.003906 8.917968 19.925781 19.925781 19.925781 3.773437 0 7.292969-1.070312 10.300781-2.894531-5.757812-3.492187-9.621094-9.800781-9.621094-17.03125zm0 0" fill="#8c271f"/><path d="m368.378906 18.078125v-18.078125h-20.605468v18.078125c0 11.003906 8.921874 19.925781 19.925781 19.925781 3.777343 0 7.292969-1.070312 10.300781-2.894531-5.757812-3.492187-9.621094-9.800781-9.621094-17.03125zm0 0" fill="#8c271f"/><path d="m261.769531 18.078125v-18.078125h-20.605469v18.078125c0 11.003906 8.921876 19.925781 19.925782 19.925781 3.777344 0 7.292968-1.070312 10.304687-2.894531-5.761719-3.492187-9.625-9.800781-9.625-17.03125zm0 0" fill="#8c271f"/><path d="m506.144531 169.476562h-500.292969c-3.71875 0-6.523437 3.496094-5.710937 7.179688 4.542969 20.574219 22.648437 35.949219 44.296875 35.949219h423.128906c21.648438 0 39.75-15.375 44.292969-35.949219.8125-3.683594-1.992187-7.179688-5.714844-7.179688zm0 0" fill="#d7f7ff"/><path d="m20.417969 176.65625c-.8125-3.683594 1.992187-7.179688 5.710937-7.179688h-20.277344c-3.71875 0-6.523437 3.496094-5.710937 7.179688 4.542969 20.574219 22.648437 35.949219 44.296875 35.949219h20.277344c-21.648438 0-39.75-15.375-44.296875-35.949219zm0 0" fill="#b7e9f9"/></svg>