<svg viewBox="-45 0 511 511.99962" xmlns="http://www.w3.org/2000/svg"><path d="m228.996094 17.066406c-3.621094-2.128906-8.285156-.925781-10.421875 2.695313-.03125.058593-2.804688 4.503906-7.753907 6.546875-5.144531-13.566406-10.976562-22.320313-11.410156-22.960938-2.355468-3.480468-7.085937-4.394531-10.570312-2.039062-3.484375 2.355468-4.394532 7.085937-2.039063 10.570312.105469.15625 6.804688 10.214844 11.695313 25.28125.003906.011719.003906.019532.007812.03125 2.8125 8.675782 5.027344 19.011719 5.027344 30.082032 0 4.203124 3.40625 7.613281 7.609375 7.613281 4.207031 0 7.613281-3.410157 7.613281-7.613281 0-9.449219-1.363281-18.375-3.359375-26.398438 10.535157-3.816406 16.011719-12.898438 16.296875-13.382812 2.136719-3.625.929688-8.289063-2.695312-10.425782zm0 0" fill="#d3843d"/><path d="m226.632812 394.03125c-18.273437 0-12.453124 0-30.070312 0 0 53.203125-21.296875 79.925781-21.296875 79.925781h72.667969s-21.300782-26.722656-21.300782-79.925781zm0 0" fill="#87cee9"/><path d="m196.5625 394.03125c0 53.203125-21.296875 79.925781-21.296875 79.925781h20.128906s21.296875-26.722656 21.296875-79.925781c-6.886718 0-6.925781 0-20.128906 0zm0 0" fill="#32b1cc"/><path d="m88.527344 148.109375c-12.527344 0-23.101563 9.3125-24.683594 21.734375l-18.648438 146.09375h332.808594l-18.648437-146.09375c-1.585938-12.421875-12.160157-21.734375-24.683594-21.734375zm0 0" fill="#ffd782"/><path d="m108.804688 148.109375h-20.277344c-12.527344 0-23.101563 9.3125-24.6875 21.734375l-18.644532 146.09375h20.277344l18.644532-146.09375c1.585937-12.421875 12.160156-21.734375 24.6875-21.734375zm0 0" fill="#fdbd40"/><path d="m45.195312 315.9375h332.808594l-5.160156-40.421875h-322.492188zm0 0" fill="#fdbd40"/><path d="m50.351562 275.515625-5.15625 40.421875h20.296876l5.160156-40.421875zm0 0" fill="#f2aa2a"/><path d="m353.1875 356.355469h-283.175781c-11.164063 0-20.210938 9.050781-20.210938 20.210937s9.046875 20.207032 20.210938 20.207032h283.175781c11.160156 0 20.207031-9.046876 20.207031-20.207032.003907-11.164062-9.046875-20.210937-20.207031-20.210937zm0 0" fill="#b7e9f9"/><path d="m70.097656 376.566406c0-11.164062 9.050782-20.210937 20.210938-20.210937h-20.296875c-11.164063 0-20.210938 9.046875-20.210938 20.210937 0 11.160156 9.046875 20.207032 20.210938 20.207032h20.296875c-11.160156 0-20.210938-9.046876-20.210938-20.207032zm0 0" fill="#87cee9"/><path d="m314.523438 491.789062c0-11.160156-9.046876-20.207031-20.207032-20.207031h-165.433594c-11.160156 0-20.210937 9.046875-20.210937 20.207031 0 11.164063 9.050781 20.210938 20.210937 20.210938h165.433594c11.160156 0 20.207032-9.046875 20.207032-20.210938zm0 0" fill="#b7e9f9"/><path d="m128.972656 491.789062c0-11.160156 9.046875-20.207031 20.207032-20.207031h-20.296876c-11.160156 0-20.210937 9.046875-20.210937 20.207031 0 11.164063 9.050781 20.210938 20.210937 20.210938h20.296876c-11.160157 0-20.207032-9.046875-20.207032-20.210938zm0 0" fill="#87cee9"/><path d="m252.015625 107.691406c0 22.324219-18.09375 40.417969-40.417969 40.417969-22.324218 0-40.421875-18.09375-40.421875-40.417969 0-22.324218 18.097657-40.421875 40.421875-40.421875 22.324219 0 40.417969 18.097657 40.417969 40.421875zm0 0" fill="#da1c4b"/><path d="m191.476562 107.691406c0-18.816406 12.859376-34.632812 30.269532-39.136718-3.242188-.835938-6.644532-1.285157-10.148438-1.285157-22.324218 0-40.417968 18.097657-40.417968 40.421875 0 22.320313 18.09375 40.417969 40.417968 40.417969 3.503906 0 6.90625-.445313 10.148438-1.285156-17.410156-4.503907-30.269532-20.316407-30.269532-39.132813zm0 0" fill="#bf0443"/><path d="m359.355469 169.84375c-1.585938-12.421875-12.160157-21.734375-24.683594-21.734375h-246.144531c-12.527344 0-23.101563 9.3125-24.683594 21.734375l-3.074219 24.078125h25.671875c3.550782 0 6.425782 2.878906 6.425782 6.425781v26.183594c0 10.222656 7.859374 19.023438 18.074218 19.503906 10.902344.511719 19.902344-8.179687 19.902344-18.96875v-29.355468c0 11.1875 9.671875 20.113281 21.113281 18.875 9.710938-1.054688 16.863281-9.640626 16.863281-19.410157 0-1.796875 1.457032-3.253906 3.253907-3.253906h73.589843c2.785157 0 5.046876 2.261719 5.046876 5.050781v27.558594c0 10.222656 7.855468 19.023438 18.070312 19.503906 10.902344.511719 19.90625-8.175781 19.90625-18.96875v-23.320312c0-10.222656 7.855469-19.019532 18.070312-19.5 10.90625-.515625 19.90625 8.175781 19.90625 18.964844v3.035156c0 10.488281 8.5 18.988281 18.988282 18.988281 9.472656 0 17.300781-6.9375 18.730468-16.003906zm0 0" fill="#9c2d20"/><path d="m108.800781 148.109375h-20.273437c-12.433594 0-23.097656 9.285156-24.683594 21.734375l-3.074219 24.082031h20.277344l3.074219-24.082031c1.582031-12.421875 12.15625-21.730469 24.679687-21.734375zm0 0" fill="#8c271f"/><path d="m288.6875 283.347656c0 10.488282-8.503906 18.988282-18.988281 18.988282-10.488281 0-18.988281-8.5-18.988281-18.988282 0-10.484375 8.5-18.988281 18.988281-18.988281 10.484375 0 18.988281 8.503906 18.988281 18.988281zm0 0" fill="#9c2d20"/><path d="m271.007812 283.347656c0-6.75 3.53125-12.660156 8.839844-16.027344-2.9375-1.863281-6.414062-2.960937-10.148437-2.960937-10.488281 0-18.988281 8.503906-18.988281 18.988281 0 10.488282 8.5 18.988282 18.988281 18.988282 3.734375 0 7.210937-1.09375 10.148437-2.957032-5.308594-3.367187-8.839844-9.28125-8.839844-16.03125zm0 0" fill="#8c271f"/><path d="m417.132812 315.371094h-411.066406c-3.539062 0-6.207031 3.359375-5.433594 6.894531 4.324219 19.761719 21.535157 34.527344 42.121094 34.527344h337.6875c20.585938 0 37.800782-14.765625 42.121094-34.527344.773438-3.535156-1.890625-6.894531-5.429688-6.894531zm0 0" fill="#d7f7ff"/><path d="m20.933594 322.265625c-.773438-3.535156 1.890625-6.894531 5.429687-6.894531h-20.296875c-3.539062 0-6.207031 3.359375-5.433594 6.894531 4.324219 19.761719 21.535157 34.527344 42.121094 34.527344h20.300782c-20.585938.003906-37.800782-14.765625-42.121094-34.527344zm0 0" fill="#b7e9f9"/></svg>