<svg viewBox="0 0 511 511.99999" xmlns="http://www.w3.org/2000/svg"><path d="m266.652344 15.949219c-3.667969-2.160157-8.390625-.941407-10.550782 2.726562-.03125.050781-2.277343 3.664063-6.308593 5.566407-4.75-12.332032-10.035157-20.261719-10.433594-20.851563-2.382813-3.527344-7.175781-4.449219-10.703125-2.066406-3.523438 2.386719-4.449219 7.175781-2.0625 10.699219.097656.144531 6.265625 9.402343 10.773438 23.277343.015624.050781.03125.101563.050781.152344 2.582031 7.996094 4.613281 17.503906 4.613281 27.691406 0 4.257813 3.449219 7.707031 7.707031 7.707031 4.253907 0 7.703125-3.449218 7.703125-7.707031 0-8.632812-1.21875-16.792969-3.015625-24.160156 7.503907-2.894531 12.6875-8.640625 14.953125-12.484375 2.160156-3.667969.9375-8.390625-2.726562-10.550781zm0 0" fill="#d3843d"/><path d="m424.664062 469.230469h-337.695312c-11.707031 0-21.195312 9.574219-21.195312 21.386719 0 11.808593 9.488281 21.382812 21.195312 21.382812h337.695312c11.703126 0 21.195313-9.574219 21.195313-21.382812 0-11.8125-9.492187-21.386719-21.195313-21.386719zm0 0" fill="#b7e9f9"/><path d="m86.644531 490.617188c0-11.8125 9.492188-21.386719 21.195313-21.386719h-20.871094c-11.707031 0-21.195312 9.574219-21.195312 21.386719 0 11.808593 9.488281 21.382812 21.195312 21.382812h20.871094c-11.703125 0-21.195313-9.574219-21.195313-21.382812zm0 0" fill="#87cee9"/><path d="m450.707031 427.214844v-276.792969c0-5.710937-4.628906-10.34375-10.34375-10.34375h-369.097656c-5.710937 0-10.34375 4.632813-10.34375 10.34375v276.792969zm0 0" fill="#c65c38"/><path d="m91.816406 140.078125h-20.550781c-5.710937 0-10.34375 4.632813-10.34375 10.34375v276.792969h20.550781v-276.792969c0-5.714844 4.632813-10.34375 10.34375-10.34375zm0 0" fill="#9c2d20"/><path d="m60.921875 275.734375h354.199219v61.496094h-354.199219zm0 0" fill="#d3843d"/><path d="m60.921875 275.734375h20.550781v61.496094h-20.550781zm0 0" fill="#c65c38"/><path d="m440.363281 140.078125c-12.640625 0-363.089843 0-369.097656 0-5.710937 0-10.34375 4.632813-10.34375 10.34375v30.316406h49.855469c2.878906 0 5.214844 2.335938 5.214844 5.214844v37.621094c0 13.941406 11.40625 25.683593 25.34375 25.417969 13.511718-.253907 24.382812-11.289063 24.382812-24.855469v-38.4375c0 13.570312 10.871094 24.601562 24.378906 24.859375 13.9375.265625 25.34375-11.480469 25.34375-25.417969 0-2.429687 1.972656-4.402344 4.402344-4.402344h181.207031c6.382813 0 11.558594 5.175781 11.558594 11.558594v234.921875h38.097656v-276.796875c0-5.710937-4.628906-10.34375-10.34375-10.34375zm0 0" fill="#9c2d20"/><g fill="#8c271f"><path d="m91.816406 140.078125h-20.550781c-5.710937 0-10.34375 4.632813-10.34375 10.34375v30.316406h20.550781v-30.316406c0-5.710937 4.632813-10.34375 10.34375-10.34375zm0 0"/><path d="m136.542969 223.574219v-37.621094c0-2.882813-2.335938-5.214844-5.214844-5.214844h-20.550781c2.882812 0 5.214844 2.332031 5.214844 5.214844v37.621094c0 13.941406 11.410156 25.683593 25.34375 25.417969 3.53125-.066407 6.878906-.875 9.898437-2.265626-8.652344-4.039062-14.691406-13.011718-14.691406-23.152343zm0 0"/><path d="m421.601562 180.738281h-20.550781c6.386719 0 11.558594 5.175781 11.558594 11.558594v234.917969h20.550781v-234.917969c0-6.382813-5.175781-11.558594-11.558594-11.558594zm0 0"/></g><path d="m288.625 101.613281c0 21.242188-17.21875 38.464844-38.464844 38.464844-21.242187 0-38.464844-17.222656-38.464844-38.464844 0-21.246093 17.222657-38.46875 38.464844-38.46875 21.246094 0 38.464844 17.222657 38.464844 38.46875zm0 0" fill="#da1c4b"/><path d="m231.980469 101.613281c0-17.734375 12.003906-32.652343 28.324219-37.105469-3.234376-.882812-6.632813-1.363281-10.144532-1.363281-21.242187 0-38.464844 17.222657-38.464844 38.46875 0 25.308594 24.074219 43.792969 48.609376 37.101563-16.320313-4.449219-28.324219-19.371094-28.324219-37.101563zm0 0" fill="#bf0443"/><path d="m505.292969 426.890625h-498.957031c-3.710938 0-6.507813 3.460937-5.695313 7.109375 4.53125 20.378906 22.585937 35.609375 44.175781 35.609375h421.996094c21.59375 0 39.644531-15.230469 44.175781-35.609375.8125-3.648438-1.984375-7.109375-5.695312-7.109375zm0 0" fill="#d7f7ff"/><path d="m21.191406 434c-.8125-3.648438 1.984375-7.109375 5.695313-7.109375h-20.550781c-3.710938 0-6.507813 3.460937-5.695313 7.109375 4.53125 20.378906 22.585937 35.609375 44.175781 35.609375h20.550782c-21.589844 0-39.644532-15.230469-44.175782-35.609375zm0 0" fill="#b7e9f9"/></svg>