<svg viewBox="-140 0 512 512.001" xmlns="http://www.w3.org/2000/svg"><path d="m115.851562 372.898438c-3.796874 0-7.496093-.390626-11.074218-1.128907v128.511719c0 6.445312 5.269531 11.71875 11.714844 11.71875 6.445312 0 11.71875-5.273438 11.71875-11.71875 0-2.023438 0-69.796875 0-128.796875-3.972657.917969-8.105469 1.414063-12.359376 1.414063zm0 0" fill="#b7e9f9"/><path d="m121.257812 500.28125c0-4.457031 0-70.1875 0-127.667969-1.777343.175781-3.578124.285157-5.40625.285157-3.796874 0-7.496093-.390626-11.074218-1.128907v128.511719c0 6.445312 5.269531 11.71875 11.714844 11.71875 3.207031 0 6.121093-1.304688 8.242187-3.410156-2.140625-2.128906-3.476563-5.070313-3.476563-8.308594zm0 0" fill="#87cee9"/><path d="m215.363281 152.128906c-3.371093-3.316406-3.371093-8.8125 0-12.128906 34.585938-34.007812 10.71875-93.613281-38.320312-93.613281-.023438 0-.046875 0-.070313 0-3.929687.007812-7.398437-2.53125-8.441406-6.316407-6.382812-23.105468-27.546875-40.070312-52.679688-40.070312-25.132812 0-46.292968 16.964844-52.675781 40.070312-1.046875 3.785157-4.515625 6.320313-8.441406 6.316407-.023437 0-.046875 0-.074219 0-49.085937 0-72.859375 59.652343-38.320312 93.613281 3.375 3.316406 3.375 8.8125 0 12.128906-21.789063 21.425782-21.773438 56.503906 0 77.917969 3.375 3.3125 3.375 8.808594 0 12.125-34.582032 34.007813-10.714844 93.613281 38.320312 93.613281h.074219c3.929687-.007812 7.394531 2.53125 8.441406 6.316406 6.382813 23.101563 27.542969 40.070313 52.679688 40.070313 25.128906 0 46.292969-16.964844 52.675781-40.070313 1.042969-3.785156 4.511719-6.324218 8.441406-6.316406h.070313c49.089843 0 72.859375-59.652344 38.320312-93.613281-3.371093-3.316406-3.371093-8.8125 0-12.125 21.792969-21.429687 21.777344-56.507813 0-77.917969zm0 0" fill="#f98c96"/><g fill="#ea5471"><path d="m83.78125 342.105469c-1.046875-3.789063-4.515625-6.324219-8.445312-6.320313-.023438 0-.046876 0-.070313 0-49.085937 0-72.859375-59.648437-38.320313-93.613281 3.375-3.316406 3.375-8.8125 0-12.125-21.792968-21.429687-21.777343-56.507813 0-77.917969 3.371094-3.316406 3.371094-8.8125 0-12.128906-34.585937-34.007812-10.71875-93.613281 38.320313-93.613281h.070313c3.929687.003906 7.398437-2.53125 8.445312-6.320313 5.484375-19.863281 21.90625-35.179687 42.375-39.085937-3.339844-.636719-6.78125-.980469-10.304688-.980469-25.132812 0-46.292968 16.964844-52.675781 40.070312-1.046875 3.785157-4.515625 6.320313-8.441406 6.316407-.023437 0-.046875 0-.074219 0-49.085937 0-72.859375 59.652343-38.320312 93.617187 3.375 3.3125 3.375 8.808594 0 12.125-21.789063 21.429688-21.773438 56.503906 0 77.917969 3.375 3.316406 3.375 8.808594 0 12.125-34.582032 34.007813-10.714844 93.613281 38.320312 93.613281h.074219c3.929687-.003906 7.398437 2.53125 8.441406 6.320313 6.382813 23.101562 27.542969 40.070312 52.679688 40.070312 3.519531 0 6.964843-.347656 10.300781-.984375-20.46875-3.910156-36.886719-19.222656-42.375-39.085937zm0 0"/><path d="m148.152344 91.453125-5.429688-5.429687c-3.019531-3.015626-3.019531-7.910157 0-10.925782 3.015625-3.019531 7.910156-3.019531 10.925782 0l5.429687 5.425782c3.019531 3.019531 3.019531 7.910156 0 10.929687-3.015625 3.019531-7.910156 3.015625-10.925781 0zm0 0"/><path d="m97.945312 316.988281-5.429687-5.425781c-3.015625-3.019531-3.015625-7.910156 0-10.929688 3.019531-3.015624 7.910156-3.015624 10.929687 0l5.429688 5.429688c3.015625 3.015625 3.015625 7.910156 0 10.925781-3.019531 3.019531-7.910156 3.019531-10.929688 0zm0 0"/><path d="m85.5 172.222656-5.425781-5.429687c-3.019531-3.015625-3.019531-7.910157 0-10.925781 3.015625-3.015626 7.910156-3.019532 10.929687 0l5.425782 5.429687c3.019531 3.015625 3.019531 7.910156 0 10.925781-3.019532 3.015625-7.910157 3.019532-10.929688 0zm0 0"/><path d="m70.015625 115.964844-5.429687-5.429688c-3.019532-3.019531-3.019532-7.910156 0-10.929687 3.015624-3.015625 7.910156-3.015625 10.925781 0l5.429687 5.429687c3.019532 3.019532 3.019532 7.910156 0 10.929688-3.019531 3.015625-7.910156 3.015625-10.925781 0zm0 0"/><path d="m51.589844 233.085938-5.429688-5.429688c-3.015625-3.015625-3.015625-7.910156.003906-10.925781 3.015626-3.015625 7.90625-3.015625 10.925782 0l5.429687 5.429687c3.015625 3.019532 3.015625 7.910156-.003906 10.929688-3.015625 3.015625-7.90625 3.015625-10.925781-.003906zm0 0"/><path d="m167.234375 267.140625-5.429687-5.429687c-3.015626-3.019532-3.015626-7.910157 0-10.929688 3.019531-3.015625 7.910156-3.015625 10.929687.003906l5.429687 5.429688c3.015626 3.015625 3.015626 7.90625-.003906 10.925781-3.015625 3.015625-7.910156 3.015625-10.925781 0zm0 0"/><path d="m142.722656 174.9375c-3.019531-3.015625-3.019531-7.910156 0-10.925781l5.429688-5.429688c3.015625-3.015625 7.910156-3.015625 10.925781 0 3.019531 3.015625 3.019531 7.910157 0 10.925781l-5.429687 5.429688c-3.015626 3.015625-7.90625 3.015625-10.925782 0zm0 0"/><path d="m98.824219 249.207031c-3.015625-3.015625-3.015625-7.910156.003906-10.925781l5.425781-5.429688c3.019532-3.015624 7.910156-3.015624 10.929688.003907 3.015625 3.015625 3.015625 7.910156-.003906 10.925781l-5.425782 5.429688c-3.019531 3.015624-7.910156 3.015624-10.929687-.003907zm0 0"/></g></svg>