<svg viewBox="-134 0 512 512.00048" xmlns="http://www.w3.org/2000/svg"><path d="m47.691406 0c-9.269531 0-16.78125 7.515625-16.78125 16.785156v480.335938c0 8.945312 6.871094 14.460937 15.808594 14.855468 9.484375.417969 17.308594-4.941406 17.308594-14.335937 0-21.019531 0-462.660156 0-481.304687 0-9.023438-7.3125-16.335938-16.335938-16.335938zm0 0" fill="#d3843d"/><path d="m51.515625 497.121094c0-20.007813 0-461.089844 0-480.335938 0-5.347656 2.507813-10.101562 6.40625-13.175781-2.800781-2.253906-6.355469-3.609375-10.230469-3.609375-9.269531 0-16.78125 7.515625-16.78125 16.785156v480.335938c0 8.945312 6.871094 14.460937 15.808594 14.855468 4.273438.1875 8.203125-.804687 11.238281-2.804687-3.9375-2.527344-6.441406-6.660156-6.441406-12.050781zm0 0" fill="#c65c38"/><path d="m85.558594 125.007812h-75.78125c-5.378906 0-9.777344 4.378907-9.777344 9.734376v51.886718c0 5.355469 4.398438 9.738282 9.777344 9.738282h75.78125c5.378906 0 9.777344-4.382813 9.777344-9.738282v-51.886718c0-5.355469-4.398438-9.734376-9.777344-9.734376zm0 0" fill="#ffd782"/><path d="m20.605469 186.632812v-51.890624c0-5.351563 4.398437-9.734376 9.777343-9.734376h-20.605468c-5.378906 0-9.777344 4.382813-9.777344 9.734376v51.890624c0 5.351563 4.398438 9.734376 9.777344 9.734376h20.605468c-5.378906 0-9.777343-4.382813-9.777343-9.734376zm0 0" fill="#fdbd40"/><path d="m85.558594 33.046875h-75.78125c-5.378906 0-9.777344 4.378906-9.777344 9.734375v51.886719c0 5.355469 4.398438 9.738281 9.777344 9.738281h75.78125c5.378906 0 9.777344-4.382812 9.777344-9.738281v-51.886719c0-5.355469-4.398438-9.734375-9.777344-9.734375zm0 0" fill="#ffd782"/><path d="m20.605469 94.667969v-51.886719c0-5.355469 4.398437-9.734375 9.777343-9.734375h-20.605468c-5.378906 0-9.777344 4.378906-9.777344 9.734375v51.886719c0 5.355469 4.398438 9.738281 9.777344 9.738281h20.605468c-5.378906 0-9.777343-4.382812-9.777343-9.738281zm0 0" fill="#fdbd40"/><path d="m85.558594 308.929688h-75.78125c-5.378906 0-9.777344 4.382812-9.777344 9.734374v51.890626c0 5.351562 4.398438 9.734374 9.777344 9.734374h75.78125c5.378906 0 9.777344-4.382812 9.777344-9.734374v-51.890626c0-5.355468-4.398438-9.734374-9.777344-9.734374zm0 0" fill="#ffd782"/><path d="m20.605469 370.554688v-51.890626c0-5.351562 4.398437-9.734374 9.777343-9.734374h-20.605468c-5.378906 0-9.777344 4.382812-9.777344 9.734374v51.890626c0 5.351562 4.398438 9.734374 9.777344 9.734374h20.605468c-5.378906 0-9.777343-4.382812-9.777343-9.734374zm0 0" fill="#fdbd40"/><path d="m85.558594 216.96875h-75.78125c-5.378906 0-9.777344 4.382812-9.777344 9.734375v51.890625c0 5.351562 4.398438 9.734375 9.777344 9.734375h75.78125c5.378906 0 9.777344-4.382813 9.777344-9.734375v-51.890625c0-5.355469-4.398438-9.734375-9.777344-9.734375zm0 0" fill="#ffd782"/><path d="m20.605469 278.59375v-51.890625c0-5.351563 4.398437-9.734375 9.777343-9.734375h-20.605468c-5.378906 0-9.777344 4.382812-9.777344 9.734375v51.890625c0 5.351562 4.398438 9.734375 9.777344 9.734375h20.605468c-5.378906 0-9.777343-4.382813-9.777343-9.734375zm0 0" fill="#fdbd40"/><path d="m208.878906 16.699219c-8.953125-2.398438-18.15625 2.914062-20.554687 11.867187-4.984375 18.59375-119.144531 444.644532-124.320313 463.972656-2.316406 8.640626 2.894532 15.746094 11.425782 18.441407 9.054687 2.859375 17.996093-.292969 20.429687-9.367188 5.441406-20.308593 119.746094-446.898437 124.570313-464.910156 2.335937-8.714844-2.835938-17.667969-11.550782-20.003906zm0 0" fill="#d3843d"/><path d="m83.90625 497.871094c5.179688-19.328125 119.339844-445.378906 124.320312-463.972656 1.382813-5.164063 5.039063-9.109376 9.601563-11.066407-2.125-2.902343-5.207031-5.132812-8.949219-6.132812-8.953125-2.398438-18.15625 2.914062-20.554687 11.867187-4.984375 18.59375-119.144531 444.644532-124.320313 463.972656-2.316406 8.640626 2.894532 15.746094 11.425782 18.4375 4.078124 1.289063 8.128906 1.347657 11.578124.203126-3.148437-3.460938-4.496093-8.101563-3.101562-13.308594zm0 0" fill="#c65c38"/><path d="m213.101562 147.246094-73.199218-19.613282c-5.195313-1.390624-10.578125 1.703126-11.964844 6.875l-13.429688 50.121094c-1.382812 5.171875 1.730469 10.542969 6.925782 11.933594l73.199218 19.613281c5.195313 1.390625 10.578126-1.703125 11.964844-6.875l13.429688-50.117187c1.382812-5.175782-1.730469-10.546875-6.925782-11.9375zm0 0" fill="#ffd782"/><path d="m134.410156 189.960938 13.429688-50.121094c1.386718-5.171875 6.769531-8.265625 11.964844-6.875l-19.902344-5.332032c-5.195313-1.394531-10.578125 1.703126-11.964844 6.875l-13.429688 50.117188c-1.386718 5.175781 1.730469 10.546875 6.925782 11.9375l19.902344 5.332031c-5.195313-1.390625-8.3125-6.761719-6.925782-11.933593zm0 0" fill="#fdbd40"/><path d="m236.902344 58.417969-73.199219-19.613281c-5.195313-1.390626-10.578125 1.703124-11.964844 6.875l-13.429687 50.121093c-1.382813 5.171875 1.730468 10.542969 6.925781 11.933594l73.199219 19.613281c5.195312 1.390625 10.578125-1.703125 11.964844-6.875l13.429687-50.117187c1.386719-5.175781-1.730469-10.546875-6.925781-11.9375zm0 0" fill="#ffd782"/><path d="m158.210938 101.132812 13.429687-50.121093c1.386719-5.171875 6.769531-8.265625 11.964844-6.875l-19.902344-5.332031c-5.195313-1.390626-10.578125 1.703124-11.964844 6.875l-13.429687 50.121093c-1.386719 5.171875 1.730468 10.542969 6.925781 11.933594l19.902344 5.332031c-5.195313-1.390625-8.308594-6.761718-6.925781-11.933594zm0 0" fill="#fdbd40"/><path d="m165.5 324.902344-73.199219-19.613282c-5.195312-1.394531-10.578125 1.699219-11.964843 6.875l-13.429688 50.117188c-1.386719 5.171875 1.730469 10.542969 6.925781 11.9375l73.195313 19.613281c5.195312 1.390625 10.582031-1.703125 11.96875-6.875l13.425781-50.121093c1.386719-5.171876-1.730469-10.542969-6.921875-11.933594zm0 0" fill="#ffd782"/><path d="m86.808594 367.613281 13.429687-50.117187c1.386719-5.171875 6.769531-8.265625 11.964844-6.875l-19.902344-5.332032c-5.195312-1.394531-10.582031 1.699219-11.964843 6.875l-13.429688 50.117188c-1.386719 5.171875 1.730469 10.542969 6.925781 11.9375l19.902344 5.332031c-5.195313-1.390625-8.3125-6.765625-6.925781-11.9375zm0 0" fill="#fdbd40"/><path d="m189.300781 236.074219-73.199219-19.613281c-5.195312-1.390626-10.578124 1.703124-11.964843 6.875l-13.429688 50.117187c-1.386719 5.175781 1.730469 10.546875 6.925781 11.9375l73.199219 19.613281c5.191407 1.390625 10.578125-1.703125 11.964844-6.875l13.425781-50.117187c1.386719-5.175781-1.726562-10.546875-6.921875-11.9375zm0 0" fill="#ffd782"/><path d="m110.609375 278.785156 13.429687-50.117187c1.386719-5.171875 6.769532-8.265625 11.964844-6.875l-19.902344-5.332031c-5.195312-1.394532-10.582031 1.699218-11.964843 6.875l-13.429688 50.117187c-1.386719 5.171875 1.730469 10.542969 6.925781 11.9375l19.902344 5.332031c-5.195312-1.390625-8.3125-6.761718-6.925781-11.9375zm0 0" fill="#fdbd40"/></svg>