<svg viewBox="-136 0 512 512.00004" xmlns="http://www.w3.org/2000/svg"><path d="m39.730469 352.945312v138.558594c0 11.320313 9.175781 20.496094 20.496093 20.496094 11.320313 0 20.5-9.175781 20.5-20.496094v-138.558594zm0 0" fill="#d3843d"/><path d="m160.183594 352.945312v138.558594c0 11.320313 9.175781 20.496094 20.496094 20.496094 11.320312 0 20.496093-9.175781 20.496093-20.496094v-138.558594zm0 0" fill="#d3843d"/><path d="m60.226562 491.503906v-138.558594h-20.496093v138.558594c0 11.320313 9.175781 20.496094 20.496093 20.496094 3.738282 0 7.230469-1.015625 10.25-2.765625-6.121093-3.546875-10.25-10.148437-10.25-17.730469zm0 0" fill="#c65c38"/><path d="m180.679688 491.503906v-138.558594h-20.496094v138.558594c0 11.320313 9.175781 20.496094 20.496094 20.496094 3.738281 0 7.230468-1.015625 10.246093-2.765625-6.117187-3.546875-10.246093-10.148437-10.246093-17.730469zm0 0" fill="#c65c38"/><path d="m105.082031 0h-89.707031c-8.457031 0-15.375 6.917969-15.375 15.375v328.378906c0 8.453125 6.917969 15.371094 15.375 15.371094h89.707031c8.453125 0 15.371094-6.917969 15.371094-15.371094v-328.378906c0-8.457031-6.917969-15.375-15.371094-15.375zm0 0" fill="#b7e9f9"/><path d="m225.53125 0h-89.707031c-8.453125 0-15.371094 6.917969-15.371094 15.375v328.378906c0 8.453125 6.917969 15.371094 15.371094 15.371094h89.707031c8.457031 0 15.375-6.917969 15.375-15.371094v-328.378906c0-8.457031-6.917969-15.375-15.375-15.375zm0 0" fill="#c65c38"/><path d="m20.605469 343.753906v-328.378906c0-8.457031 6.917969-15.375 15.371093-15.375h-20.601562c-8.457031 0-15.375 6.917969-15.375 15.375v328.378906c0 8.453125 6.917969 15.371094 15.375 15.371094h20.601562c-8.453124 0-15.371093-6.917969-15.371093-15.371094zm0 0" fill="#87cee9"/><path d="m141.058594 343.753906v-328.378906c0-8.457031 6.917968-15.375 15.371094-15.375h-20.605469c-8.453125 0-15.371094 6.917969-15.371094 15.375v328.378906c0 8.453125 6.917969 15.371094 15.371094 15.371094h20.605469c-8.453126 0-15.371094-6.917969-15.371094-15.371094zm0 0" fill="#9c2d20"/><path d="m190.878906 77.84375-7.046875-7.046875c-3.019531-3.015625-3.019531-7.910156 0-10.925781 3.015625-3.015625 7.910157-3.015625 10.925781 0l7.046876 7.042968c3.019531 3.019532 3.019531 7.910157 0 10.929688-3.019532 3.015625-7.910157 3.015625-10.925782 0zm0 0" fill="#9c2d20"/><path d="m71.628906 309.71875-7.042968-7.046875c-3.019532-3.019531-3.019532-7.910156 0-10.929687 3.015624-3.015626 7.910156-3.015626 10.925781 0l7.046875 7.046874c3.015625 3.019532 3.015625 7.910157 0 10.929688-3.019532 3.015625-7.910156 3.015625-10.929688 0zm0 0" fill="#87cee9"/><path d="m9.308594 302.671875-7.042969-7.046875c-3.019531-3.015625-3.019531-7.910156 0-10.925781 3.015625-3.019531 7.910156-3.019531 10.925781 0l7.046875 7.042969c3.015625 3.019531 3.015625 7.910156 0 10.929687-3.019531 3.019531-7.910156 3.015625-10.929687 0zm0 0" fill="#32b1cc"/><path d="m161.765625 302.671875-7.046875-7.046875c-3.019531-3.015625-3.019531-7.910156 0-10.925781 3.015625-3.019531 7.910156-3.019531 10.925781 0l7.046875 7.042969c3.019532 3.019531 3.019532 7.910156 0 10.929687-3.019531 3.019531-7.910156 3.015625-10.925781 0zm0 0" fill="#9c2d20"/><path d="m180.308594 195.703125-7.046875-7.046875c-3.019531-3.019531-3.019531-7.910156 0-10.929688 3.015625-3.015624 7.910156-3.015624 10.925781 0l7.046875 7.046876c3.019531 3.019531 3.019531 7.910156 0 10.929687-3.015625 3.015625-7.910156 3.015625-10.925781 0zm0 0" fill="#9c2d20"/><path d="m161.945312 113.714844-7.042968-7.046875c-3.019532-3.015625-3.019532-7.910157-.003906-10.925781 3.019531-3.019532 7.910156-3.019532 10.929687-.003907l7.046875 7.046875c3.015625 3.019532 3.015625 7.910156 0 10.929688-3.019531 3.015625-7.910156 3.015625-10.929688 0zm0 0" fill="#9c2d20"/><path d="m68.109375 136.132812-7.046875-7.046874c-3.019531-3.015626-3.019531-7.910157 0-10.925782 3.015625-3.015625 7.910156-3.015625 10.925781 0l7.046875 7.046875c3.019532 3.015625 3.019532 7.910157 0 10.925781-3.019531 3.019532-7.910156 3.015626-10.925781 0zm0 0" fill="#87cee9"/><path d="m34.265625 20.234375-7.046875-7.042969c-3.015625-3.019531-3.015625-7.910156 0-10.929687 3.019531-3.015625 7.910156-3.015625 10.929688 0l7.046874 7.046875c3.015626 3.015625 3.015626 7.910156 0 10.925781-3.019531 3.019531-7.910156 3.019531-10.929687 0zm0 0" fill="#87cee9"/><path d="m149.136719 203.390625-7.046875-7.046875c-3.015625-3.015625-3.019532-7.910156 0-10.925781 3.019531-3.019531 7.910156-3.019531 10.929687-.003907l7.042969 7.046876c3.019531 3.015624 3.019531 7.910156.003906 10.925781-3.019531 3.019531-7.910156 3.019531-10.929687.003906zm0 0" fill="#9c2d20"/><path d="m199.738281 265.519531-7.046875-7.046875c-3.019531-3.015625-3.019531-7.910156 0-10.925781 3.015625-3.015625 7.910156-3.015625 10.925782 0l7.046874 7.046875c3.019532 3.015625 3.019532 7.910156 0 10.925781-3.019531 3.019531-7.910156 3.019531-10.925781 0zm0 0" fill="#9c2d20"/><path d="m37.789062 224.527344-7.046874-7.046875c-3.015626-3.019531-3.015626-7.910157 0-10.929688 3.019531-3.015625 7.910156-3.015625 10.929687 0l7.042969 7.046875c3.019531 3.019532 3.019531 7.910156 0 10.929688-3.015625 3.015625-7.910156 3.015625-10.925782 0zm0 0" fill="#87cee9"/><path d="m180.308594 154.066406c-3.019532-3.015625-3.019532-7.910156 0-10.925781l7.046875-7.046875c3.015625-3.015625 7.910156-3.015625 10.925781 0 3.019531 3.019531 3.019531 7.910156 0 10.929688l-7.046875 7.042968c-3.015625 3.019532-7.910156 3.019532-10.925781 0zm0 0" fill="#9c2d20"/><g fill="#87cee9"><path d="m54.761719 253.992188c-3.015625-3.019532-3.015625-7.910157 0-10.929688l7.046875-7.046875c3.019531-3.015625 7.910156-3.015625 10.929687 0 3.015625 3.019531 3.015625 7.910156 0 10.929687l-7.046875 7.046876c-3.019531 3.015624-7.910156 3.015624-10.929687 0zm0 0"/><path d="m61.0625 188.65625c-3.019531-3.019531-3.019531-7.910156 0-10.929688l7.046875-7.042968c3.015625-3.019532 7.910156-3.019532 10.925781 0 3.019532 3.015625 3.019532 7.910156 0 10.925781l-7.046875 7.046875c-3.015625 3.019531-7.910156 3.015625-10.925781 0zm0 0"/><path d="m27.21875 103.144531c-3.015625-3.015625-3.015625-7.910156 0-10.925781l7.046875-7.046875c3.019531-3.015625 7.910156-3.015625 10.929687 0 3.015626 3.015625 3.015626 7.910156 0 10.925781l-7.046874 7.046875c-3.019532 3.019531-7.910157 3.015625-10.929688 0zm0 0"/></g><path d="m142.089844 35.570312c-3.015625-3.019531-3.019532-7.910156 0-10.929687l7.046875-7.046875c3.015625-3.015625 7.90625-3.015625 10.925781 0s3.019531 7.910156.003906 10.925781l-7.046875 7.050781c-3.019531 3.015626-7.910156 3.015626-10.929687 0zm0 0" fill="#9c2d20"/><path d="m64.585938 70.796875c-3.019532-3.015625-3.019532-7.910156 0-10.925781l7.042968-7.046875c3.019532-3.015625 7.910156-3.015625 10.929688 0 3.015625 3.015625 3.015625 7.910156 0 10.925781l-7.046875 7.046875c-3.019531 3.019531-7.910157 3.019531-10.925781 0zm0 0" fill="#87cee9"/><path d="m220.667969 106.667969c-3.015625-3.019531-3.015625-7.910157 0-10.929688l7.046875-7.042969c3.019531-3.015624 7.910156-3.019531 10.929687 0 3.015625 3.015626 3.015625 7.910157 0 10.925782l-7.046875 7.046875c-3.019531 3.015625-7.910156 3.019531-10.929687 0zm0 0" fill="#9c2d20"/><path d="m159.382812 246.945312c-3.015624-3.019531-3.015624-7.910156 0-10.929687l7.046876-7.046875c3.015624-3.015625 7.910156-3.015625 10.925781.003906 3.019531 3.015625 3.019531 7.910156 0 10.925782l-7.042969 7.046874c-3.019531 3.015626-7.910156 3.019532-10.929688 0zm0 0" fill="#9c2d20"/></svg>