<svg viewBox="-79 0 511 511.99983" xmlns="http://www.w3.org/2000/svg"><g fill="#d3843d"><path d="m156.9375 358.117188v134.078124c0 10.9375 8.867188 19.804688 19.800781 19.804688 10.9375 0 19.804688-8.867188 19.804688-19.804688v-134.078124zm0 0"/><path d="m274.429688 358.117188v134.078124c0 10.9375 8.863281 19.804688 19.800781 19.804688s19.804687-8.867188 19.804687-19.804688v-134.078124zm0 0"/><path d="m39.445312 358.117188v134.078124c0 10.9375 8.863282 19.804688 19.800782 19.804688s19.804687-8.867188 19.804687-19.804688v-134.078124zm0 0"/></g><path d="m177.539062 492.195312v-134.078124h-20.601562v134.078124c0 10.9375 8.863281 19.804688 19.800781 19.804688 3.78125 0 7.296875-1.078125 10.300781-2.914062-5.6875-3.480469-9.5-9.730469-9.5-16.890626zm0 0" fill="#c65c38"/><path d="m295.035156 492.195312v-134.078124h-20.605468v134.078124c0 10.9375 8.863281 19.804688 19.804687 19.804688 3.777344 0 7.296875-1.078125 10.300781-2.914062-5.691406-3.480469-9.5-9.730469-9.5-16.890626zm0 0" fill="#c65c38"/><path d="m60.050781 492.195312v-134.078124h-20.605469v134.078124c0 10.9375 8.863282 19.804688 19.800782 19.804688 3.78125 0 7.296875-1.078125 10.304687-2.914062-5.691406-3.480469-9.5-9.730469-9.5-16.890626zm0 0" fill="#c65c38"/><path d="m177.9375.0117188c-33.078125-.6601568-59.945312 26.7265622-59.945312 59.8125002v295.214843c0 5.113282 4.148437 9.261719 9.261718 9.261719h99.074219c5.058594 0 9.15625-4.101562 9.15625-9.160156v-296.394531c0-32.042969-25.65625-58.097656-57.546875-58.7343752zm0 0" fill="#fff69a"/><path d="m138.597656 355.039062v-295.214843c0-29.179688 20.90625-53.917969 48.535156-58.898438-2.992187-.535156-6.0625-.8515622-9.195312-.9140622-33.078125-.6601568-59.945312 26.7265622-59.945312 59.8125002v295.214843c0 5.113282 4.148437 9.261719 9.261718 9.261719h20.605469c-5.113281 0-9.261719-4.148437-9.261719-9.261719zm0 0" fill="#ffd782"/><path d="m60.445312.0117188c-33.078124-.6601568-59.945312 26.7265622-59.945312 59.8125002v295.214843c0 5.113282 4.148438 9.261719 9.261719 9.261719h99.074219c5.058593 0 9.15625-4.101562 9.15625-9.160156v-296.394531c0-32.042969-25.65625-58.097656-57.546876-58.7343752zm0 0" fill="#f98c96"/><path d="m21.105469 355.039062v-295.214843c0-29.179688 20.90625-53.917969 48.535156-58.898438-2.996094-.535156-6.0625-.8515622-9.195313-.9140622-33.078124-.6601568-59.945312 26.7265622-59.945312 59.8125002v295.214843c0 5.113282 4.148438 9.261719 9.261719 9.261719h20.605469c-5.117188 0-9.261719-4.148437-9.261719-9.261719zm0 0" fill="#ea5471"/><path d="m350.421875 76.332031c-3.472656-1.800781-6.519531-4.304687-8.945313-7.332031-2.664062-3.320312-5.609374-1.949219-9.871093-1.949219-18.375 0-33.210938-14.9375-33.15625-33.234375.003906-1.890625-.960938-3.613281-2.5625-4.613281-8.226563-5.136719-13.164063-14.148437-13.117188-23.679687.003907-2.277344-2.105469-3.945313-4.292969-3.320313-24.835937 7.082031-42.988281 30.425781-42.988281 57.621094v295.214843c0 5.113282 4.144531 9.261719 9.257813 9.261719h99.074218c5.058594 0 9.160157-4.101562 9.160157-9.160156v-274.707031c0-1.742188-1.007813-3.300782-2.558594-4.101563zm0 0" fill="#c8d952"/><path d="m256.089844 355.039062v-295.214843c0-20.90625 10.734375-39.523438 26.976562-50.242188-.214844-1.476562-.304687-2.929687-.296875-4.058593.003907-2.277344-2.105469-3.945313-4.292969-3.320313-24.835937 7.082031-42.988281 30.425781-42.988281 57.621094v295.214843c0 5.113282 4.144531 9.257813 9.257813 9.257813h20.605468c-5.113281.003906-9.261718-4.144531-9.261718-9.257813zm0 0" fill="#8ec13f"/><path d="m352.980469 259.039062v-108.09375c-7.789063.53125-14.753907-3.09375-18.917969-8.875-.828125-1.148437-2.523438-1.140624-3.351562.003907-3.894532 5.40625-10.230469 8.925781-17.402344 8.925781-7.117188 0-13.417969-3.472656-17.320313-8.8125-.875-1.199219-2.636719-1.199219-3.515625 0-3.898437 5.339844-10.199218 8.8125-17.320312 8.8125-7.53125 0-14.144532-3.886719-17.972656-9.757812-.527344-.808594-1.683594-.808594-2.210938 0-4.082031 6.261718-11.332031 10.261718-19.484375 9.703124v108.09375c8.152344.558594 15.402344-3.441406 19.484375-9.703124.527344-.808594 1.683594-.808594 2.210938 0 3.828124 5.871093 10.441406 9.757812 17.972656 9.757812 7.121094 0 13.421875-3.472656 17.320312-8.8125.875-1.199219 2.640625-1.199219 3.515625 0 3.902344 5.339844 10.199219 8.8125 17.320313 8.8125 7.171875 0 13.507812-3.519531 17.402344-8.921875.828124-1.148437 2.523437-1.15625 3.351562-.007813 4.164062 5.78125 11.128906 9.40625 18.917969 8.875zm0 0" fill="#8ec13f"/><path d="m254.972656 249.335938c.265625-.410157.691406-.609376 1.117188-.605469v-108.09375c-.425782-.003907-.851563.195312-1.117188.605469-4.082031 6.261718-11.332031 10.261718-19.488281 9.703124v108.09375c8.15625.558594 15.40625-3.441406 19.488281-9.703124zm0 0" fill="#7cad27"/><path d="m350.421875 76.332031c-3.113281-1.613281-6.488281-4.265625-8.945313-7.332031-2.667968-3.324219-5.617187-1.949219-9.871093-1.949219-18.375 0-33.210938-14.9375-33.15625-33.234375.003906-2.261718-1.191407-3.738281-2.917969-4.847656-6.78125-4.375-11.371094-11.539062-12.484375-19.511719-.140625-1.007812-.28125-2.664062-.277344-3.933593.003907-2.242188-2.046875-3.882813-4.199219-3.335938-5.484374 1.46875-11.988281 4.445312-17.65625 8.457031-16.109374 11.386719-25.425781 29.863281-25.425781 49.179688v91.121093c8.152344.558594 15.402344-3.441406 19.484375-9.703124.527344-.808594 1.683594-.808594 2.210938 0 3.828125 5.871093 10.4375 9.757812 17.972656 9.757812 7.117188 0 13.417969-3.472656 17.320312-8.8125.875-1.199219 2.636719-1.199219 3.515626 0 3.898437 5.339844 10.199218 8.8125 17.320312 8.8125 7.167969 0 13.503906-3.523438 17.402344-8.925781.824218-1.144531 2.523437-1.152344 3.347656-.007813 4.167969 5.785156 11.128906 9.410156 18.917969 8.875v-70.507812c0-1.742188-1.007813-3.300782-2.558594-4.101563zm0 0" fill="#7cad27"/><path d="m278.570312 2.1875c-5.503906 1.476562-12.015624 4.464844-17.65625 8.457031-15.597656 11.015625-25.429687 29.242188-25.429687 49.179688v91.121093c8.152344.558594 15.402344-3.441406 19.484375-9.703124.269531-.410157.695312-.609376 1.121094-.605469v-80.8125c0-20.90625 10.734375-39.523438 26.976562-50.242188 0 0-.019531-.105469-.023437-.125-.253907-1.824219-.28125-3.117187-.273438-3.933593.003907-2.230469-2.039062-3.886719-4.199219-3.335938zm0 0" fill="#6b9618"/><path d="m235.484375 259.039062v-108.09375c-7.785156.53125-14.75-3.09375-18.917969-8.875-.824218-1.148437-2.523437-1.140624-3.347656.003907-3.894531 5.40625-10.234375 8.925781-17.402344 8.925781-7.121094 0-13.417968-3.472656-17.320312-8.8125-.875-1.199219-2.640625-1.199219-3.515625 0-3.902344 5.339844-10.199219 8.8125-17.320313 8.8125-7.53125 0-14.144531-3.886719-17.972656-9.757812-.527344-.808594-1.683594-.808594-2.210938 0-4.082031 6.261718-11.332031 10.261718-19.484374 9.703124v108.09375c8.152343.558594 15.402343-3.441406 19.484374-9.703124.527344-.808594 1.683594-.808594 2.210938 0 3.828125 5.871093 10.441406 9.757812 17.972656 9.757812 7.121094 0 13.417969-3.472656 17.320313-8.8125.875-1.199219 2.640625-1.199219 3.515625 0 3.902344 5.339844 10.199218 8.8125 17.320312 8.8125 7.167969 0 13.507813-3.519531 17.402344-8.921875.824219-1.148437 2.523438-1.15625 3.347656-.007813 4.167969 5.78125 11.132813 9.40625 18.917969 8.875zm0 0" fill="#ffd782"/><path d="m137.480469 249.335938c.265625-.410157.691406-.609376 1.117187-.605469v-108.09375c-.425781-.003907-.851562.195312-1.117187.605469-4.082031 6.261718-11.332031 10.261718-19.488281 9.703124v108.09375c8.15625.558594 15.40625-3.441406 19.488281-9.703124zm0 0" fill="#fdbd40"/><path d="m177.9375.0117188c-33.078125-.6601568-59.945312 26.7265622-59.945312 59.8125002v91.121093c8.152343.558594 15.402343-3.441406 19.484374-9.703124.527344-.808594 1.683594-.808594 2.210938 0 3.828125 5.871093 10.441406 9.757812 17.972656 9.757812 7.121094 0 13.421875-3.472656 17.320313-8.8125.875-1.199219 2.640625-1.199219 3.515625 0 3.902344 5.339844 10.199218 8.8125 17.320312 8.8125 7.171875 0 13.507813-3.523438 17.402344-8.925781.828125-1.144531 2.523438-1.152344 3.351562-.007813 4.164063 5.785156 11.128907 9.410156 18.917969 8.875v-92.195312c-.003906-32.042969-25.660156-58.097656-57.550781-58.7343752zm0 0" fill="#fdbd40"/><path d="m137.480469 141.242188c.265625-.410157.691406-.609376 1.117187-.605469v-80.8125c0-29.179688 20.90625-53.917969 48.535156-58.898438-2.988281-.535156-6.359374-.8593748-9.195312-.9140622-33.058594-.6640628-59.945312 26.7109372-59.945312 59.8125002v91.121093c8.15625.558594 15.40625-3.441406 19.488281-9.703124zm0 0" fill="#f2aa2a"/><path d="m117.992188 259.039062v-108.09375c-7.785157.53125-14.75-3.09375-18.917969-8.875-.824219-1.148437-2.519531-1.140624-3.347657.003907-3.894531 5.40625-10.234374 8.925781-17.402343 8.925781-7.121094 0-13.417969-3.472656-17.320313-8.8125-.875-1.199219-2.640625-1.199219-3.515625 0-3.898437 5.339844-10.199219 8.8125-17.320312 8.8125-7.53125 0-14.144531-3.886719-17.972657-9.757812-.527343-.808594-1.683593-.808594-2.210937 0-4.082031 6.261718-11.332031 10.261718-19.484375 9.703124v108.09375c8.152344.558594 15.402344-3.441406 19.484375-9.703124.527344-.808594 1.683594-.808594 2.210937 0 3.828126 5.871093 10.441407 9.757812 17.972657 9.757812 7.121093 0 13.421875-3.472656 17.320312-8.8125.875-1.199219 2.640625-1.199219 3.515625 0 3.902344 5.339844 10.199219 8.8125 17.320313 8.8125 7.167969 0 13.507812-3.519531 17.402343-8.921875.828126-1.148437 2.523438-1.15625 3.347657-.007813 4.167969 5.78125 11.132812 9.40625 18.917969 8.875zm0 0" fill="#ea5471"/><path d="m.5 259.039062c8.152344.558594 15.402344-3.441406 19.484375-9.703124.269531-.410157.695313-.609376 1.121094-.605469v-108.09375c-.425781-.003907-.851563.195312-1.121094.605469-4.082031 6.261718-11.332031 10.261718-19.484375 9.703124zm0 0" fill="#da1c4b"/><path d="m60.445312.0117188c-33.078124-.6601568-59.945312 26.7265622-59.945312 59.8125002v91.121093c8.152344.558594 15.402344-3.441406 19.484375-9.703124.527344-.808594 1.683594-.808594 2.210937 0 3.828126 5.871093 10.441407 9.757812 17.972657 9.757812 7.121093 0 13.421875-3.472656 17.320312-8.8125.875-1.199219 2.640625-1.199219 3.515625 0 3.902344 5.339844 10.199219 8.8125 17.320313 8.8125 7.171875 0 13.507812-3.523438 17.402343-8.925781.828126-1.144531 2.523438-1.152344 3.351563-.007813 4.164063 5.785156 11.128906 9.410156 18.917969 8.875v-92.195312c-.003906-32.042969-25.660156-58.097656-57.550782-58.7343752zm0 0" fill="#da1c4b"/><path d="m.5 59.824219v91.121093c8.152344.558594 15.402344-3.441406 19.484375-9.703124.269531-.410157.695313-.609376 1.121094-.605469v-80.8125c0-29.179688 20.90625-53.917969 48.535156-58.898438-2.96875-.53125-6.339844-.8593748-9.195313-.9140622-33.03125-.6601568-59.945312 26.6757812-59.945312 59.8125002zm0 0" fill="#bf0443"/></svg>