<svg viewBox="-38 0 512 512.00002" xmlns="http://www.w3.org/2000/svg"><path d="m25.777344 307.171875 30.738281 169.410156c3.722656 20.511719 21.503906 35.417969 42.25 35.417969h238.484375c20.75 0 38.53125-14.90625 42.253906-35.417969l30.738282-169.410156zm0 0" fill="#ffd782"/><g fill="#fdbd40"><path d="m184.367188 512h-66.671876l-10.320312-204.828125h69.253906zm0 0"/><path d="m315.742188 512h-64.089844l7.738281-204.828125h69.25zm0 0"/><path d="m76.8125 476.582031-30.738281-169.410156h-20.296875l30.738281 169.410156c3.722656 20.511719 21.503906 35.417969 42.25 35.417969h20.300781c-20.75 0-38.53125-14.90625-42.253906-35.417969zm0 0"/></g><path d="m107.375 307.171875 10.320312 204.828125h20.296876l-10.316407-204.828125zm0 0" fill="#f2aa2a"/><path d="m259.390625 307.171875-7.738281 204.828125h20.296875l7.738281-204.828125zm0 0" fill="#f2aa2a"/><path d="m412.335938 226.363281c-.746094-19.09375-10.667969-35.980469-25.445313-46.339843-8.03125-5.628907-14.011719-13.640626-17.671875-22.738282-6.8125-16.929687-23.117188-29.164062-42.199219-29.964844-6.683593 0-201.796875 0-218.019531 0-17.027344.714844-31.84375 10.53125-39.675781 24.667969-6.550781 11.816407-14.574219 22.835938-24.832031 31.632813-12.183594 10.453125-20.140626 25.722656-20.808594 42.738281-.9375 23.960937 12.320312 44.910156 32.03125 55.160156h324.589844c19.710937-10.25 32.964843-31.199219 32.03125-55.15625zm0 0" fill="#ea5471"/><path d="m308.226562 237.921875c-1.808593-3.792969-.195312-8.335937 3.597657-10.144531l13.546875-6.449219c3.792968-1.808594 8.335937-.195313 10.144531 3.601563 1.804687 3.796874.195313 8.335937-3.601563 10.144531l-13.542968 6.449219c-3.808594 1.8125-8.34375.1875-10.144532-3.601563zm0 0" fill="#da1c4b"/><path d="m260.394531 207.796875-13.542969-6.449219c-3.796874-1.808594-5.410156-6.351562-3.601562-10.144531 1.808594-3.796875 6.347656-5.40625 10.144531-3.601563l13.546875 6.449219c3.792969 1.808594 5.40625 6.351563 3.597656 10.144531-1.800781 3.785157-6.335937 5.414063-10.144531 3.601563zm0 0" fill="#87cee9"/><path d="m174.316406 241.523438-13.542968-6.449219c-3.796876-1.808594-5.410157-6.347657-3.601563-10.144531 1.808594-3.792969 6.351563-5.410157 10.144531-3.601563l13.546875 6.449219c3.792969 1.808594 5.40625 6.351562 3.597657 10.144531-1.808594 3.796875-6.351563 5.410156-10.144532 3.601563zm0 0" fill="#ffd782"/><path d="m100.503906 204.195312c-1.808594-3.792968-.195312-8.335937 3.597656-10.144531l13.546876-6.449219c3.792968-1.804687 8.335937-.195312 10.144531 3.601563 1.808593 3.792969.195312 8.335937-3.601563 10.144531l-13.542968 6.449219c-3.804688 1.808594-8.339844.1875-10.144532-3.601563zm0 0" fill="#da1c4b"/><path d="m315.097656 183.785156c-4.179687 0-7.609375-3.414062-7.609375-7.613281 0-4.832031 4.421875-8.390625 9.09375-7.46875 3.730469.78125 6.128907 3.96875 6.128907 7.46875 0 4.046875-3.273438 7.613281-7.613282 7.613281zm0 0" fill="#ffd782"/><path d="m167.78125 183.785156c-4.207031 0-7.609375-3.441406-7.609375-7.613281 0-4.761719 4.355469-8.394531 9.101563-7.46875 3.746093.785156 6.121093 3.980469 6.121093 7.46875 0 4.082031-3.265625 7.613281-7.613281 7.613281zm0 0" fill="#ffd782"/><path d="m43.984375 226.359375c.664063-17.019531 8.621094-32.285156 20.808594-42.738281 10.257812-8.796875 18.28125-19.816406 24.828125-31.632813 7.835937-14.136719 22.648437-23.953125 39.679687-24.667969-10.398437 0-17.683593 0-20.300781 0-17.027344.714844-31.84375 10.53125-39.675781 24.667969-6.550781 11.816407-14.574219 22.835938-24.832031 31.632813-12.183594 10.453125-20.140626 25.722656-20.808594 42.738281-.9375 23.960937 12.320312 44.910156 32.03125 55.160156h20.296875c-19.710938-10.25-32.964844-31.199219-32.027344-55.160156zm0 0" fill="#da1c4b"/><path d="m425.683594 308.179688h-415.351563c-5.707031 0-10.332031-4.625-10.332031-10.332032v-6.476562c0-5.707032 4.625-10.335938 10.332031-10.335938h415.351563c5.707031 0 10.335937 4.628906 10.335937 10.335938v6.476562c0 5.707032-4.628906 10.332032-10.335937 10.332032zm0 0" fill="#fff69a"/><path d="m425.53125 288.289062h-415.042969c-3.167969 0-6-1.40625-7.921875-3.625-1.59375 1.839844-2.566406 4.234376-2.566406 6.859376v6.167968c0 5.792969 4.695312 10.488282 10.488281 10.488282h415.042969c5.792969 0 10.488281-4.695313 10.488281-10.488282v-6.167968c0-2.625-.972656-5.019532-2.566406-6.859376-1.925781 2.21875-4.757813 3.625-7.921875 3.625zm0 0" fill="#ffd782"/><path d="m218.007812 67.984375c-4.203124 0-7.609374-3.40625-7.609374-7.609375 0-21.792969-11.5-39.4375-18.351563-48.011719-2.625-3.285156-2.089844-8.074219 1.195313-10.699219 3.285156-2.621093 8.074218-2.085937 10.695312 1.195313 8.097656 10.132813 21.683594 31.078125 21.683594 57.515625 0 4.203125-3.40625 7.609375-7.613282 7.609375zm0 0" fill="#d3843d"/><path d="m258.429688 100.792969c0 22.324219-18.097657 40.421875-40.421876 40.421875-22.320312 0-40.417968-18.097656-40.417968-40.421875s18.097656-40.417969 40.417968-40.417969c22.324219 0 40.421876 18.09375 40.421876 40.417969zm0 0" fill="#da1c4b"/><path d="m197.886719 100.792969c0-18.816407 12.859375-34.628907 30.269531-39.132813-3.242188-.839844-6.640625-1.285156-10.148438-1.285156-22.320312 0-40.417968 18.09375-40.417968 40.417969s18.097656 40.421875 40.417968 40.421875c3.507813 0 6.90625-.449219 10.148438-1.285156-17.410156-4.503907-30.269531-20.316407-30.269531-39.136719zm0 0" fill="#bf0443"/></svg>