<svg viewBox="-16 0 512 512.00073" xmlns="http://www.w3.org/2000/svg"><path d="m350.488281 432.402344h-222.871093l-12.738282-221.277344h248.34375zm0 0" fill="#ea5471"/><path d="m114.882812 211.125 12.734376 221.277344h20.605468l-12.738281-221.277344zm0 0" fill="#da1c4b"/><path d="m117.46875 256.054688 10.148438 176.347656h222.871093l10.148438-176.347656zm0 0" fill="#c65c38"/><path d="m148.222656 432.402344-10.152344-176.347656h-20.605468c.613281 10.652343 9.851562 171.132812 10.152344 176.347656zm0 0" fill="#9c2d20"/><path d="m353.859375 373.839844 3.410156-59.21875h-236.433593l3.410156 59.21875zm0 0" fill="#d3843d"/><path d="m124.246094 373.839844h20.605468l-3.410156-59.21875h-20.605468c.386718 6.703125 3.039062 52.75 3.410156 59.21875zm0 0" fill="#c65c38"/><path d="m235.523438 1.933594c-18.84375 16.230468-46.839844 46.816406-42.261719 82.363281h91.160156s-37.511719-32.449219-35.867187-76.003906c.261718-6.933594-7.773438-10.886719-13.03125-6.359375zm0 0" fill="#f98c96"/><path d="m248.550781 8.835938c.007813-.183594 0-.363282.007813-.546876.261718-6.929687-7.777344-10.882812-13.035156-6.355468-18.84375 16.230468-46.839844 46.816406-42.261719 82.363281h20.605469c-3.996094-31.011719 16.796874-58.238281 34.683593-75.460937zm0 0" fill="#ea5471"/><path d="m335.5625 180.132812c5.519531-19.101562-8.257812-38.394531-27.507812-38.394531h-138.003907c-19.152343 0-33.058593 19.1875-27.507812 38.394531zm0 0" fill="#f98c96"/><path d="m190.65625 141.738281h-20.605469c-19.1875 0-33.046875 19.230469-27.507812 38.394531h20.605469c-5.539063-19.15625 8.3125-38.394531 27.507812-38.394531zm0 0" fill="#ea5471"/><path d="m313.628906 113.097656c0-16.066406-12.859375-29.089844-28.722656-29.089844h-91.710938c-15.859374 0-28.71875 13.023438-28.71875 29.089844 0 16.0625 12.859376 29.085938 28.71875 29.085938h91.710938c15.863281 0 28.722656-13.023438 28.722656-29.085938zm0 0" fill="#ea5471"/><path d="m185.082031 113.097656c0-16.066406 12.859375-29.089844 28.71875-29.089844h-20.605469c-15.859374 0-28.71875 13.023438-28.71875 29.089844 0 16.0625 12.859376 29.085938 28.71875 29.085938h20.605469c-15.859375 0-28.71875-13.023438-28.71875-29.085938zm0 0" fill="#da1c4b"/><path d="m370.9375 178.722656h-263.769531c-9.144531 0-16.558594 7.410156-16.558594 16.554688 0 9.144531 7.414063 16.558594 16.558594 16.558594h263.769531c9.144531 0 16.554688-7.414063 16.554688-16.558594 0-9.144532-7.410157-16.554688-16.554688-16.554688zm0 0" fill="#b7e9f9"/><path d="m370.9375 191.230469h-263.769531c-5.246094 0-9.914063-2.449219-12.945313-6.253907-8.617187 10.808594-.902344 26.859376 12.945313 26.859376h263.769531c9.144531 0 16.554688-7.414063 16.554688-16.558594 0-3.898438-1.355469-7.472656-3.609376-10.300782-3.03125 3.804688-7.699218 6.253907-12.945312 6.253907zm0 0" fill="#87cee9"/><path d="m398.207031 471.21875h-317.027343c-10.992188 0-19.902344 9.128906-19.902344 20.390625s8.910156 20.390625 19.902344 20.390625h317.027343c10.992188 0 19.902344-9.128906 19.902344-20.390625s-8.910156-20.390625-19.902344-20.390625zm0 0" fill="#b7e9f9"/><path d="m81.882812 491.609375c0-11.261719 8.910157-20.390625 19.898438-20.390625h-20.601562c-10.992188 0-19.902344 9.128906-19.902344 20.390625s8.910156 20.390625 19.902344 20.390625h20.601562c-10.988281 0-19.898438-9.128906-19.898438-20.390625zm0 0" fill="#87cee9"/><path d="m473.90625 431.296875h-468.425781c-3.484375 0-6.109375 3.316406-5.347657 6.808594 4.253907 19.515625 21.203126 34.097656 41.472657 34.097656h396.175781c20.269531 0 37.21875-14.582031 41.472656-34.097656.761719-3.492188-1.863281-6.808594-5.347656-6.808594zm0 0" fill="#d7f7ff"/><path d="m20.738281 438.105469c-.761719-3.492188 1.863281-6.808594 5.34375-6.808594h-20.601562c-3.484375 0-6.109375 3.316406-5.347657 6.808594 4.253907 19.515625 21.203126 34.097656 41.472657 34.097656h20.605469c-20.269532 0-37.21875-14.582031-41.472657-34.097656zm0 0" fill="#b7e9f9"/></svg>