<svg viewBox="-16 0 512 512.00085" xmlns="http://www.w3.org/2000/svg"><path d="m134.851562 178.808594h209.683594c-57.234375-55.273438-152.277344-55.441406-209.683594 0zm0 0" fill="#f98c96"/><path d="m134.851562 178.808594h20.605469c25.710938-24.832032 59.503907-38.875 94.527344-41.183594-43.007813-2.824219-84.996094 12.078125-115.132813 41.183594zm0 0" fill="#ea5471"/><path d="m303.390625 178.808594c.535156-1.554688.960937-3.171875 1.257813-4.84375 4.476562-58.675782 5.390624-69.203125 35.152343-131.261719 6.355469-17.535156-3.660156-36.753906-21.667969-41.582031-18.441406-4.941406-37.15625 6.96875-40.496093 25.773437-5.070313 67.300781-9.703125 77.621094-34.726563 129.660157-2.722656 7.519531-2.5 15.335937.023438 22.25h60.457031zm0 0" fill="#d3843d"/><path d="m263.515625 156.554688c24.980469-51.953126 29.652344-62.3125 34.722656-129.65625 2.175781-12.242188 10.867188-21.558594 21.757813-25.210938-.613282-.203125-1.230469-.398438-1.867188-.566406-18.4375-4.941406-37.15625 6.96875-40.492187 25.777344-5.089844 67.578124-9.828125 77.878906-34.726563 129.65625-2.726562 7.519531-2.503906 15.335937.023438 22.253906h20.601562c-2.523437-6.914063-2.746094-14.734375-.019531-22.253906zm0 0" fill="#c65c38"/><path d="m351.128906 432.402344h-222.871094l-12.734374-221.0625h248.339843zm0 0" fill="#ea5471"/><path d="m115.523438 211.339844 12.734374 221.0625h20.605469l-12.738281-221.0625zm0 0" fill="#da1c4b"/><path d="m355.25 360.855469 4.433594-76.921875h-239.980469l4.433594 76.921875zm0 0" fill="#f98c96"/><path d="m140.308594 283.933594h-20.605469l4.433594 76.917968h20.601562zm0 0" fill="#ea5471"/><path d="m398.207031 471.21875h-317.027343c-10.992188 0-19.902344 9.128906-19.902344 20.390625s8.910156 20.390625 19.902344 20.390625h317.027343c10.992188 0 19.902344-9.128906 19.902344-20.390625s-8.910156-20.390625-19.902344-20.390625zm0 0" fill="#b7e9f9"/><path d="m81.882812 491.609375c0-11.261719 8.910157-20.390625 19.898438-20.390625h-20.601562c-10.992188 0-19.902344 9.128906-19.902344 20.390625s8.910156 20.390625 19.902344 20.390625h20.601562c-10.988281 0-19.898438-9.128906-19.898438-20.390625zm0 0" fill="#87cee9"/><path d="m371.578125 178.722656h-263.769531c-9.144532 0-16.558594 7.414063-16.558594 16.554688 0 9.144531 7.414062 16.558594 16.558594 16.558594h263.769531c9.144531 0 16.558594-7.414063 16.558594-16.558594-.003907-9.140625-7.414063-16.554688-16.558594-16.554688zm0 0" fill="#b7e9f9"/><path d="m371.578125 191.726562h-263.769531c-5.359375 0-10.105469-2.558593-13.132813-6.503906-8.328125 10.863282-.570312 26.613282 13.132813 26.613282h263.769531c9.144531 0 16.558594-7.414063 16.558594-16.558594 0-3.785156-1.285157-7.265625-3.425781-10.054688-3.027344 3.945313-7.777344 6.503906-13.132813 6.503906zm0 0" fill="#87cee9"/><path d="m473.90625 431.296875h-468.425781c-3.484375 0-6.109375 3.316406-5.347657 6.808594 4.253907 19.515625 21.203126 34.097656 41.472657 34.097656h396.175781c20.269531 0 37.21875-14.582031 41.472656-34.097656.761719-3.492188-1.863281-6.808594-5.347656-6.808594zm0 0" fill="#d7f7ff"/><path d="m20.738281 438.105469c-.761719-3.492188 1.863281-6.808594 5.34375-6.808594h-20.601562c-3.484375 0-6.109375 3.316406-5.347657 6.808594 4.253907 19.515625 21.203126 34.097656 41.472657 34.097656h20.605469c-20.269532 0-37.21875-14.582031-41.472657-34.097656zm0 0" fill="#b7e9f9"/></svg>