<svg viewBox="-12 0 511 512" xmlns="http://www.w3.org/2000/svg"><path d="m243.851562 0c-161.777343 0-273.625 131.203125-220.914062 255.167969h441.828125c52.664063-123.867188-59.035156-255.167969-220.914063-255.167969zm0 0" fill="#c65c38"/><g fill="#9c2d20"><path d="m254.152344.195312c-3.414063-.1210932-6.847656-.195312-10.300782-.195312-161.777343 0-273.625 131.203125-220.914062 255.167969h20.605469c-51.414063-120.914063 53.769531-249.394531 210.609375-254.972657zm0 0"/><path d="m219.929688 129.386719c0-10.925781-8.824219-19.78125-19.707032-19.78125-10.882812 0-19.707031 8.855469-19.707031 19.78125s8.824219 19.785156 19.707031 19.785156c10.882813 0 19.707032-8.859375 19.707032-19.785156zm0 0"/><path d="m307.683594 68.703125c0-10.921875-8.824219-19.78125-19.707032-19.78125-10.882812 0-19.707031 8.859375-19.707031 19.78125 0 10.925781 8.824219 19.785156 19.707031 19.785156 10.882813 0 19.707032-8.859375 19.707032-19.785156zm0 0"/><path d="m35.550781 104.503906c2.550781 7.957032 9.976563 13.71875 18.75 13.71875 10.886719 0 19.707031-8.859375 19.707031-19.785156 0-10.695312-8.460937-19.382812-19.027343-19.746094-7.265625 8.144532-13.78125 16.765625-19.429688 25.8125zm0 0"/></g><path d="m54.980469 78.691406c-7.449219 8.347656-14.152344 17.335938-19.429688 25.8125 2 6.230469 6.992188 11.101563 13.277344 12.925782 5.699219-11.09375 12.632813-21.652344 20.660156-31.566407-3.480469-4.222656-8.667969-6.972656-14.507812-7.171875zm0 0" fill="#8c271f"/><path d="m387.308594 172.859375c0-10.925781-8.820313-19.785156-19.703125-19.785156-10.886719 0-19.707031 8.859375-19.707031 19.785156s8.820312 19.78125 19.707031 19.78125c10.882812 0 19.703125-8.855469 19.703125-19.78125zm0 0" fill="#9c2d20"/><path d="m400.613281 80.734375c9.339844 0 17.144531-6.527344 19.175781-15.28125-8.5625-8.007813-17.921874-15.429687-27.980468-22.179687-6.457032 3.25-10.898438 9.9375-10.898438 17.679687 0 10.925781 8.820313 19.78125 19.703125 19.78125zm0 0" fill="#9c2d20"/><path d="m201.121094 129.386719c0-7.128907 3.769531-13.359375 9.40625-16.839844-3-1.851563-6.523438-2.941406-10.304688-2.941406-10.882812 0-19.703125 8.859375-19.703125 19.78125 0 10.925781 8.820313 19.785156 19.703125 19.785156 3.785156 0 7.304688-1.089844 10.304688-2.945313-5.636719-3.480468-9.40625-9.710937-9.40625-16.839843zm0 0" fill="#8c271f"/><path d="m288.875 68.703125c0-7.128906 3.769531-13.355469 9.402344-16.839844-3-1.851562-6.519532-2.941406-10.300782-2.941406-10.882812 0-19.707031 8.859375-19.707031 19.78125 0 10.929687 8.824219 19.785156 19.707031 19.785156 3.78125 0 7.300782-1.089843 10.300782-2.941406-5.632813-3.484375-9.402344-9.710937-9.402344-16.84375zm0 0" fill="#8c271f"/><path d="m368.503906 172.859375c0-7.128906 3.769532-13.359375 9.402344-16.839844-3-1.855469-6.519531-2.945312-10.300781-2.945312-10.882813 0-19.707031 8.859375-19.707031 19.785156 0 10.921875 8.824218 19.78125 19.707031 19.78125 3.78125 0 7.300781-1.089844 10.300781-2.941406-5.632812-3.480469-9.402344-9.710938-9.402344-16.839844zm0 0" fill="#8c271f"/><path d="m401.515625 60.953125c0-3.289063.804687-6.378906 2.21875-9.101563-3.855469-2.964843-7.828125-5.832031-11.925781-8.578124-6.457032 3.25-10.898438 9.933593-10.898438 17.679687 0 10.925781 8.820313 19.78125 19.703125 19.78125 3.785157 0 7.308594-1.085937 10.304688-2.941406-5.636719-3.480469-9.402344-9.710938-9.402344-16.839844zm0 0" fill="#8c271f"/><path d="m29.273438 283.359375 34.3125 189.105469c4.152343 22.898437 24.003906 39.535156 47.160156 39.535156h266.207031c23.160156 0 43.007813-16.636719 47.164063-39.535156l34.3125-189.105469zm0 0" fill="#ffd782"/><path d="m206.296875 512h-74.417969l-11.523437-228.640625h77.304687zm0 0" fill="#fdbd40"/><path d="m352.945312 512h-71.542968l8.640625-228.640625h77.300781zm0 0" fill="#fdbd40"/><path d="m84.191406 472.464844-34.3125-189.105469h-20.605468l34.3125 189.105469c4.152343 22.898437 24.003906 39.535156 47.160156 39.535156h20.605468c-23.15625 0-43.007812-16.636719-47.160156-39.535156zm0 0" fill="#fdbd40"/><path d="m120.355469 283.359375 11.523437 228.640625h20.601563l-11.519531-228.640625zm0 0" fill="#f2aa2a"/><path d="m290.042969 283.359375-8.640625 228.640625h20.605468l8.640626-228.640625zm0 0" fill="#f2aa2a"/><path d="m476.867188 284.488281h-466.035157c-5.707031 0-10.332031-4.625-10.332031-10.332031v-9.632812c0-5.707032 4.625-10.335938 10.332031-10.335938h466.035157c5.707031 0 10.335937 4.628906 10.335937 10.335938v9.632812c0 5.707031-4.628906 10.332031-10.335937 10.332031zm0 0" fill="#fff69a"/><path d="m476.554688 263.882812h-465.410157c-3.738281 0-7.019531-1.933593-8.917969-4.847656-1.089843 1.667969-1.726562 3.65625-1.726562 5.796875v9.007813c0 5.882812 4.765625 10.648437 10.644531 10.648437h465.414063c5.878906 0 10.644531-4.765625 10.644531-10.648437v-9.007813c0-2.140625-.636719-4.128906-1.726563-5.796875-1.898437 2.917969-5.179687 4.847656-8.921874 4.847656zm0 0" fill="#ffd782"/></svg>