<svg viewBox="-132 0 512 512.00022" xmlns="http://www.w3.org/2000/svg"><path d="m106.929688 420.09375c-5.359376 35.953125-19.53125 54-19.53125 54h73.535156s-14.171875-18.046875-19.53125-54zm0 0" fill="#b7e9f9"/><path d="m106.929688 420.09375c-5.359376 35.957031-19.53125 54-19.53125 54h21.378906s14.171875-18.042969 19.53125-54zm0 0" fill="#87cee9"/><path d="m87.191406 395.402344v8.542968c0 9.535157 7.804688 17.339844 17.339844 17.339844h39.269531c9.539063 0 17.339844-7.804687 17.339844-17.339844v-8.542968zm0 0" fill="#87cee9"/><path d="m107.796875 403.945312v-8.542968h-20.605469v8.542968c0 9.539063 7.804688 17.339844 17.34375 17.339844h20.605469c-9.539063 0-17.34375-7.804687-17.34375-17.339844zm0 0" fill="#32b1cc"/><path d="m228.320312 491.550781c0-11.296875-9.15625-20.453125-20.453124-20.453125h-167.402344c-11.296875 0-20.453125 9.15625-20.453125 20.453125 0 11.292969 9.15625 20.449219 20.453125 20.449219h167.40625c11.292968 0 20.449218-9.15625 20.449218-20.449219zm0 0" fill="#87cee9"/><path d="m123.738281 46.042969c-31.71875 0-59.476562 16.933593-74.734375 42.253906l.9375 3.5 7.617188 28.433594 10 37.324219h139.925781c16.207031-55.941407-25.851563-111.511719-83.746094-111.511719zm0 0" fill="#d3843d"/><path d="m78.167969 120.230469-6.09375-22.746094c-1.6875-6.304687-.296875-13.035156 3.742187-18.160156 13.957032-17.710938 34.628906-29.871094 58.175782-32.660157-3.363282-.394531-6.78125-.621093-10.253907-.621093-31.71875 0-59.476562 16.9375-74.734375 42.253906 1.753906 6.558594 6.8125 25.4375 8.554688 31.9375l10 37.320313h20.609375zm0 0" fill="#c65c38"/><path d="m204.558594 100.488281c-13.019532-32.109375-44.523438-54.445312-80.820313-54.445312-.003906 0-.003906 0-.003906 0-30.507813 0-58.832031 15.894531-74.726563 42.269531 1.175782 4.386719.222657.835938 3.886719 14.503906 19.5-2.527344 29.589844-8.660156 44.027344-13.125 3.4375-1.066406 6.917969 1.546875 6.917969 5.148438v6.59375c0 9.292968 7.273437 17.269531 16.566406 17.4375 9.46875.175781 17.199219-7.449219 17.199219-16.878906v29.941406c0 9.429687 7.734375 17.050781 17.203125 16.878906 9.292968-.167969 16.566406-8.144531 16.566406-17.441406v-30.730469c0-5.699219 5.695312-9.664063 11.027344-7.65625 7.019531 2.640625 13.714844 5.40625 22.15625 7.507813zm0 0" fill="#c65c38"/><path d="m49.007812 88.3125c.679688 2.542969-.199218-.742188 3.886719 14.503906 7.660157-.992187 13.859375-2.546875 19.445313-4.332031l-.265625-1c-1.691407-6.304687-.296875-13.035156 3.742187-18.164063 13.953125-17.707031 34.628906-29.871093 58.175782-32.65625-3.589844-.421874-7.242188-.621093-10.257813-.621093 0 0-.003906 0-.007813 0-30.652343.003906-58.902343 16.023437-74.71875 42.269531zm0 0" fill="#9c2d20"/><path d="m41.394531 157.832031h27.214844l-39.679687-148.085937c-1.878907-7.011719-9.085938-11.175782-16.097657-9.292969-7.007812 1.878906-11.171875 9.082031-9.292969 16.09375zm0 0" fill="#f98c96"/><path d="m24.335938 2.816406c-3.144532-2.460937-7.351563-3.476562-11.503907-2.363281-7.011719 1.878906-11.171875 9.082031-9.292969 16.09375l37.855469 141.285156h16.226563l-37.855469-141.285156c-1.402344-5.234375.566406-10.578125 4.570313-13.730469zm0 0" fill="#ea5471"/><path d="m226.128906 335.445312v-140.628906c-15.308594 0-127.285156 0-203.921875 0v140.628906c0 34.25 27.765625 62.015626 62.015625 62.015626h79.886719c34.25 0 62.019531-27.765626 62.019531-62.015626zm0 0" fill="#d7f7ff"/><path d="m42.808594 335.445312v-140.628906c-7.074219 0-13.972656 0-20.601563 0v140.628906c0 34.25 27.765625 62.015626 62.015625 62.015626h20.601563c-34.25 0-62.015625-27.765626-62.015625-62.015626zm0 0" fill="#b7e9f9"/><path d="m175.148438 335.445312v-140.628906c-7.65625 0-63.644532 0-101.960938 0v140.628906c0 34.25 13.882812 62.015626 31.007812 62.015626h39.941407c17.128906 0 31.011719-27.765626 31.011719-62.015626zm0 0" fill="#b7e9f9"/><path d="m93.792969 335.445312v-140.628906c-7.160157 0-14.136719 0-20.605469 0v140.628906c0 34.25 13.882812 62.015626 31.007812 62.015626h20.605469c-17.125 0-31.007812-27.765626-31.007812-62.015626zm0 0" fill="#87cee9"/><path d="m248.332031 177.457031c0-11.296875-9.15625-20.453125-20.449219-20.453125-1.441406 0-125.507812 0-207.433593 0-11.292969 0-20.449219 9.15625-20.449219 20.453125 0 11.292969 9.15625 20.449219 20.449219 20.449219h207.433593c11.292969 0 20.449219-9.15625 20.449219-20.449219zm0 0" fill="#87cee9"/><path d="m207.867188 491.652344h-167.402344c-7.589844 0-14.195313-4.140625-17.726563-10.277344-1.722656 3-2.726562 6.46875-2.726562 10.175781 0 11.292969 9.15625 20.449219 20.453125 20.449219h167.40625c11.292968 0 20.449218-9.15625 20.449218-20.449219 0-3.707031-1-7.175781-2.726562-10.175781-3.53125 6.136719-10.136719 10.277344-17.726562 10.277344zm0 0" fill="#32b1cc"/><path d="m227.882812 177.558594c-1.5 0-125.527343 0-207.433593 0-7.585938 0-14.191407-4.140625-17.722657-10.277344-1.722656 3-2.726562 6.46875-2.726562 10.175781 0 11.292969 9.15625 20.449219 20.449219 20.449219h207.433593c11.292969 0 20.449219-9.15625 20.449219-20.449219 0-3.707031-1-7.175781-2.726562-10.175781-3.53125 6.136719-10.136719 10.277344-17.722657 10.277344zm0 0" fill="#32b1cc"/><path d="m10.34375 41.964844 25.390625-6.800782 7.621094 28.441407-25.386719 6.804687zm0 0" fill="#ea5471"/><path d="m10.34375 41.964844 15.140625-4.054688 7.621094 28.441406-15.136719 4.058594zm0 0" fill="#da1c4b"/><path d="m25.589844 98.855469 25.386718-6.800781 7.621094 28.445312-25.386718 6.800781zm0 0" fill="#ea5471"/><path d="m25.585938 98.855469 15.140624-4.054688 7.621094 28.445313-15.136718 4.054687zm0 0" fill="#da1c4b"/></svg>