<svg viewBox="0 0 512 512.0006" xmlns="http://www.w3.org/2000/svg"><path d="m266.769531 15.953125c-3.675781-2.167969-8.390625-.976563-10.554687 2.699219-.128906.203125-2.378906 3.761718-6.363282 5.644531-4.761718-12.359375-10.054687-20.308594-10.457031-20.902344-2.390625-3.53125-7.191406-4.457031-10.726562-2.066406-3.53125 2.390625-4.457031 7.191406-2.066407 10.722656.097657.148438 6.277344 9.425781 10.796876 23.332031.015624.050782.035156.101563.050781.152344 2.589843 8.011719 4.625 17.542969 4.625 27.753906 0 4.265626 3.457031 7.722657 7.722656 7.722657s7.722656-3.457031 7.722656-7.722657c0-8.652343-1.21875-16.832031-3.023437-24.214843 7.519531-2.902344 12.714844-8.660157 14.988281-12.515625 2.164063-3.671875.960937-8.441406-2.714844-10.605469zm0 0" fill="#d3843d"/><path d="m448.335938 234.710938c-.304688.011718-.601563.046874-.90625.046874-2.566407 0-372.058594 0-383.082032 0-.304687 0-.601562-.035156-.902344-.046874-12.859374.480468-23.140624 11.023437-23.140624 24 0 13.277343 10.765624 24.042968 24.042968 24.042968v-.238281.238281h383.082032c13.277343 0 24.042968-10.765625 24.042968-24.042968 0-12.976563-10.28125-23.519532-23.136718-24zm0 0" fill="#fdbd40"/><path d="m60.898438 258.710938c0-12.722657 9.894531-23.105469 22.398437-23.953126-10.824219 0-17.59375 0-18.949219 0-.304687 0-.601562-.035156-.902344-.046874-12.859374.480468-23.140624 11.023437-23.140624 24 0 13.277343 10.765624 24.042968 24.042968 24.042968h20.597656c-13.28125 0-24.046874-10.765625-24.046874-24.042968zm0 0" fill="#f2aa2a"/><path d="m447.429688 330.84375c-2.566407 0-375.21875 0-383.082032 0-13.277344 0-24.042968 10.765625-24.042968 24.046875 0 13.277344 10.765624 24.042969 24.042968 24.042969h383.082032c13.277343 0 24.042968-10.765625 24.042968-24.042969 0-13.28125-10.761718-24.046875-24.042968-24.046875zm0 0" fill="#fdbd40"/><path d="m60.898438 354.890625c0-13.28125 10.765624-24.046875 24.046874-24.046875-12.121093 0-19.554687 0-20.597656 0-13.277344 0-24.042968 10.765625-24.042968 24.046875 0 13.277344 10.765624 24.042969 24.042968 24.042969h20.597656c-13.28125 0-24.046874-10.761719-24.046874-24.042969zm0 0" fill="#f2aa2a"/><path d="m447.429688 282.753906c-5.640626 0-377.46875 0-383.082032 0-13.277344 0-24.042968 10.765625-24.042968 24.046875 0 13.277344 10.765624 24.042969 24.042968 24.042969h383.082032c13.277343 0 24.042968-10.765625 24.042968-24.042969 0-13.28125-10.761718-24.046875-24.042968-24.046875zm0 0" fill="#ffd782"/><path d="m60.898438 306.800781c0-13.28125 10.765624-24.042969 24.046874-24.042969-12.359374 0-19.835937 0-20.597656 0-13.277344 0-24.042968 10.761719-24.042968 24.042969s10.765624 24.046875 24.042968 24.046875h20.597656c-13.28125-.003906-24.046874-10.765625-24.046874-24.046875zm0 0" fill="#fdbd40"/><path d="m425.117188 469.511719h-338.453126c-11.734374 0-21.246093 9.511719-21.246093 21.246093 0 11.730469 9.511719 21.242188 21.246093 21.242188h338.453126c11.730468 0 21.242187-9.511719 21.242187-21.242188 0-11.734374-9.511719-21.246093-21.242187-21.246093zm0 0" fill="#b7e9f9"/><path d="m86.015625 490.757812c0-11.734374 9.511719-21.246093 21.242187-21.246093h-20.59375c-11.734374 0-21.246093 9.511719-21.246093 21.246093 0 11.730469 9.511719 21.242188 21.246093 21.242188h20.59375c-11.730468 0-21.242187-9.511719-21.242187-21.242188zm0 0" fill="#87cee9"/><path d="m287.867188 100.933594c0 20.789062-16.855469 37.644531-37.644532 37.644531-20.792968 0-37.644531-16.855469-37.644531-37.644531 0-20.792969 16.851563-37.644532 37.644531-37.644532 20.789063 0 37.644532 16.851563 37.644532 37.644532zm0 0" fill="#da1c4b"/><path d="m233.171875 100.933594c0-17.21875 11.566406-31.726563 27.347656-36.207032-3.273437-.929687-6.726562-1.4375-10.296875-1.4375-20.792968 0-37.644531 16.851563-37.644531 37.644532 0 20.789062 16.851563 37.644531 37.644531 37.644531 3.570313 0 7.023438-.507813 10.296875-1.4375-15.78125-4.480469-27.347656-18.988281-27.347656-36.207031zm0 0" fill="#bf0443"/><path d="m447.429688 186.667969c13.277343 0 24.042968-10.765625 24.042968-24.046875 0-13.277344-10.765625-24.042969-24.042968-24.042969h-383.082032c-13.277344 0-24.042968 10.765625-24.042968 24.042969 0 13.28125 10.765624 24.046875 24.042968 24.046875-13.277344 0-24.042968 10.765625-24.042968 24.042969 0 13.28125 10.765624 24.046874 24.042968 24.046874h50.003906c3.265626.472657 5.785157 3.257813 5.785157 6.65625v42.476563c0 10.75 8.257812 19.996094 18.996093 20.5 11.460938.539063 20.921876-8.59375 20.921876-19.9375v-45.8125c0 11.757813 10.167968 21.144531 22.191406 19.839844 10.207031-1.105469 17.730468-10.132813 17.730468-20.402344 0-1.617187 1.125-2.96875 2.636719-3.320313h244.816407c13.277343 0 24.042968-10.765624 24.042968-24.046874.003906-13.277344-10.761718-24.042969-24.042968-24.042969zm0 0" fill="#9c2d20"/><path d="m140.730469 283.890625v-42.476563c0-3.398437-2.515625-6.183593-5.785157-6.65625h-20.59375c3.265626.476563 5.785157 3.257813 5.785157 6.65625v42.476563c0 10.75 8.257812 19.996094 18.996093 20.5 4.15625.195313 8.046876-.894531 11.320313-2.890625-5.863281-3.632812-9.722656-10.269531-9.722656-17.609375zm0 0" fill="#8c271f"/><path d="m160.054688 344.289062c0 11.023438-8.933594 19.960938-19.957032 19.960938-11.023437 0-19.960937-8.9375-19.960937-19.960938 0-11.023437 8.9375-19.960937 19.960937-19.960937 11.023438 0 19.957032 8.9375 19.957032 19.960937zm0 0" fill="#9c2d20"/><path d="m140.730469 344.289062c0-7.25 3.878906-13.578124 9.664062-17.074218-3.011719-1.820313-6.527343-2.886719-10.296875-2.886719-11.023437 0-19.960937 8.9375-19.960937 19.960937 0 11.023438 8.9375 19.960938 19.960937 19.960938 3.773438 0 7.289063-1.066406 10.296875-2.886719-5.785156-3.496093-9.664062-9.824219-9.664062-17.074219zm0 0" fill="#8c271f"/><path d="m447.429688 378.933594c-5.640626 0-377.46875 0-383.082032 0-13.277344 0-24.042968 10.765625-24.042968 24.046875s10.765624 24.046875 24.042968 24.046875h383.082032c13.277343 0 24.042968-10.765625 24.042968-24.046875s-10.761718-24.046875-24.042968-24.046875zm0 0" fill="#ffd782"/><path d="m60.898438 402.980469c0-13.28125 10.765624-24.046875 24.046874-24.046875-12.359374 0-19.835937 0-20.597656 0-13.277344 0-24.042968 10.765625-24.042968 24.046875s10.765624 24.046875 24.042968 24.046875h20.597656c-13.28125 0-24.046874-10.765625-24.046874-24.046875zm0 0" fill="#fdbd40"/><path d="m505.929688 426.863281h-500.078126c-3.71875 0-6.523437 3.492188-5.710937 7.179688 4.542969 20.582031 22.636719 35.960937 44.277344 35.960937h422.945312c21.636719 0 39.734375-15.378906 44.273438-35.960937.8125-3.6875-1.988281-7.179688-5.707031-7.179688zm0 0" fill="#d7f7ff"/><path d="m20.738281 434.042969c-.8125-3.6875 1.988281-7.179688 5.707031-7.179688h-20.59375c-3.71875 0-6.523437 3.492188-5.710937 7.179688 4.542969 20.582031 22.636719 35.960937 44.277344 35.960937h20.59375c-21.636719 0-39.730469-15.378906-44.273438-35.960937zm0 0" fill="#b7e9f9"/><path d="m60.898438 210.710938c0-10.386719 6.589843-19.238282 15.816406-22.597657.628906-.230469 1.0625-.8125 1.0625-1.484375 0-.625-.402344-1.171875-.996094-1.382812-9.261719-3.34375-15.882812-12.210938-15.882812-22.625 0-13.277344 10.765624-24.042969 24.046874-24.042969h-20.019531c-13.039062 0-24.140625 10.136719-24.605469 23.167969-.488281 13.679687 10.457032 24.921875 24.03125 24.921875-13.570312 0-24.515624 11.242187-24.03125 24.921875.460938 13.03125 11.566407 23.167968 24.605469 23.167968h20.019531c-13.28125 0-24.046874-10.765624-24.046874-24.046874zm0 0" fill="#8c271f"/></svg>