<svg viewBox="0 -23 512 512" xmlns="http://www.w3.org/2000/svg"><path d="m227.21875 66.070312c-7.902344-14.078124-28.167969-14.078124-36.070312 0l-183.949219 327.734376h403.96875c-3.269531-5.828126-180.6875-321.925782-183.949219-327.734376zm0 0" fill="#ffd782"/><path d="m221 59.191406c-9.484375-6.59375-23.570312-4.308594-29.851562 6.878906l-183.949219 327.734376h23.628906l183.953125-327.734376c1.621094-2.886718 3.769531-5.175781 6.21875-6.878906zm0 0" fill="#fdbd40"/><path d="m334.167969 256.617188h-249.96875l-77 137.1875h403.96875c-1.453125-2.589844-37.316407-66.488282-77-137.1875zm0 0" fill="#d3843d"/><path d="m84.199219 256.617188-77 137.1875h23.707031l77.003906-137.1875zm0 0" fill="#c65c38"/><path d="m371.730469 371.960938h-325.089844c-25.652344 0-46.640625 20.988281-46.640625 46.636718 0 25.652344 20.988281 46.640625 46.640625 46.640625h325.089844c25.652343 0 46.636719-20.988281 46.636719-46.640625 0-25.648437-20.984376-46.636718-46.636719-46.636718zm0 0" fill="#c65c38"/><path d="m20.605469 418.597656c0-25.648437 20.988281-46.636718 46.636719-46.636718h-20.601563c-25.652344 0-46.640625 20.988281-46.640625 46.636718 0 25.652344 20.988281 46.640625 46.640625 46.640625h20.601563c-25.648438 0-46.636719-20.988281-46.636719-46.640625zm0 0" fill="#9c2d20"/><path d="m364.15625 403.144531h-313.589844c-4.269531 0-7.726562 3.460938-7.726562 7.726563 0 4.269531 3.457031 7.726562 7.726562 7.726562h52.847656c3.046876 0 5.519532 2.472656 5.519532 5.519532v23.6875c0 9.523437 7.789062 17.609374 17.3125 17.429687 9.230468-.171875 16.660156-7.710937 16.660156-16.984375v-26.261719c0 9.578125 7.921875 17.300781 17.570312 16.980469 9.035157-.300781 16.40625-8.382812 16.40625-17.425781 0-1.625 1.316407-2.945313 2.945313-2.945313h184.328125c4.269531 0 7.726562-3.457031 7.726562-7.726562 0-4.265625-3.457031-7.726563-7.726562-7.726563zm0 0" fill="#9c2d20"/><path d="m63.699219 410.871094c0-4.265625 3.460937-7.726563 7.726562-7.726563h-20.859375c-4.269531 0-7.726562 3.460938-7.726562 7.726563 0 4.269531 3.457031 7.726562 7.726562 7.726562h20.859375c-4.265625 0-7.726562-3.457031-7.726562-7.726562zm0 0" fill="#8c271f"/><path d="m129.796875 447.804688v-23.6875c0-3.046876-2.472656-5.515626-5.519531-5.515626h-20.863282c3.050782 0 5.519532 2.46875 5.519532 5.515626v23.6875c0 9.523437 7.792968 17.609374 17.3125 17.433593 3.859375-.074219 7.390625-1.445312 10.210937-3.679687-4.042969-3.226563-6.660156-8.242188-6.660156-13.753906zm0 0" fill="#8c271f"/><path d="m376.902344 7.460938c-5.585938-9.949219-19.90625-9.949219-25.492188 0l-130.007812 231.632812h285.507812c-2.308594-4.121094-127.703125-227.527344-130.007812-231.632812zm0 0" fill="#ffd782"/><path d="m374.972656 4.816406c-6.4375-7.175781-18.53125-6.3125-23.5625 2.644532l-130.007812 231.632812h21.632812l130.011719-231.632812c.554687-.988282 1.214844-1.851563 1.925781-2.644532zm0 0" fill="#fdbd40"/><path d="m452.488281 142.132812h-176.664062l-54.421875 96.960938h285.507812c-1.027344-1.832031-26.375-46.992188-54.421875-96.960938zm0 0" fill="#d3843d"/><path d="m275.824219 142.132812-54.421875 96.960938h21.695312l54.421875-96.960938zm0 0" fill="#c65c38"/><path d="m479.035156 223.652344h-229.757812c-18.132813 0-32.964844 14.835937-32.964844 32.964844 0 18.128906 14.832031 32.960937 32.964844 32.960937h229.757812c18.132813 0 32.964844-14.832031 32.964844-32.960937 0-18.128907-14.832031-32.964844-32.964844-32.964844zm0 0" fill="#c65c38"/><g fill="#9c2d20"><path d="m236.917969 256.617188c0-18.132813 14.832031-32.964844 32.964843-32.964844h-20.605468c-18.132813 0-32.964844 14.832031-32.964844 32.964844 0 18.128906 14.832031 32.960937 32.964844 32.960937h20.605468c-18.128906 0-32.964843-14.832031-32.964843-32.960937zm0 0"/><path d="m471.519531 264.34375h-214.726562c-4.265625 0-7.726563-3.460938-7.726563-7.726562 0-4.269532 3.460938-7.730469 7.726563-7.730469h214.726562c4.265625 0 7.726563 3.460937 7.726563 7.730469 0 4.265624-3.460938 7.726562-7.726563 7.726562zm0 0"/></g></svg>