<svg viewBox="-86 0 512 512" xmlns="http://www.w3.org/2000/svg"><path d="m322.492188 161.367188-53.722657-43.933594c-8.300781-6.789063-13.113281-16.941406-13.113281-27.660156v-20.085938c-7.476562 0-162.957031 0-170.4375 0v20.085938c0 10.71875-4.8125 20.871093-13.113281 27.660156l-53.722657 43.933594c-11.636718 9.511718-18.382812 23.746093-18.382812 38.777343v269.21875c0 23.546875 19.089844 42.636719 42.636719 42.636719h255.601562c23.546875 0 42.636719-19.089844 42.636719-42.636719v-269.21875c0-15.03125-6.746094-29.265625-18.382812-38.777343zm0 0" fill="#ea5471"/><path d="m20.554688 469.363281v-269.21875c0-15.03125 6.746093-29.265625 18.378906-38.777343l53.726562-43.933594c8.300782-6.789063 13.113282-16.941406 13.113282-27.660156v-20.085938h-20.554688v20.085938c0 10.71875-4.8125 20.871093-13.113281 27.660156l-53.722657 43.933594c-11.636718 9.511718-18.382812 23.746093-18.382812 38.777343v269.21875c0 23.546875 19.089844 42.636719 42.636719 42.636719h20.554687c-23.546875 0-42.636718-19.089844-42.636718-42.636719zm0 0" fill="#da1c4b"/><path d="m297.664062 402.550781v-170.242187c0-5.558594-4.507812-10.066406-10.0625-10.066406h-234.328124c-5.554688 0-10.0625 4.507812-10.0625 10.066406v170.242187zm0 0" fill="#d7f7ff"/><path d="m73.878906 222.246094h-20.605468c-5.554688 0-10.0625 4.503906-10.0625 10.0625v170.242187h20.605468v-170.242187c0-5.558594 4.503906-10.0625 10.0625-10.0625zm0 0" fill="#b7e9f9"/><path d="m85.21875 69.6875v20.085938c0 2.699218-.308594 5.367187-.898438 7.949218h172.234376c-.589844-2.582031-.898438-5.25-.898438-7.949218v-20.085938c-7.476562 0-162.957031 0-170.4375 0zm0 0" fill="#da1c4b"/><path d="m104.875 97.722656c.589844-2.582031.894531-5.25.894531-7.949218v-20.085938h-20.550781v20.085938c0 2.582031-.296875 5.320312-.898438 7.949218zm0 0" fill="#bf0443"/><path d="m43.210938 401.519531v31.644531c0 5.558594 4.507812 10.0625 10.0625 10.0625h234.328124c5.558594 0 10.0625-4.503906 10.0625-10.0625v-31.644531zm0 0" fill="#b7e9f9"/><path d="m63.816406 433.164062v-31.640624h-20.605468v31.640624c0 5.558594 4.507812 10.066407 10.0625 10.066407h20.605468c-5.558594 0-10.0625-4.507813-10.0625-10.066407zm0 0" fill="#87cee9"/><path d="m297.664062 55.042969v-37.960938c0-9.394531-7.425781-17.082031-16.503906-17.082031h-221.441406c-9.078125 0-16.507812 7.6875-16.507812 17.082031v37.960938c0 9.394531 7.429687 17.082031 16.507812 17.082031h221.441406c9.078125 0 16.503906-7.6875 16.503906-17.082031zm0 0" fill="#b7e9f9"/><path d="m281.160156 51.519531h-221.441406c-9.078125 0-16.507812-7.683593-16.507812-17.082031v20.605469c0 9.394531 7.429687 17.082031 16.507812 17.082031h221.441406c9.078125 0 16.503906-7.6875 16.503906-17.082031v-20.605469c0 9.394531-7.425781 17.082031-16.503906 17.082031zm0 0" fill="#87cee9"/><path d="m181.609375 308.699219h7.039063c3.164062 0 6.160156.511719 8.933593 1.433593 13.289063-18.449218 18.640625-40.976562 10.746094-45.53125-5.707031-3.296874-16.386719 4.167969-25.546875 17.171876.953125 8.636718.660156 18.3125-1.171875 26.925781zm0 0" fill="#8ec13f"/><path d="m143.296875 310.132812c2.773437-.921874 5.765625-1.433593 8.929687-1.433593h7.039063c-1.832031-8.613281-2.125-18.289063-1.171875-26.925781-9.160156-13.003907-19.839844-20.46875-25.546875-17.171876-7.894531 4.554688-2.546875 27.082032 10.75 45.53125zm0 0" fill="#8ec13f"/><path d="m182.648438 308.699219c5.058593-23.820313-1.691407-52.910157-12.210938-52.910157-10.605469 0-17.222656 29.300782-12.210938 52.910157zm0 0" fill="#c8d952"/><path d="m195.207031 386.214844c-10.203125 20.410156-39.332031 20.410156-49.539062 0l-19.019531-38.042969c-9.207032-18.414063 4.179687-40.078125 24.769531-40.078125h38.042969c20.585937 0 33.976562 21.664062 24.769531 40.078125zm0 0" fill="#da1c4b"/><g fill="#bf0443"><path d="m166.046875 386.214844-19.019531-38.042969c-9.207032-18.414063 4.183594-40.078125 24.769531-40.078125h-20.378906c-20.589844 0-33.976563 21.664062-24.769531 40.078125l19.019531 38.042969c6.902343 13.800781 22.453125 18.257812 34.960937 13.390625-5.988281-2.332031-11.277344-6.785157-14.582031-13.390625zm0 0"/><path d="m156.058594 347.769531c-4.175782 0-7.726563-3.351562-7.726563-7.726562 0-4.746094 4.332031-8.53125 9.242188-7.570313 3.671875.765625 6.210937 3.929688 6.210937 7.570313 0 4.257812-3.449218 7.726562-7.726562 7.726562zm0 0"/><path d="m185.523438 347.769531c-4.257813 0-7.726563-3.460937-7.726563-7.726562 0-4.882813 4.464844-8.507813 9.242187-7.570313 3.769532.800782 6.210938 4.007813 6.210938 7.570313 0 4.269531-3.457031 7.726562-7.726562 7.726562zm0 0"/><path d="m170.441406 372.25c-4.277344 0-7.726562-3.472656-7.726562-7.726562 0-4.902344 4.515625-8.546876 9.230468-7.574219 3.648438.683593 6.222657 4.003906 6.222657 7.574219 0 4.207031-3.433594 7.726562-7.726563 7.726562zm0 0"/></g></svg>