<svg viewBox="-86 0 512 512" xmlns="http://www.w3.org/2000/svg"><path d="m322.492188 161.367188-53.722657-43.933594c-8.300781-6.789063-13.113281-16.941406-13.113281-27.660156v-20.085938c-7.476562 0-162.957031 0-170.4375 0v20.085938c0 10.71875-4.8125 20.871093-13.113281 27.660156l-53.722657 43.933594c-11.636718 9.511718-18.382812 23.746093-18.382812 38.777343v269.21875c0 23.546875 19.089844 42.636719 42.636719 42.636719h255.601562c23.546875 0 42.636719-19.089844 42.636719-42.636719v-269.21875c0-15.03125-6.746094-29.265625-18.382812-38.777343zm0 0" fill="#ffd782"/><path d="m20.554688 469.363281v-269.21875c0-15.03125 6.746093-29.265625 18.378906-38.777343l53.726562-43.933594c8.300782-6.789063 13.113282-16.941406 13.113282-27.660156v-20.085938h-20.554688v20.085938c0 10.71875-4.8125 20.871093-13.113281 27.660156l-53.722657 43.933594c-11.636718 9.511718-18.382812 23.746093-18.382812 38.777343v269.21875c0 23.546875 19.089844 42.636719 42.636719 42.636719h20.554687c-23.546875 0-42.636718-19.089844-42.636718-42.636719zm0 0" fill="#fdbd40"/><path d="m297.664062 402.550781v-170.242187c0-5.558594-4.507812-10.066406-10.0625-10.066406h-234.328124c-5.554688 0-10.0625 4.507812-10.0625 10.066406v170.242187zm0 0" fill="#d3843d"/><path d="m73.878906 222.246094h-20.605468c-5.554688 0-10.0625 4.503906-10.0625 10.0625v170.242187h20.605468v-170.242187c0-5.558594 4.503906-10.0625 10.0625-10.0625zm0 0" fill="#c65c38"/><path d="m85.21875 69.6875c0 21.667969.25 23.011719-.898438 28.035156h172.234376c-.589844-2.582031-.898438-5.25-.898438-7.949218v-20.085938c-7.476562 0-162.957031 0-170.4375 0zm0 0" fill="#fdbd40"/><path d="m104.875 97.722656c.589844-2.582031.894531-5.25.894531-7.949218v-20.085938h-20.550781c0 19.796875.335938 22.636719-.898438 28.035156zm0 0" fill="#f2aa2a"/><path d="m175.507812 348.402344c-.535156-2.984375-1.894531-5.640625-3.832031-7.75-5.21875 3.144531-11.730469 2.960937-16.792969-.566406-24.867187-17.320313-61.464843-1.429688-61.464843 27.136718 0 18.941406 17.078125 34.300782 38.144531 34.300782 8.785156 0 16.875-2.675782 23.320312-7.164063 5.351563-3.726563 12.324219-3.726563 17.675782 0 20.945312 14.585937 52.007812 5.910156 59.8125-17.132813-21.589844 13.191407-52.125-2.328124-56.863282-28.824218zm0 0" fill="#c65c38"/><path d="m114.023438 367.222656c0-15.734375 11.785156-28.980468 27.84375-33.023437-24.386719-6.148438-48.449219 10.375-48.449219 33.023437 0 18.941406 17.078125 34.296875 38.144531 34.296875 3.574219 0 7.027344-.449219 10.304688-1.273437-16.058594-4.042969-27.84375-17.292969-27.84375-33.023438zm0 0" fill="#9c2d20"/><path d="m43.210938 401.519531v31.644531c0 5.558594 4.507812 10.0625 10.0625 10.0625h234.328124c5.558594 0 10.0625-4.503906 10.0625-10.0625v-31.644531zm0 0" fill="#c65c38"/><path d="m63.816406 433.164062v-31.640624h-20.605468v31.640624c0 5.558594 4.507812 10.066407 10.0625 10.066407h20.605468c-5.558594 0-10.0625-4.507813-10.0625-10.066407zm0 0" fill="#9c2d20"/><path d="m297.664062 55.042969v-37.960938c0-9.394531-7.425781-17.082031-16.503906-17.082031h-221.441406c-9.078125 0-16.507812 7.6875-16.507812 17.082031v37.960938c0 9.394531 7.429687 17.082031 16.507812 17.082031h221.441406c9.078125 0 16.503906-7.6875 16.503906-17.082031zm0 0" fill="#b7e9f9"/><path d="m281.160156 51.519531h-221.441406c-9.078125 0-16.507812-7.683593-16.507812-17.082031v20.605469c0 9.394531 7.429687 17.082031 16.507812 17.082031h221.441406c9.078125 0 16.503906-7.6875 16.503906-17.082031v-20.605469c0 9.394531-7.425781 17.082031-16.503906 17.082031zm0 0" fill="#87cee9"/><path d="m201.273438 297.640625c-5.066407-30.105469-42.429688-44.496094-63.074219-23.851563-20.589844 20.589844-6.316407 57.996094 23.851562 63.074219 6.476563 1.089844 11.410157 6.019531 12.5 12.496094 5.066407 30.105469 42.429688 44.496094 63.070313 23.851563 13.691406-13.6875 12.714844-36.863282-2.183594-51.757813-6.210938-6.214844-13.863281-10-21.667969-11.3125-6.476562-1.09375-11.40625-6.023437-12.496093-12.5zm0 0" fill="#c65c38"/><path d="m195.152344 349.359375c-1.089844-6.476563-6.019532-11.40625-12.496094-12.496094-30.101562-5.066406-44.496094-42.429687-23.851562-63.074219 3.925781-3.929687 8.636718-6.644531 13.710937-8.171874-12.171875-3.496094-25.300781-.84375-34.316406 8.171874-20.589844 20.589844-6.316407 57.996094 23.851562 63.074219 6.476563 1.089844 11.410157 6.019531 12.5 12.496094 3.855469 22.898437 27.613281 38.589844 49.363281 32.027344-14.65625-4.210938-26.203124-16.851563-28.761718-32.027344zm0 0" fill="#9c2d20"/></svg>