<svg viewBox="0 -3 512.001 512" xmlns="http://www.w3.org/2000/svg"><path d="m230.398438 425.03125c-14.078126 0-25.597657-11.519531-25.597657-25.601562 0-6.152344 0-15.703126 0-23.878907 0-14.078125-11.519531-25.597656-25.601562-25.597656-14.078125 0-25.597657 11.519531-25.597657 25.597656v26.503907c0 14.078124-11.523437 25.601562-25.601562 25.601562s-25.601562-11.523438-25.601562-25.601562v-64.601563c0-14.078125-11.519532-25.597656-25.597657-25.597656s-25.597656 11.519531-25.601562 25.597656v29.1875c0 14.078125-11.519531 25.601563-25.597657 25.601563-6.398437 0-12.261718-2.382813-16.761718-6.300782v101.828125c0 9.769531 7.921875 17.691407 17.6875 17.691407h203.242187c9.769531 0 17.6875-7.921876 17.6875-17.691407v-69.292969c-4.535156 4.070313-10.519531 6.554688-17.058593 6.554688zm0 0" fill="#ffd782"/><path d="m29.445312 487.769531v-95.820312c-1.253906.191406-2.539062.292969-3.84375.292969-6.398437 0-12.261718-2.382813-16.761718-6.300782v101.828125c0 9.769531 7.921875 17.691407 17.6875 17.691407h20.605468c-9.769531 0-17.6875-7.921876-17.6875-17.691407zm0 0" fill="#fdbd40"/><path d="m281.601562 392.242188c14.078126 0 25.597657-11.519532 25.597657-25.601563 0-6.152344 0-3.898437 0-12.074219 0-14.078125 11.519531-25.597656 25.601562-25.597656 14.078125 0 25.597657 11.519531 25.597657 25.597656v47.488282c0 14.082031 11.523437 25.601562 25.601562 25.601562s25.601562-11.519531 25.601562-25.601562v-25.253907c0-14.078125 11.519532-25.597656 25.597657-25.597656s25.601562 11.519531 25.601562 25.597656v12.140625c0 14.078125 11.519531 25.597656 25.597657 25.597656 6.398437 0 12.261718-2.382812 16.761718-6.296874v79.53125c0 9.769531-7.921875 17.6875-17.6875 17.6875h-203.242187c-9.769531 0-17.6875-7.921876-17.6875-17.6875v-102.089844c4.535156 4.070312 10.519531 6.558594 17.058593 6.558594zm0 0" fill="#ffd782"/><path d="m285.148438 487.769531v-95.78125c-1.164063.164063-2.34375.253907-3.546876.253907-6.539062 0-12.523437-2.488282-17.058593-6.558594v102.085937c0 9.769531 7.917969 17.691407 17.6875 17.691407h20.605469c-9.769532 0-17.6875-7.921876-17.6875-17.691407zm0 0" fill="#fdbd40"/><path d="m153.75 152.628906c14.078125 0 25.597656-11.519531 25.597656-25.601562 0-6.152344 0-2.589844 0-10.761719 0-14.082031 11.519532-25.601563 25.601563-25.601563 14.078125 0 25.601562 11.519532 25.601562 25.601563v69.785156c0 14.078125 11.519531 25.601563 25.597657 25.601563 14.082031 0 25.601562-11.523438 25.601562-25.601563v-100.015625c0-14.078125 11.519531-25.597656 25.597656-25.597656 14.082032 0 25.597656 11.519531 25.601563 25.597656v58.042969c0 14.082031 11.519531 25.601563 25.601562 25.601563 6.394531 0 12.257813-2.382813 16.757813-6.300782v71.664063c0 9.769531-7.917969 17.6875-17.6875 17.6875h-203.242188c-9.769531 0-17.6875-7.921875-17.6875-17.6875v-88.972657c4.535156 4.070313 10.519532 6.558594 17.058594 6.558594zm0 0" fill="#ffd782"/><path d="m157.296875 235.042969v-82.667969c-1.160156.164062-2.34375.253906-3.546875.253906-6.539062 0-12.523438-2.488281-17.058594-6.558594v88.972657c0 9.769531 7.917969 17.6875 17.6875 17.6875h20.605469c-9.769531 0-17.6875-7.921875-17.6875-17.6875zm0 0" fill="#fdbd40"/><path d="m256 271.742188c0-10.457032-8.554688-19.011719-19.011719-19.011719h-217.976562c-10.457031 0-19.011719 8.554687-19.011719 19.011719v100.050781c0 14.078125 11.519531 25.597656 25.601562 25.597656 14.078126 0 25.597657-11.519531 25.597657-25.597656v-29.1875c0-14.078125 11.523437-25.597657 25.601562-25.597657s25.597657 11.519532 25.597657 25.597657v64.601562c0 14.078125 11.523437 25.597657 25.601562 25.597657s25.601562-11.519532 25.601562-25.597657v-26.503906c0-14.078125 11.519532-25.597656 25.597657-25.597656 14.082031 0 25.601562 11.519531 25.601562 25.597656v23.878906c0 14.082031 11.519531 25.601563 25.597657 25.601563 14.082031 0 25.601562-11.519532 25.601562-25.601563 0-8.09375 0-123.835937 0-132.839843zm0 0" fill="#32b1cc"/><g fill="#1695b7"><path d="m20.605469 371.792969c0-6.296875 0-97.148438 0-100.050781 0-10.457032 8.554687-19.011719 19.011719-19.011719h-20.605469c-10.457031 0-19.011719 8.554687-19.011719 19.011719v100.050781c0 14.078125 11.519531 25.597656 25.601562 25.597656 3.660157 0 7.144532-.78125 10.300782-2.183594-8.988282-3.984375-15.296875-12.996093-15.296875-23.414062zm0 0"/><path d="m225.40625 404.582031c0-6.152343 0-15.703125 0-23.878906 0-14.078125-11.519531-25.597656-25.601562-25.597656-3.660157 0-7.144532.785156-10.300782 2.183593 8.984375 3.984376 15.296875 12.996094 15.296875 23.414063v23.878906c0 14.082031 11.519531 25.601563 25.601563 25.601563 3.660156 0 7.144531-.785156 10.300781-2.183594-8.984375-3.988281-15.296875-12.996094-15.296875-23.417969zm0 0"/><path d="m123.003906 407.207031v-64.601562c0-14.078125-11.519531-25.597657-25.597656-25.597657-3.664062 0-7.144531.785157-10.304688 2.183594 8.988282 3.984375 15.296876 12.996094 15.300782 23.414063v64.601562c0 14.078125 11.519531 25.597657 25.597656 25.597657 3.660156 0 7.144531-.78125 10.304688-2.183594-8.988282-3.984375-15.300782-12.996094-15.300782-23.414063zm0 0"/></g><path d="m256 271.742188c0-10.457032 8.554688-19.011719 19.011719-19.011719h217.976562c10.457031 0 19.011719 8.554687 19.011719 19.011719v122.347656c0 14.082031-11.519531 25.601562-25.597656 25.601562-14.082032 0-25.601563-11.519531-25.601563-25.601562v-12.136719c0-14.078125-11.519531-25.597656-25.601562-25.597656-14.078125 0-25.597657 11.519531-25.597657 25.597656v25.253906c0 14.078125-11.519531 25.597657-25.601562 25.597657-14.078125 0-25.597656-11.519532-25.597656-25.597657v-47.488281c0-14.082031-11.519532-25.601562-25.601563-25.601562-14.078125 0-25.601562 11.519531-25.601562 25.601562v12.074219c0 14.078125-11.519531 25.597656-25.597657 25.597656-14.082031 0-25.601562-11.519531-25.601562-25.597656 0-8.097657 0-91.046875 0-100.050781zm0 0" fill="#ea5471"/><path d="m276.796875 371.792969c0-8.097657 0-91.046875 0-100.050781 0-10.457032 8.558594-19.011719 19.015625-19.011719h-20.800781c-10.457031 0-19.011719 8.554687-19.011719 19.011719v100.050781c0 14.078125 11.519531 25.597656 25.601562 25.597656 3.695313 0 7.214844-.800781 10.398438-2.226563-8.933594-4.007812-15.203125-12.988281-15.203125-23.371093zm0 0" fill="#da1c4b"/><path d="m379.199219 407.207031v-47.488281c0-14.082031-11.519531-25.601562-25.601563-25.601562-3.699218 0-7.214844.800781-10.398437 2.230468 8.933593 4.003906 15.199219 12.988282 15.199219 23.371094v47.488281c0 14.082031 11.523437 25.601563 25.601562 25.601563 3.699219 0 7.214844-.800782 10.398438-2.230469-8.933594-4.007813-15.199219-12.988281-15.199219-23.371094zm0 0" fill="#da1c4b"/><path d="m481.597656 394.089844v-12.136719c0-14.078125-11.519531-25.597656-25.597656-25.597656-3.699219 0-7.21875.800781-10.398438 2.226562 8.933594 4.007813 15.199219 12.992188 15.199219 23.371094v12.136719c0 14.078125 11.519531 25.601562 25.601563 25.601562 3.695312 0 7.214844-.804687 10.398437-2.230468-8.9375-4.003907-15.203125-12.988282-15.203125-23.371094zm0 0" fill="#da1c4b"/><path d="m128.148438 19.011719c0-10.457031 8.554687-19.011719 19.011718-19.011719h217.976563c10.457031 0 19.011719 8.554688 19.011719 19.011719v130.21875c0 14.078125-11.519532 25.601562-25.597657 25.601562-14.082031 0-25.601562-11.523437-25.601562-25.601562v-58.042969c0-14.078125-11.519531-25.597656-25.597657-25.597656-14.082031 0-25.601562 11.519531-25.601562 25.597656v100.015625c0 14.078125-11.519531 25.597656-25.601562 25.597656-14.078126 0-25.597657-11.519531-25.597657-25.597656v-69.785156c0-14.082031-11.519531-25.601563-25.601562-25.601563-14.078125 0-25.597657 11.519532-25.597657 25.601563v10.761719c0 14.078124-11.523437 25.601562-25.601562 25.601562s-25.601562-11.523438-25.601562-25.601562c0-8.097657 0-104.164063 0-113.167969zm0 0" fill="#9c2d20"/><path d="m148.753906 132.179688c0-8.097657 0-104.164063 0-113.164063 0-10.457031 8.554688-19.015625 19.011719-19.015625h-20.605469c-10.457031 0-19.011718 8.558594-19.011718 19.015625v113.164063c0 14.078124 11.519531 25.601562 25.601562 25.601562 3.660156 0 7.144531-.785156 10.300781-2.1875-8.984375-3.984375-15.296875-12.996094-15.296875-23.414062zm0 0" fill="#8c271f"/><path d="m353.554688 149.230469v-58.042969c0-14.078125-11.523438-25.597656-25.601563-25.597656-3.660156 0-7.144531.785156-10.300781 2.183594 8.984375 3.984374 15.296875 12.996093 15.296875 23.414062v58.042969c0 14.078125 11.519531 25.601562 25.601562 25.601562 3.660157 0 7.144531-.785156 10.300781-2.183593-8.988281-3.988282-15.296874-13-15.296874-23.417969zm0 0" fill="#8c271f"/><path d="m251.152344 191.203125v-69.785156c0-14.082031-11.519532-25.601563-25.597656-25.601563-3.660157 0-7.144532.785156-10.300782 2.183594 8.984375 3.988281 15.296875 12.996094 15.296875 23.417969v69.785156c0 14.078125 11.519531 25.597656 25.597657 25.597656 3.660156 0 7.144531-.785156 10.304687-2.183593-8.988281-3.984376-15.300781-12.996094-15.300781-23.414063zm0 0" fill="#8c271f"/></svg>