<svg viewBox="-150 0 511 511.9999" xmlns="http://www.w3.org/2000/svg"><path d="m198.617188 273.953125-80.816407 230.019531c-3.761719 10.703125-18.902343 10.703125-22.660156 0l-80.820313-230.019531zm0 0" fill="#ffd782"/><path d="m115.921875 503.972656-80.816406-230.019531h-20.78125l80.816406 230.019531c3.5 9.964844 16.855469 10.648438 21.71875 2.058594-.359375-.636719-.679687-1.320312-.9375-2.058594zm0 0" fill="#fdbd40"/><path d="m184.78125 313.332031 13.835938-39.378906h-184.296876l13.835938 39.378906zm0 0" fill="#fdbd40"/><path d="m28.15625 313.332031h20.785156l-13.835937-39.378906h-20.785157zm0 0" fill="#f2aa2a"/><path d="m102.839844 1.800781c-17.152344 15.121094-42.636719 43.617188-38.46875 76.738281h82.972656s-34.140625-30.234374-32.644531-70.816406c.238281-6.457031-7.078125-10.136718-11.859375-5.921875zm0 0" fill="#87cee9"/><path d="m114.675781 10.035156c.003907-.769531-.003906-1.535156.023438-2.3125.238281-6.457031-7.078125-10.136718-11.859375-5.921875-17.152344 15.121094-42.636719 43.617188-38.46875 76.738281h20.539062c-3.503906-27.832031 13.933594-52.394531 29.765625-68.503906zm0 0" fill="#32b1cc"/><path d="m173.925781 103.984375c0-14.964844-11.703125-27.09375-26.140625-27.09375h-83.472656c-14.4375 0-26.136719 12.128906-26.136719 27.09375 0 14.960937 11.699219 27.09375 26.136719 27.09375h83.472656c14.4375-.003906 26.140625-12.132813 26.140625-27.09375zm0 0" fill="#32b1cc"/><path d="m58.777344 103.984375c0-14.964844 11.703125-27.09375 26.140625-27.09375h-20.605469c-14.4375 0-26.136719 12.128906-26.136719 27.09375 0 14.960937 11.699219 27.09375 26.136719 27.09375h20.605469c-14.4375 0-26.140625-12.132813-26.140625-27.09375zm0 0" fill="#1695b7"/><path d="m194.992188 156.210938c0-14.875-11.703126-26.929688-26.140626-26.929688h-125.605468c-14.4375 0-26.140625 12.054688-26.140625 26.929688 0 14.871093 11.703125 26.925781 26.140625 26.925781h125.605468c14.4375 0 26.140626-12.054688 26.140626-26.925781zm0 0" fill="#87cee9"/><path d="m37.714844 156.210938c0-14.875 11.699218-26.929688 26.136718-26.929688h-20.605468c-14.433594 0-26.136719 12.054688-26.136719 26.929688 0 14.871093 11.703125 26.925781 26.136719 26.925781h20.605468c-14.4375 0-26.136718-12.054688-26.136718-26.925781zm0 0" fill="#32b1cc"/><path d="m182.679688 181.671875h-153.257813c-14.4375 0-26.140625 11.957031-26.140625 26.703125s11.703125 26.699219 26.140625 26.699219h153.257813c14.4375 0 26.140624-11.953125 26.140624-26.699219s-11.703124-26.703125-26.140624-26.703125zm0 0" fill="#32b1cc"/><path d="m23.882812 208.375c0-14.746094 11.703126-26.699219 26.140626-26.699219h-20.605469c-14.4375 0-26.140625 11.953125-26.140625 26.699219s11.703125 26.699219 26.140625 26.699219h20.605469c-14.433594 0-26.140626-11.953125-26.140626-26.699219zm0 0" fill="#1695b7"/><path d="m207.101562 235.074219h-201.261718c-2.949219 0-5.339844 2.390625-5.339844 5.339843v28.203126c0 2.945312 2.390625 5.335937 5.339844 5.335937h201.261718c2.949219 0 5.335938-2.390625 5.335938-5.335937v-28.203126c0-2.949218-2.386719-5.339843-5.335938-5.339843zm0 0" fill="#ffd782"/><path d="m21.238281 268.617188v-28.203126c0-2.949218 2.390625-5.339843 5.335938-5.339843h-20.738281c-2.945313 0-5.335938 2.390625-5.335938 5.339843v28.203126c0 2.945312 2.390625 5.335937 5.335938 5.335937h20.738281c-2.945313 0-5.335938-2.390625-5.335938-5.335937zm0 0" fill="#fdbd40"/></svg>